<mxfile host="drawio-plugin" modified="2021-06-14T23:53:45.720Z" agent="5.0 (Macintosh; Intel Mac OS X 10_16_0) AppleWebKit/537.36 (KHTML, like Gecko) Chrome/84.0.4147.105 Safari/537.36" etag="_qsBry54Qv8DJVoUC9V4" version="14.6.6" type="embed" pages="5"><diagram id="AR-Benr0rKoYyfK-APUZ" name="GUI"><mxGraphModel dx="1704" dy="512" grid="0" gridSize="10" guides="1" tooltips="1" connect="1" arrows="1" fold="1" page="0" pageScale="1" pageWidth="850" pageHeight="1100" math="0" shadow="0"><root><mxCell id="0"/><mxCell id="1" parent="0"/><mxCell id="2" value="&lt;p style=&quot;margin: 4px 0px 0px ; text-align: center&quot;&gt;&lt;b&gt;Main&lt;/b&gt;&lt;/p&gt;&lt;hr size=&quot;1&quot;&gt;&lt;p style=&quot;margin: 0px 0px 0px 4px&quot;&gt;&lt;br&gt;&lt;/p&gt;&lt;hr size=&quot;1&quot;&gt;&lt;p style=&quot;margin: 0px 0px 0px 4px&quot;&gt;+&amp;nbsp;&lt;span style=&quot;font-family: &amp;#34;jetbrains mono&amp;#34; , monospace ; color: rgb(255 , 198 , 109)&quot;&gt;start&lt;/span&gt;&lt;span style=&quot;font-family: &amp;#34;jetbrains mono&amp;#34; , monospace ; color: rgb(152 , 118 , 170) ; font-style: italic&quot;&gt;(&lt;/span&gt;&lt;span style=&quot;font-family: &amp;#34;jetbrains mono&amp;#34; , monospace ; color: rgb(226 , 165 , 238)&quot;&gt;Stage &lt;/span&gt;&lt;span style=&quot;font-family: &amp;#34;jetbrains mono&amp;#34; , monospace ; color: rgb(45 , 185 , 255)&quot;&gt;primaryStage&lt;/span&gt;&lt;span style=&quot;font-family: &amp;#34;jetbrains mono&amp;#34; , monospace ; color: rgb(152 , 118 , 170) ; font-style: italic&quot;&gt;) : void&lt;/span&gt;&lt;/p&gt;&lt;p style=&quot;margin: 0px 0px 0px 4px&quot;&gt;&lt;br&gt;&lt;/p&gt;" style="verticalAlign=top;align=left;overflow=fill;fontSize=12;fontFamily=Helvetica;html=1;" parent="1" vertex="1"><mxGeometry x="317" y="31" width="280" height="100" as="geometry"/></mxCell><mxCell id="4" value="&lt;p style=&quot;margin: 4px 0px 0px ; text-align: center&quot;&gt;&lt;b&gt;GuI_EventCard&lt;/b&gt;&lt;/p&gt;&lt;hr size=&quot;1&quot;&gt;&lt;p style=&quot;margin: 0px 0px 0px 4px&quot;&gt;-&amp;nbsp;&lt;span style=&quot;font-family: &amp;#34;jetbrains mono&amp;#34; , monospace ; color: rgb(226 , 165 , 238)&quot;&gt;GUI_EventCardTitle &lt;/span&gt;&lt;span style=&quot;font-family: &amp;#34;jetbrains mono&amp;#34; , monospace ; color: rgb(152 , 118 , 170)&quot;&gt;gui_eventCardTitle&lt;/span&gt;&lt;/p&gt;&lt;p style=&quot;margin: 0px 0px 0px 4px&quot;&gt;-&amp;nbsp;&lt;span style=&quot;font-family: &amp;#34;jetbrains mono&amp;#34; , monospace ; color: rgb(226 , 165 , 238)&quot;&gt;GUI_Event &lt;/span&gt;&lt;span style=&quot;font-family: &amp;#34;jetbrains mono&amp;#34; , monospace ; color: rgb(152 , 118 , 170)&quot;&gt;gui_event&lt;/span&gt;&lt;/p&gt;&lt;p style=&quot;margin: 0px 0px 0px 4px&quot;&gt;-&amp;nbsp;&lt;span style=&quot;font-family: &amp;#34;jetbrains mono&amp;#34; , monospace ; color: rgb(226 , 165 , 238)&quot;&gt;GUI_Note &lt;/span&gt;&lt;span style=&quot;font-family: &amp;#34;jetbrains mono&amp;#34; , monospace ; color: rgb(152 , 118 , 170)&quot;&gt;gui_note&lt;/span&gt;&lt;/p&gt;&lt;p style=&quot;margin: 0px 0px 0px 4px&quot;&gt;-&amp;nbsp;&lt;span style=&quot;font-family: &amp;#34;jetbrains mono&amp;#34; , monospace ; color: rgb(226 , 165 , 238)&quot;&gt;GUI_Comment &lt;/span&gt;&lt;span style=&quot;font-family: &amp;#34;jetbrains mono&amp;#34; , monospace ; color: rgb(152 , 118 , 170)&quot;&gt;gui_comment&lt;/span&gt;&lt;/p&gt;&lt;hr size=&quot;1&quot;&gt;&lt;p style=&quot;margin: 0px 0px 0px 4px&quot;&gt;+&lt;span style=&quot;font-family: &amp;#34;jetbrains mono&amp;#34; , monospace ; color: rgb(255 , 198 , 109)&quot;&gt;showEventCard&lt;/span&gt;&lt;span style=&quot;font-family: &amp;#34;jetbrains mono&amp;#34; , monospace ; color: rgb(152 , 118 , 170) ; font-style: italic&quot;&gt;():&lt;/span&gt;&lt;span style=&quot;color: rgb(226 , 165 , 238) ; background-color: rgb(43 , 43 , 43) ; font-family: &amp;#34;jetbrains mono&amp;#34; , monospace&quot;&gt;AnchorPane&lt;/span&gt;&lt;/p&gt;" style="verticalAlign=top;align=left;overflow=fill;fontSize=12;fontFamily=Helvetica;html=1;" parent="1" vertex="1"><mxGeometry x="-178" y="346" width="349" height="130" as="geometry"/></mxCell><mxCell id="5" value="&lt;p style=&quot;margin: 4px 0px 0px ; text-align: center&quot;&gt;&lt;b&gt;GUI_Event&lt;/b&gt;&lt;/p&gt;&lt;hr size=&quot;1&quot;&gt;&lt;p style=&quot;margin: 0px 0px 0px 4px&quot;&gt;-&amp;nbsp;&lt;span style=&quot;font-family: &amp;#34;jetbrains mono&amp;#34; , monospace ; color: rgb(226 , 165 , 238)&quot;&gt;TextField &lt;/span&gt;&lt;span style=&quot;font-family: &amp;#34;jetbrains mono&amp;#34; , monospace ; color: rgb(152 , 118 , 170)&quot;&gt;tf_EventChapter&lt;/span&gt;&lt;/p&gt;&lt;p style=&quot;margin: 0px 0px 0px 4px&quot;&gt;-&amp;nbsp;&lt;span style=&quot;font-family: &amp;#34;jetbrains mono&amp;#34; , monospace ; color: rgb(226 , 165 , 238)&quot;&gt;TextField &lt;/span&gt;&lt;span style=&quot;font-family: &amp;#34;jetbrains mono&amp;#34; , monospace ; color: rgb(152 , 118 , 170)&quot;&gt;tf_Role&lt;/span&gt;&lt;/p&gt;&lt;p style=&quot;margin: 0px 0px 0px 4px&quot;&gt;-&amp;nbsp;&lt;span style=&quot;font-family: &amp;#34;jetbrains mono&amp;#34; , monospace ; color: rgb(226 , 165 , 238)&quot;&gt;TextField &lt;/span&gt;&lt;span style=&quot;font-family: &amp;#34;jetbrains mono&amp;#34; , monospace ; color: rgb(152 , 118 , 170)&quot;&gt;tf_Time&lt;/span&gt;&lt;/p&gt;&lt;p style=&quot;margin: 0px 0px 0px 4px&quot;&gt;-&amp;nbsp;&lt;span style=&quot;font-family: &amp;#34;jetbrains mono&amp;#34; , monospace ; color: rgb(226 , 165 , 238)&quot;&gt;TextArea &lt;/span&gt;&lt;span style=&quot;font-family: &amp;#34;jetbrains mono&amp;#34; , monospace ; color: rgb(152 , 118 , 170)&quot;&gt;ta_EventValue&lt;/span&gt;&lt;/p&gt;&lt;hr size=&quot;1&quot;&gt;&lt;p style=&quot;margin: 0px 0px 0px 4px&quot;&gt;+&amp;nbsp;&lt;span style=&quot;font-family: &amp;#34;jetbrains mono&amp;#34; , monospace ; color: rgb(255 , 198 , 109)&quot;&gt;showEvent&lt;/span&gt;&lt;span style=&quot;font-family: &amp;#34;jetbrains mono&amp;#34; , monospace ; color: rgb(152 , 118 , 170) ; font-style: italic&quot;&gt;():&lt;/span&gt;&lt;span style=&quot;color: rgb(226 , 165 , 238) ; background-color: rgb(43 , 43 , 43) ; font-family: &amp;#34;jetbrains mono&amp;#34; , monospace&quot;&gt;VBox&lt;/span&gt;&lt;/p&gt;" style="verticalAlign=top;align=left;overflow=fill;fontSize=12;fontFamily=Helvetica;html=1;" parent="1" vertex="1"><mxGeometry x="-547" y="131" width="236" height="124" as="geometry"/></mxCell><mxCell id="6" value="&lt;p style=&quot;margin: 4px 0px 0px ; text-align: center&quot;&gt;&lt;b&gt;GuI_EventMap&lt;/b&gt;&lt;/p&gt;&lt;hr size=&quot;1&quot;&gt;&lt;p style=&quot;margin: 0px 0px 0px 4px&quot;&gt;-&lt;span style=&quot;font-family: &amp;#34;jetbrains mono&amp;#34; , monospace ; color: rgb(226 , 165 , 238)&quot;&gt;Pane &lt;/span&gt;&lt;span style=&quot;font-family: &amp;#34;jetbrains mono&amp;#34; , monospace ; color: rgb(152 , 118 , 170)&quot;&gt;pane_EventMap&lt;/span&gt;&lt;/p&gt;&lt;hr size=&quot;1&quot;&gt;&lt;p style=&quot;margin: 0px 0px 0px 4px&quot;&gt;+&lt;span style=&quot;font-family: &amp;#34;jetbrains mono&amp;#34; , monospace ; color: rgb(255 , 198 , 109)&quot;&gt;showEventMap&lt;/span&gt;&lt;span style=&quot;font-family: &amp;#34;jetbrains mono&amp;#34; , monospace ; color: rgb(152 , 118 , 170) ; font-style: italic&quot;&gt;():&lt;/span&gt;&lt;span style=&quot;color: rgb(226 , 165 , 238) ; background-color: rgb(43 , 43 , 43) ; font-family: &amp;#34;jetbrains mono&amp;#34; , monospace&quot;&gt;AnchorPane&lt;/span&gt;&lt;/p&gt;" style="verticalAlign=top;align=left;overflow=fill;fontSize=12;fontFamily=Helvetica;html=1;" parent="1" vertex="1"><mxGeometry x="1010" y="346" width="202" height="100" as="geometry"/></mxCell><mxCell id="7" value="&lt;p style=&quot;margin: 4px 0px 0px ; text-align: center&quot;&gt;&lt;b&gt;GUI_EventList&lt;/b&gt;&lt;/p&gt;&lt;hr size=&quot;1&quot;&gt;&lt;p style=&quot;margin: 0px 0px 0px 4px&quot;&gt;-&amp;nbsp;&lt;span style=&quot;font-family: &amp;#34;jetbrains mono&amp;#34; , monospace ; color: rgb(226 , 165 , 238)&quot;&gt;Label &lt;/span&gt;&lt;span style=&quot;font-family: &amp;#34;jetbrains mono&amp;#34; , monospace ; color: rgb(152 , 118 , 170)&quot;&gt;lb_EventList&lt;/span&gt;&lt;/p&gt;&lt;p style=&quot;margin: 0px 0px 0px 4px&quot;&gt;-&amp;nbsp;&lt;span style=&quot;font-family: &amp;#34;jetbrains mono&amp;#34; , monospace ; color: rgb(226 , 165 , 238)&quot;&gt;ListView&lt;/span&gt;&lt;span style=&quot;font-family: &amp;#34;jetbrains mono&amp;#34; , monospace ; color: rgb(152 , 118 , 170) ; font-style: italic&quot;&gt;&amp;lt;&lt;/span&gt;&lt;span style=&quot;font-family: &amp;#34;jetbrains mono&amp;#34; , monospace ; color: rgb(226 , 165 , 238)&quot;&gt;Dom_EventCard&lt;/span&gt;&lt;span style=&quot;font-family: &amp;#34;jetbrains mono&amp;#34; , monospace ; color: rgb(152 , 118 , 170) ; font-style: italic&quot;&gt;&amp;gt; &lt;/span&gt;&lt;span style=&quot;font-family: &amp;#34;jetbrains mono&amp;#34; , monospace ; color: rgb(152 , 118 , 170)&quot;&gt;lv_EventList&lt;/span&gt;&lt;/p&gt;&lt;p style=&quot;margin: 0px 0px 0px 4px&quot;&gt;-&amp;nbsp;&lt;span style=&quot;font-family: &amp;#34;jetbrains mono&amp;#34; , monospace ; color: rgb(226 , 165 , 238)&quot;&gt;Button &lt;/span&gt;&lt;span style=&quot;font-family: &amp;#34;jetbrains mono&amp;#34; , monospace ; color: rgb(152 , 118 , 170)&quot;&gt;bu_EventList_Add&lt;/span&gt;&lt;/p&gt;&lt;p style=&quot;margin: 0px 0px 0px 4px&quot;&gt;-&amp;nbsp;&lt;span style=&quot;font-family: &amp;#34;jetbrains mono&amp;#34; , monospace ; color: rgb(226 , 165 , 238)&quot;&gt;Button &lt;/span&gt;&lt;span style=&quot;font-family: &amp;#34;jetbrains mono&amp;#34; , monospace ; color: rgb(152 , 118 , 170)&quot;&gt;bu_EventList_Delete&lt;/span&gt;&lt;/p&gt;&lt;p style=&quot;margin: 0px 0px 0px 4px&quot;&gt;-&amp;nbsp;&lt;span style=&quot;font-family: &amp;#34;jetbrains mono&amp;#34; , monospace ; color: rgb(226 , 165 , 238)&quot;&gt;ButtonBar &lt;/span&gt;&lt;span style=&quot;font-family: &amp;#34;jetbrains mono&amp;#34; , monospace ; color: rgb(152 , 118 , 170)&quot;&gt;bb_EventList&lt;/span&gt;&lt;/p&gt;&lt;hr size=&quot;1&quot;&gt;&lt;p style=&quot;margin: 0px 0px 0px 4px&quot;&gt;&lt;br&gt;&lt;/p&gt;" style="verticalAlign=top;align=left;overflow=fill;fontSize=12;fontFamily=Helvetica;html=1;" parent="1" vertex="1"><mxGeometry x="221" y="346" width="309" height="134" as="geometry"/></mxCell><mxCell id="8" value="&lt;p style=&quot;margin: 4px 0px 0px ; text-align: center&quot;&gt;&lt;b&gt;GuI_ControlBar&lt;/b&gt;&lt;/p&gt;&lt;hr size=&quot;1&quot;&gt;&lt;p style=&quot;margin: 0px 0px 0px 4px&quot;&gt;&lt;br&gt;&lt;/p&gt;&lt;hr size=&quot;1&quot;&gt;&lt;p style=&quot;margin: 0px 0px 0px 4px&quot;&gt;+&amp;nbsp;&lt;span style=&quot;font-family: &amp;#34;jetbrains mono&amp;#34; , monospace ; color: rgb(255 , 198 , 109)&quot;&gt;showControlBar&lt;/span&gt;&lt;span style=&quot;font-family: &amp;#34;jetbrains mono&amp;#34; , monospace ; color: rgb(152 , 118 , 170) ; font-style: italic&quot;&gt;(&lt;/span&gt;&lt;span style=&quot;font-family: &amp;#34;jetbrains mono&amp;#34; , monospace ; color: rgb(226 , 165 , 238)&quot;&gt;Stage &lt;/span&gt;&lt;span style=&quot;font-family: &amp;#34;jetbrains mono&amp;#34; , monospace ; color: rgb(45 , 185 , 255)&quot;&gt;primaryStage&lt;/span&gt;&lt;span style=&quot;font-family: &amp;#34;jetbrains mono&amp;#34; , monospace ; color: rgb(152 , 118 , 170) ; font-style: italic&quot;&gt;):&lt;/span&gt;&lt;span style=&quot;color: rgb(226 , 165 , 238) ; background-color: rgb(43 , 43 , 43) ; font-family: &amp;#34;jetbrains mono&amp;#34; , monospace&quot;&gt;AnchorPane&lt;/span&gt;&lt;/p&gt;" style="verticalAlign=top;align=left;overflow=fill;fontSize=12;fontFamily=Helvetica;html=1;" parent="1" vertex="1"><mxGeometry x="584" y="346" width="366" height="98" as="geometry"/></mxCell><mxCell id="13" value="1" style="endArrow=open;html=1;endSize=12;startArrow=diamondThin;startSize=14;startFill=0;edgeStyle=orthogonalEdgeStyle;align=left;verticalAlign=bottom;" parent="1" source="8" target="2" edge="1"><mxGeometry x="-1" y="3" relative="1" as="geometry"><mxPoint x="614" y="692" as="sourcePoint"/><mxPoint x="510" y="154" as="targetPoint"/><Array as="points"><mxPoint x="615" y="238"/><mxPoint x="458" y="238"/></Array></mxGeometry></mxCell><mxCell id="14" value="1" style="endArrow=open;html=1;endSize=12;startArrow=diamondThin;startSize=14;startFill=0;edgeStyle=orthogonalEdgeStyle;align=left;verticalAlign=bottom;exitX=0.5;exitY=0;exitDx=0;exitDy=0;" parent="1" source="7" target="2" edge="1"><mxGeometry x="-1" y="3" relative="1" as="geometry"><mxPoint x="167" y="350" as="sourcePoint"/><mxPoint x="500" y="160" as="targetPoint"/></mxGeometry></mxCell><mxCell id="15" value="1" style="endArrow=open;html=1;endSize=12;startArrow=diamondThin;startSize=14;startFill=0;edgeStyle=orthogonalEdgeStyle;align=left;verticalAlign=bottom;exitX=0.4;exitY=0;exitDx=0;exitDy=0;exitPerimeter=0;" parent="1" source="4" target="2" edge="1"><mxGeometry x="-1" y="3" relative="1" as="geometry"><mxPoint x="383" y="359" as="sourcePoint"/><mxPoint x="538" y="157" as="targetPoint"/></mxGeometry></mxCell><mxCell id="16" value="1" style="endArrow=open;html=1;endSize=12;startArrow=diamondThin;startSize=14;startFill=0;edgeStyle=orthogonalEdgeStyle;align=left;verticalAlign=bottom;exitX=0.5;exitY=0;exitDx=0;exitDy=0;" parent="1" source="6" target="2" edge="1"><mxGeometry x="-1" y="3" relative="1" as="geometry"><mxPoint x="507" y="357" as="sourcePoint"/><mxPoint x="509" y="163" as="targetPoint"/></mxGeometry></mxCell><mxCell id="17" value="&lt;p style=&quot;margin: 4px 0px 0px ; text-align: center&quot;&gt;&lt;b&gt;GuI_View&lt;/b&gt;&lt;/p&gt;&lt;hr size=&quot;1&quot;&gt;&lt;p style=&quot;margin: 0px 0px 0px 4px&quot;&gt;&lt;span&gt;-&amp;nbsp;&lt;/span&gt;&lt;span style=&quot;font-family: &amp;#34;jetbrains mono&amp;#34; , monospace ; color: rgb(226 , 165 , 238)&quot;&gt;Button &lt;/span&gt;&lt;span style=&quot;font-family: &amp;#34;jetbrains mono&amp;#34; , monospace ; color: rgb(152 , 118 , 170)&quot;&gt;bu_Export&lt;/span&gt;&lt;/p&gt;&amp;nbsp;-&amp;nbsp;&lt;span style=&quot;font-family: &amp;#34;jetbrains mono&amp;#34; , monospace ; color: rgb(226 , 165 , 238)&quot;&gt;TextArea &lt;/span&gt;&lt;span style=&quot;font-family: &amp;#34;jetbrains mono&amp;#34; , monospace ; color: rgb(152 , 118 , 170)&quot;&gt;ta_View&lt;/span&gt;&lt;span&gt;&amp;nbsp;&lt;/span&gt;&lt;br&gt;&lt;hr size=&quot;1&quot;&gt;&lt;p style=&quot;margin: 0px 0px 0px 4px&quot;&gt;+&amp;nbsp;&lt;span style=&quot;font-family: &amp;#34;jetbrains mono&amp;#34; , monospace ; color: rgb(255 , 198 , 109)&quot;&gt;showView&lt;/span&gt;&lt;span style=&quot;font-family: &amp;#34;jetbrains mono&amp;#34; , monospace&quot;&gt;&lt;font color=&quot;#9876aa&quot;&gt;&lt;i&gt;():&lt;/i&gt;&lt;/font&gt;&lt;/span&gt;&lt;span style=&quot;color: rgb(226 , 165 , 238) ; background-color: rgb(43 , 43 , 43) ; font-family: &amp;#34;jetbrains mono&amp;#34; , monospace&quot;&gt;AnchorPane&lt;/span&gt;&lt;/p&gt;" style="verticalAlign=top;align=left;overflow=fill;fontSize=12;fontFamily=Helvetica;html=1;" parent="1" vertex="1"><mxGeometry x="1287" y="346" width="192" height="100" as="geometry"/></mxCell><mxCell id="18" value="1" style="endArrow=open;html=1;endSize=12;startArrow=diamondThin;startSize=14;startFill=0;edgeStyle=orthogonalEdgeStyle;align=left;verticalAlign=bottom;exitX=0.5;exitY=0;exitDx=0;exitDy=0;" parent="1" source="17" target="2" edge="1"><mxGeometry x="-1" y="3" relative="1" as="geometry"><mxPoint x="714" y="357" as="sourcePoint"/><mxPoint x="482" y="157" as="targetPoint"/></mxGeometry></mxCell><mxCell id="19" value="&lt;pre style=&quot;text-align: center ; background-color: rgb(43 , 43 , 43) ; color: rgb(159 , 199 , 236) ; font-family: &amp;#34;jetbrains mono&amp;#34; , monospace&quot;&gt;&lt;span style=&quot;color: #e2a5ee&quot;&gt;GUI_UserLogin&lt;/span&gt;&lt;/pre&gt;&lt;hr size=&quot;1&quot; style=&quot;text-align: center&quot;&gt;&lt;p style=&quot;text-align: center ; margin: 0px 0px 0px 4px&quot;&gt;&lt;br&gt;&lt;/p&gt;&lt;hr size=&quot;1&quot; style=&quot;text-align: center&quot;&gt;&lt;p style=&quot;text-align: center ; margin: 0px 0px 0px 4px&quot;&gt;+&amp;nbsp;&lt;span style=&quot;font-family: &amp;#34;jetbrains mono&amp;#34; , monospace ; color: rgb(255 , 198 , 109)&quot;&gt;showLoginStage&lt;/span&gt;&lt;span style=&quot;font-family: &amp;#34;jetbrains mono&amp;#34; , monospace ; color: rgb(152 , 118 , 170) ; font-style: italic&quot;&gt;(&lt;/span&gt;&lt;span style=&quot;font-family: &amp;#34;jetbrains mono&amp;#34; , monospace ; color: rgb(226 , 165 , 238)&quot;&gt;Stage &lt;/span&gt;&lt;span style=&quot;font-family: &amp;#34;jetbrains mono&amp;#34; , monospace ; color: rgb(45 , 185 , 255)&quot;&gt;primaryStage&lt;/span&gt;&lt;span style=&quot;font-family: &amp;#34;jetbrains mono&amp;#34; , monospace ; color: rgb(152 , 118 , 170) ; font-style: italic&quot;&gt;) : void&lt;/span&gt;&lt;/p&gt;&lt;p style=&quot;text-align: center ; margin: 0px 0px 0px 4px&quot;&gt;&lt;span style=&quot;font-family: &amp;#34;jetbrains mono&amp;#34; , monospace ; color: rgb(152 , 118 , 170) ; font-style: italic&quot;&gt;&lt;br&gt;&lt;/span&gt;&lt;/p&gt;" style="verticalAlign=top;align=left;overflow=fill;fontSize=12;fontFamily=Helvetica;html=1;" parent="1" vertex="1"><mxGeometry x="1236" y="47" width="340" height="98" as="geometry"/></mxCell><mxCell id="20" value="1" style="endArrow=open;html=1;endSize=12;startArrow=diamondThin;startSize=14;startFill=0;edgeStyle=orthogonalEdgeStyle;align=left;verticalAlign=bottom;exitX=-0.028;exitY=0.592;exitDx=0;exitDy=0;entryX=1;entryY=0.5;entryDx=0;entryDy=0;exitPerimeter=0;" parent="1" source="19" target="2" edge="1"><mxGeometry x="-1" y="3" relative="1" as="geometry"><mxPoint x="901" y="357" as="sourcePoint"/><mxPoint x="432" y="208" as="targetPoint"/></mxGeometry></mxCell><mxCell id="21" value="&lt;p style=&quot;margin: 4px 0px 0px ; text-align: center&quot;&gt;&lt;b&gt;GuI_UserRegister&lt;/b&gt;&lt;/p&gt;&lt;hr size=&quot;1&quot;&gt;&lt;p style=&quot;margin: 0px 0px 0px 4px&quot;&gt;&lt;br&gt;&lt;/p&gt;&lt;hr size=&quot;1&quot;&gt;&amp;nbsp;+&amp;nbsp;&lt;span style=&quot;background-color: rgb(43 , 43 , 43) ; font-family: &amp;#34;jetbrains mono&amp;#34; , monospace&quot;&gt;&lt;font color=&quot;#ffb366&quot;&gt;showRegisterStage&lt;/font&gt;&lt;/span&gt;&lt;span style=&quot;font-family: &amp;#34;jetbrains mono&amp;#34; , monospace ; color: rgb(152 , 118 , 170) ; font-style: italic&quot;&gt;(&lt;/span&gt;&lt;span style=&quot;font-family: &amp;#34;jetbrains mono&amp;#34; , monospace ; color: rgb(226 , 165 , 238)&quot;&gt;Stage &lt;/span&gt;&lt;span style=&quot;font-family: &amp;#34;jetbrains mono&amp;#34; , monospace ; color: rgb(45 , 185 , 255)&quot;&gt;stage_Login&lt;/span&gt;&lt;span style=&quot;font-family: &amp;#34;jetbrains mono&amp;#34; , monospace ; color: rgb(204 , 120 , 50)&quot;&gt;,&lt;/span&gt;&lt;span style=&quot;font-family: &amp;#34;jetbrains mono&amp;#34; , monospace ; color: rgb(226 , 165 , 238)&quot;&gt;Stage &lt;/span&gt;&lt;span style=&quot;font-family: &amp;#34;jetbrains mono&amp;#34; , monospace ; color: rgb(45 , 185 , 255)&quot;&gt;primaryStage&lt;/span&gt;&lt;span style=&quot;font-family: &amp;#34;jetbrains mono&amp;#34; , monospace ; color: rgb(152 , 118 , 170) ; font-style: italic&quot;&gt;):viod&lt;/span&gt;" style="verticalAlign=top;align=left;overflow=fill;fontSize=12;fontFamily=Helvetica;html=1;" parent="1" vertex="1"><mxGeometry x="1661" y="14" width="478" height="98" as="geometry"/></mxCell><mxCell id="22" value="1" style="endArrow=open;html=1;endSize=12;startArrow=diamondThin;startSize=14;startFill=1;edgeStyle=orthogonalEdgeStyle;align=left;verticalAlign=bottom;exitX=0;exitY=0.5;exitDx=0;exitDy=0;entryX=1;entryY=0.5;entryDx=0;entryDy=0;" parent="1" source="21" target="19" edge="1"><mxGeometry x="-1" y="3" relative="1" as="geometry"><mxPoint x="788" y="97" as="sourcePoint"/><mxPoint x="948" y="97" as="targetPoint"/></mxGeometry></mxCell><mxCell id="23" value="&lt;p style=&quot;margin: 4px 0px 0px ; text-align: center&quot;&gt;&lt;b&gt;GUI_ForgotPassword&lt;/b&gt;&lt;/p&gt;&lt;hr size=&quot;1&quot;&gt;&lt;p style=&quot;margin: 0px 0px 0px 4px&quot;&gt;&lt;br&gt;&lt;/p&gt;&lt;hr size=&quot;1&quot;&gt;&lt;p style=&quot;margin: 0px 0px 0px 4px&quot;&gt;+&amp;nbsp;&lt;span style=&quot;font-family: &amp;#34;jetbrains mono&amp;#34; , monospace ; color: rgb(255 , 198 , 109)&quot;&gt;showForgotPasswordStage&lt;/span&gt;&lt;span style=&quot;font-family: &amp;#34;jetbrains mono&amp;#34; , monospace ; color: rgb(152 , 118 , 170) ; font-style: italic&quot;&gt;(&lt;/span&gt;&lt;span style=&quot;font-family: &amp;#34;jetbrains mono&amp;#34; , monospace ; color: rgb(226 , 165 , 238)&quot;&gt;Stage &lt;/span&gt;&lt;span style=&quot;font-family: &amp;#34;jetbrains mono&amp;#34; , monospace ; color: rgb(45 , 185 , 255)&quot;&gt;stage_Login&lt;/span&gt;&lt;span style=&quot;font-family: &amp;#34;jetbrains mono&amp;#34; , monospace ; color: rgb(204 , 120 , 50)&quot;&gt;,&lt;/span&gt;&lt;span style=&quot;font-family: &amp;#34;jetbrains mono&amp;#34; , monospace ; color: rgb(226 , 165 , 238)&quot;&gt;Stage &lt;/span&gt;&lt;span style=&quot;font-family: &amp;#34;jetbrains mono&amp;#34; , monospace ; color: rgb(45 , 185 , 255)&quot;&gt;primaryStage&lt;/span&gt;&lt;span style=&quot;font-family: &amp;#34;jetbrains mono&amp;#34; , monospace ; color: rgb(152 , 118 , 170) ; font-style: italic&quot;&gt;):void&lt;/span&gt;&lt;/p&gt;" style="verticalAlign=top;align=left;overflow=fill;fontSize=12;fontFamily=Helvetica;html=1;" parent="1" vertex="1"><mxGeometry x="1642" y="198" width="501" height="98" as="geometry"/></mxCell><mxCell id="24" value="1" style="endArrow=open;html=1;endSize=12;startArrow=diamondThin;startSize=14;startFill=1;edgeStyle=orthogonalEdgeStyle;align=left;verticalAlign=bottom;exitX=0;exitY=0.5;exitDx=0;exitDy=0;entryX=1;entryY=0.5;entryDx=0;entryDy=0;" parent="1" source="23" target="19" edge="1"><mxGeometry x="-1" y="3" relative="1" as="geometry"><mxPoint x="1376" y="166" as="sourcePoint"/><mxPoint x="1136" y="166" as="targetPoint"/></mxGeometry></mxCell><mxCell id="25" value="&lt;p style=&quot;margin: 4px 0px 0px ; text-align: center&quot;&gt;&lt;b&gt;GuI_EventMapElement&lt;/b&gt;&lt;/p&gt;&lt;hr size=&quot;1&quot;&gt;&lt;p style=&quot;margin: 0px 0px 0px 4px&quot;&gt;&lt;br&gt;&lt;/p&gt;&lt;hr size=&quot;1&quot;&gt;&lt;p style=&quot;margin: 0px 0px 0px 4px&quot;&gt;+&amp;nbsp;&lt;span style=&quot;font-family: &amp;#34;jetbrains mono&amp;#34; , monospace ; color: rgb(255 , 198 , 109)&quot;&gt;showElement&lt;/span&gt;&lt;span style=&quot;font-family: &amp;#34;jetbrains mono&amp;#34; , monospace ; color: rgb(152 , 118 , 170) ; font-style: italic&quot;&gt;(&lt;/span&gt;&lt;span style=&quot;font-family: &amp;#34;jetbrains mono&amp;#34; , monospace ; color: rgb(226 , 165 , 238)&quot;&gt;ListView&lt;/span&gt;&lt;span style=&quot;font-family: &amp;#34;jetbrains mono&amp;#34; , monospace ; color: rgb(152 , 118 , 170) ; font-style: italic&quot;&gt;&amp;lt;&lt;/span&gt;&lt;span style=&quot;font-family: &amp;#34;jetbrains mono&amp;#34; , monospace ; color: rgb(226 , 165 , 238)&quot;&gt;Dom_EventCard&lt;/span&gt;&lt;span style=&quot;font-family: &amp;#34;jetbrains mono&amp;#34; , monospace ; color: rgb(152 , 118 , 170) ; font-style: italic&quot;&gt;&amp;gt; &lt;/span&gt;&lt;span style=&quot;font-family: &amp;#34;jetbrains mono&amp;#34; , monospace ; color: rgb(45 , 185 , 255)&quot;&gt;lv_EventList&lt;/span&gt;&lt;span style=&quot;font-family: &amp;#34;jetbrains mono&amp;#34; , monospace ; color: rgb(152 , 118 , 170) ; font-style: italic&quot;&gt;):&lt;/span&gt;&lt;span style=&quot;background-color: rgb(43 , 43 , 43) ; color: rgb(159 , 199 , 236) ; font-family: &amp;#34;jetbrains mono&amp;#34; , monospace&quot;&gt;VBox&lt;/span&gt;&lt;/p&gt;" style="verticalAlign=top;align=left;overflow=fill;fontSize=12;fontFamily=Helvetica;html=1;" parent="1" vertex="1"><mxGeometry x="889" y="562" width="444" height="100" as="geometry"/></mxCell><mxCell id="26" value="1" style="endArrow=open;html=1;endSize=12;startArrow=diamondThin;startSize=14;startFill=1;edgeStyle=orthogonalEdgeStyle;align=left;verticalAlign=bottom;" parent="1" source="25" target="6" edge="1"><mxGeometry x="-1" y="3" relative="1" as="geometry"><mxPoint x="1230" y="488" as="sourcePoint"/><mxPoint x="971" y="374" as="targetPoint"/></mxGeometry></mxCell><mxCell id="27" value="1" style="endArrow=open;html=1;endSize=12;startArrow=diamondThin;startSize=14;startFill=1;edgeStyle=orthogonalEdgeStyle;align=left;verticalAlign=bottom;entryX=0;entryY=0.5;entryDx=0;entryDy=0;" parent="1" source="5" target="4" edge="1"><mxGeometry x="-1" y="3" relative="1" as="geometry"><mxPoint x="69" y="561" as="sourcePoint"/><mxPoint x="-190" y="447" as="targetPoint"/></mxGeometry></mxCell><mxCell id="28" value="&lt;p style=&quot;margin: 4px 0px 0px ; text-align: center&quot;&gt;&lt;b&gt;GUI_EventTitle&lt;/b&gt;&lt;/p&gt;&lt;hr size=&quot;1&quot;&gt;&lt;p style=&quot;margin: 0px 0px 0px 4px&quot;&gt;-&amp;nbsp;&lt;span style=&quot;font-family: &amp;#34;jetbrains mono&amp;#34; , monospace ; color: rgb(226 , 165 , 238)&quot;&gt;Label &lt;/span&gt;&lt;span style=&quot;font-family: &amp;#34;jetbrains mono&amp;#34; , monospace ; color: rgb(152 , 118 , 170)&quot;&gt;lb_EventCardTitle&lt;/span&gt;&lt;/p&gt;&lt;p style=&quot;margin: 0px 0px 0px 4px&quot;&gt;-&amp;nbsp;&lt;span style=&quot;font-family: &amp;#34;jetbrains mono&amp;#34; , monospace ; color: rgb(226 , 165 , 238)&quot;&gt;TextField &lt;/span&gt;&lt;span style=&quot;font-family: &amp;#34;jetbrains mono&amp;#34; , monospace ; color: rgb(152 , 118 , 170)&quot;&gt;tf_EventTitleEventName&lt;/span&gt;&lt;/p&gt;&lt;p style=&quot;margin: 0px 0px 0px 4px&quot;&gt;-&amp;nbsp;&lt;span style=&quot;font-family: &amp;#34;jetbrains mono&amp;#34; , monospace ; color: rgb(226 , 165 , 238)&quot;&gt;TextField &lt;/span&gt;&lt;span style=&quot;font-family: &amp;#34;jetbrains mono&amp;#34; , monospace ; color: rgb(152 , 118 , 170)&quot;&gt;tf_EventTitleAuthor&lt;/span&gt;&lt;/p&gt;&lt;p style=&quot;margin: 0px 0px 0px 4px&quot;&gt;-&amp;nbsp;&lt;span style=&quot;font-family: &amp;#34;jetbrains mono&amp;#34; , monospace ; color: rgb(226 , 165 , 238)&quot;&gt;TextField &lt;/span&gt;&lt;span style=&quot;font-family: &amp;#34;jetbrains mono&amp;#34; , monospace ; color: rgb(152 , 118 , 170)&quot;&gt;tf_EventTitleDate&lt;/span&gt;&lt;/p&gt;&lt;hr size=&quot;1&quot;&gt;&lt;p style=&quot;margin: 0px 0px 0px 4px&quot;&gt;+&amp;nbsp;&lt;span style=&quot;font-family: &amp;#34;jetbrains mono&amp;#34; , monospace ; color: rgb(255 , 198 , 109)&quot;&gt;showEventCard&lt;/span&gt;&lt;span style=&quot;font-family: &amp;#34;jetbrains mono&amp;#34; , monospace ; color: rgb(152 , 118 , 170) ; font-style: italic&quot;&gt;():&lt;/span&gt;&lt;span style=&quot;color: rgb(226 , 165 , 238) ; background-color: rgb(43 , 43 , 43) ; font-family: &amp;#34;jetbrains mono&amp;#34; , monospace&quot;&gt;VBox&lt;/span&gt;&lt;/p&gt;" style="verticalAlign=top;align=left;overflow=fill;fontSize=12;fontFamily=Helvetica;html=1;" parent="1" vertex="1"><mxGeometry x="-568" y="292" width="257" height="142" as="geometry"/></mxCell><mxCell id="29" value="&lt;p style=&quot;margin: 4px 0px 0px ; text-align: center&quot;&gt;&lt;b&gt;GUI_Note&lt;/b&gt;&lt;/p&gt;&lt;hr size=&quot;1&quot;&gt;&lt;p style=&quot;margin: 0px 0px 0px 4px&quot;&gt;-&amp;nbsp;&lt;span style=&quot;font-family: &amp;#34;jetbrains mono&amp;#34; , monospace ; color: rgb(226 , 165 , 238)&quot;&gt;TextArea &lt;/span&gt;&lt;span style=&quot;font-family: &amp;#34;jetbrains mono&amp;#34; , monospace ; color: rgb(152 , 118 , 170)&quot;&gt;ta_NoteValue&lt;/span&gt;&lt;/p&gt;&lt;hr size=&quot;1&quot;&gt;&lt;p style=&quot;margin: 0px 0px 0px 4px&quot;&gt;+&amp;nbsp;&lt;span style=&quot;font-family: &amp;#34;jetbrains mono&amp;#34; , monospace ; color: rgb(255 , 198 , 109)&quot;&gt;showNote&lt;/span&gt;&lt;span style=&quot;font-family: &amp;#34;jetbrains mono&amp;#34; , monospace ; color: rgb(152 , 118 , 170) ; font-style: italic&quot;&gt;():&lt;/span&gt;&lt;span style=&quot;color: rgb(226 , 165 , 238) ; background-color: rgb(43 , 43 , 43) ; font-family: &amp;#34;jetbrains mono&amp;#34; , monospace&quot;&gt;VBox&lt;/span&gt;&lt;/p&gt;" style="verticalAlign=top;align=left;overflow=fill;fontSize=12;fontFamily=Helvetica;html=1;" parent="1" vertex="1"><mxGeometry x="-540" y="480" width="229" height="82" as="geometry"/></mxCell><mxCell id="30" value="&lt;p style=&quot;margin: 4px 0px 0px ; text-align: center&quot;&gt;&lt;b&gt;GUI_Comment&lt;/b&gt;&lt;/p&gt;&lt;hr size=&quot;1&quot;&gt;&lt;p style=&quot;margin: 0px 0px 0px 4px&quot;&gt;-&amp;nbsp;&lt;span style=&quot;font-family: &amp;#34;jetbrains mono&amp;#34; , monospace ; color: rgb(226 , 165 , 238)&quot;&gt;TextField &lt;/span&gt;&lt;span style=&quot;font-family: &amp;#34;jetbrains mono&amp;#34; , monospace ; color: rgb(152 , 118 , 170)&quot;&gt;tf_CommentAuthor&lt;/span&gt;&lt;/p&gt;&lt;p style=&quot;margin: 0px 0px 0px 4px&quot;&gt;-&amp;nbsp;&lt;span style=&quot;font-family: &amp;#34;jetbrains mono&amp;#34; , monospace ; color: rgb(226 , 165 , 238)&quot;&gt;TextField &lt;/span&gt;&lt;span style=&quot;font-family: &amp;#34;jetbrains mono&amp;#34; , monospace ; color: rgb(152 , 118 , 170)&quot;&gt;tf_CommentDate&lt;/span&gt;&lt;/p&gt;&lt;p style=&quot;margin: 0px 0px 0px 4px&quot;&gt;-&amp;nbsp;&lt;span style=&quot;font-family: &amp;#34;jetbrains mono&amp;#34; , monospace ; color: rgb(226 , 165 , 238)&quot;&gt;TextArea &lt;/span&gt;&lt;span style=&quot;font-family: &amp;#34;jetbrains mono&amp;#34; , monospace ; color: rgb(152 , 118 , 170)&quot;&gt;ta_CommentValue&lt;/span&gt;&lt;/p&gt;&lt;hr size=&quot;1&quot;&gt;&lt;p style=&quot;margin: 0px 0px 0px 4px&quot;&gt;+&amp;nbsp;&lt;span style=&quot;font-family: &amp;#34;jetbrains mono&amp;#34; , monospace ; color: rgb(255 , 198 , 109)&quot;&gt;showComment&lt;/span&gt;&lt;span style=&quot;font-family: &amp;#34;jetbrains mono&amp;#34; , monospace ; color: rgb(152 , 118 , 170) ; font-style: italic&quot;&gt;():&lt;/span&gt;&lt;span style=&quot;color: rgb(226 , 165 , 238) ; background-color: rgb(43 , 43 , 43) ; font-family: &amp;#34;jetbrains mono&amp;#34; , monospace&quot;&gt;VBox&lt;/span&gt;&lt;/p&gt;" style="verticalAlign=top;align=left;overflow=fill;fontSize=12;fontFamily=Helvetica;html=1;" parent="1" vertex="1"><mxGeometry x="-547" y="608" width="236" height="113" as="geometry"/></mxCell><mxCell id="31" value="1" style="endArrow=open;html=1;endSize=12;startArrow=diamondThin;startSize=14;startFill=1;edgeStyle=orthogonalEdgeStyle;align=left;verticalAlign=bottom;exitX=1;exitY=0.5;exitDx=0;exitDy=0;" parent="1" source="28" target="4" edge="1"><mxGeometry x="-1" y="3" relative="1" as="geometry"><mxPoint x="-165.99999999999977" y="191.0000000000001" as="sourcePoint"/><mxPoint x="47" y="407" as="targetPoint"/></mxGeometry></mxCell><mxCell id="32" value="1" style="endArrow=open;html=1;endSize=12;startArrow=diamondThin;startSize=14;startFill=1;edgeStyle=orthogonalEdgeStyle;align=left;verticalAlign=bottom;exitX=1;exitY=0.5;exitDx=0;exitDy=0;" parent="1" source="29" target="4" edge="1"><mxGeometry x="-1" y="3" relative="1" as="geometry"><mxPoint x="-155.99999999999977" y="201.0000000000001" as="sourcePoint"/><mxPoint x="57" y="417" as="targetPoint"/></mxGeometry></mxCell><mxCell id="35" value="1" style="endArrow=open;html=1;endSize=12;startArrow=diamondThin;startSize=14;startFill=1;edgeStyle=orthogonalEdgeStyle;align=left;verticalAlign=bottom;" parent="1" source="30" target="4" edge="1"><mxGeometry x="-1" y="3" relative="1" as="geometry"><mxPoint x="-373.9999999999998" y="462" as="sourcePoint"/><mxPoint x="-168" y="463.0588235294117" as="targetPoint"/></mxGeometry></mxCell></root></mxGraphModel></diagram><diagram id="HVIBox3ay6bWx3uIL_nC" name="FUNCATION"><mxGraphModel dx="533" dy="1199" grid="0" gridSize="10" guides="1" tooltips="1" connect="1" arrows="1" fold="1" page="0" pageScale="1" pageWidth="850" pageHeight="1100" math="0" shadow="0"><root><mxCell id="Jv-4PZznbBfktTdIpypk-0"/><mxCell id="Jv-4PZznbBfktTdIpypk-1" parent="Jv-4PZznbBfktTdIpypk-0"/><mxCell id="zUN8kYiZSQsJAoj6mRyY-0" value="&lt;p style=&quot;margin: 4px 0px 0px ; text-align: center&quot;&gt;&lt;b&gt;Func_User&lt;/b&gt;&lt;/p&gt;&lt;hr size=&quot;1&quot;&gt;&lt;p style=&quot;margin: 0px 0px 0px 4px&quot;&gt;-&lt;font color=&quot;#e2a5ee&quot; face=&quot;jetbrains mono, monospace&quot;&gt;&amp;nbsp;&lt;/font&gt;&lt;span style=&quot;font-family: &amp;#34;jetbrains mono&amp;#34; , monospace ; color: rgb(226 , 165 , 238)&quot;&gt;Impl_UserDao &lt;/span&gt;&lt;span style=&quot;font-family: &amp;#34;jetbrains mono&amp;#34; , monospace ; color: rgb(226 , 165 , 238) ; font-style: italic&quot;&gt;impl_userDao&lt;/span&gt;&lt;/p&gt;&lt;hr size=&quot;1&quot;&gt;&lt;p style=&quot;margin: 0px 0px 0px 4px&quot;&gt;+&lt;font color=&quot;#ffc66d&quot; face=&quot;jetbrains mono, monospace&quot;&gt;&amp;nbsp;u&lt;/font&gt;&lt;span style=&quot;font-family: &amp;#34;jetbrains mono&amp;#34; , monospace ; color: rgb(255 , 198 , 109)&quot;&gt;serRegister&lt;/span&gt;&lt;span style=&quot;font-family: &amp;#34;jetbrains mono&amp;#34; , monospace ; color: rgb(152 , 118 , 170) ; font-style: italic&quot;&gt;(&lt;/span&gt;&lt;span style=&quot;font-family: &amp;#34;jetbrains mono&amp;#34; , monospace ; color: rgb(226 , 165 , 238)&quot;&gt;Dom_User &lt;/span&gt;&lt;span style=&quot;font-family: &amp;#34;jetbrains mono&amp;#34; , monospace ; color: rgb(45 , 185 , 255)&quot;&gt;user&lt;/span&gt;&lt;span style=&quot;font-family: &amp;#34;jetbrains mono&amp;#34; , monospace ; color: rgb(152 , 118 , 170) ; font-style: italic&quot;&gt;):void&lt;/span&gt;&lt;/p&gt;&lt;p style=&quot;margin: 0px 0px 0px 4px&quot;&gt;&lt;span style=&quot;font-family: &amp;#34;jetbrains mono&amp;#34; , monospace ; color: rgb(255 , 198 , 109)&quot;&gt;+ userLogin&lt;/span&gt;&lt;span style=&quot;font-family: &amp;#34;jetbrains mono&amp;#34; , monospace ; color: rgb(152 , 118 , 170) ; font-style: italic&quot;&gt;(&lt;/span&gt;&lt;span style=&quot;font-family: &amp;#34;jetbrains mono&amp;#34; , monospace ; color: rgb(226 , 165 , 238)&quot;&gt;Dom_User &lt;/span&gt;&lt;span style=&quot;font-family: &amp;#34;jetbrains mono&amp;#34; , monospace ; color: rgb(45 , 185 , 255)&quot;&gt;temp_User&lt;/span&gt;&lt;span style=&quot;font-family: &amp;#34;jetbrains mono&amp;#34; , monospace ; color: rgb(152 , 118 , 170) ; font-style: italic&quot;&gt;):&lt;/span&gt;&lt;span style=&quot;background-color: rgb(43 , 43 , 43) ; color: rgb(159 , 199 , 236) ; font-family: &amp;#34;jetbrains mono&amp;#34; , monospace&quot;&gt;Dom_User&lt;/span&gt;&lt;/p&gt;" style="verticalAlign=top;align=left;overflow=fill;fontSize=12;fontFamily=Helvetica;html=1;" vertex="1" parent="Jv-4PZznbBfktTdIpypk-1"><mxGeometry x="473" y="-324" width="316" height="100" as="geometry"/></mxCell><mxCell id="zUN8kYiZSQsJAoj6mRyY-1" value="&lt;p style=&quot;margin: 4px 0px 0px ; text-align: center&quot;&gt;&lt;b&gt;Func_ForgotPassword&lt;/b&gt;&lt;/p&gt;&lt;hr size=&quot;1&quot;&gt;&lt;p style=&quot;margin: 0px 0px 0px 4px&quot;&gt;-&lt;font color=&quot;#e2a5ee&quot; face=&quot;jetbrains mono, monospace&quot;&gt;&amp;nbsp;&lt;/font&gt;&lt;span style=&quot;font-family: &amp;#34;jetbrains mono&amp;#34; , monospace ; color: rgb(226 , 165 , 238)&quot;&gt;Impl_UserDao &lt;/span&gt;&lt;span style=&quot;font-family: &amp;#34;jetbrains mono&amp;#34; , monospace ; color: rgb(226 , 165 , 238) ; font-style: italic&quot;&gt;impl_userDao&lt;/span&gt;&lt;/p&gt;&lt;hr size=&quot;1&quot;&gt;&lt;p style=&quot;margin: 0px 0px 0px 4px&quot;&gt;+&lt;font color=&quot;#ffc66d&quot; face=&quot;jetbrains mono, monospace&quot;&gt;&amp;nbsp;u&lt;/font&gt;&lt;span style=&quot;font-family: &amp;#34;jetbrains mono&amp;#34; , monospace ; color: rgb(255 , 198 , 109)&quot;&gt;serRegister&lt;/span&gt;&lt;span style=&quot;font-family: &amp;#34;jetbrains mono&amp;#34; , monospace ; color: rgb(152 , 118 , 170) ; font-style: italic&quot;&gt;(&lt;/span&gt;&lt;span style=&quot;font-family: &amp;#34;jetbrains mono&amp;#34; , monospace ; color: rgb(226 , 165 , 238)&quot;&gt;Dom_User &lt;/span&gt;&lt;span style=&quot;font-family: &amp;#34;jetbrains mono&amp;#34; , monospace ; color: rgb(45 , 185 , 255)&quot;&gt;user&lt;/span&gt;&lt;span style=&quot;font-family: &amp;#34;jetbrains mono&amp;#34; , monospace ; color: rgb(152 , 118 , 170) ; font-style: italic&quot;&gt;):void&lt;/span&gt;&lt;/p&gt;&lt;p style=&quot;margin: 0px 0px 0px 4px&quot;&gt;&lt;span style=&quot;font-family: &amp;#34;jetbrains mono&amp;#34; , monospace ; color: rgb(255 , 198 , 109)&quot;&gt;+ userLogin&lt;/span&gt;&lt;span style=&quot;font-family: &amp;#34;jetbrains mono&amp;#34; , monospace ; color: rgb(152 , 118 , 170) ; font-style: italic&quot;&gt;(&lt;/span&gt;&lt;span style=&quot;font-family: &amp;#34;jetbrains mono&amp;#34; , monospace ; color: rgb(226 , 165 , 238)&quot;&gt;Dom_User &lt;/span&gt;&lt;span style=&quot;font-family: &amp;#34;jetbrains mono&amp;#34; , monospace ; color: rgb(45 , 185 , 255)&quot;&gt;temp_User&lt;/span&gt;&lt;span style=&quot;font-family: &amp;#34;jetbrains mono&amp;#34; , monospace ; color: rgb(152 , 118 , 170) ; font-style: italic&quot;&gt;):&lt;/span&gt;&lt;span style=&quot;background-color: rgb(43 , 43 , 43) ; color: rgb(159 , 199 , 236) ; font-family: &amp;#34;jetbrains mono&amp;#34; , monospace&quot;&gt;Dom_User&lt;/span&gt;&lt;/p&gt;" style="verticalAlign=top;align=left;overflow=fill;fontSize=12;fontFamily=Helvetica;html=1;" vertex="1" parent="Jv-4PZznbBfktTdIpypk-1"><mxGeometry x="473" y="-177" width="316" height="100" as="geometry"/></mxCell><mxCell id="zUN8kYiZSQsJAoj6mRyY-2" value="&lt;p style=&quot;margin: 4px 0px 0px ; text-align: center&quot;&gt;&lt;b&gt;Func_EventList&lt;/b&gt;&lt;/p&gt;&lt;hr size=&quot;1&quot;&gt;&lt;p style=&quot;margin: 0px 0px 0px 4px&quot;&gt;&lt;br&gt;&lt;/p&gt;&lt;hr size=&quot;1&quot;&gt;&lt;p style=&quot;margin: 0px 0px 0px 4px&quot;&gt;+&lt;font color=&quot;#ffc66d&quot; face=&quot;jetbrains mono, monospace&quot;&gt;&amp;nbsp;&lt;/font&gt;&lt;span style=&quot;font-family: &amp;#34;jetbrains mono&amp;#34; , monospace ; color: rgb(255 , 198 , 109)&quot;&gt;getEventList&lt;/span&gt;&lt;span style=&quot;font-family: &amp;#34;jetbrains mono&amp;#34; , monospace ; color: rgb(152 , 118 , 170) ; font-style: italic&quot;&gt;():&lt;/span&gt;&lt;span style=&quot;font-family: &amp;#34;jetbrains mono&amp;#34; , monospace ; color: rgb(226 , 165 , 238)&quot;&gt;ArrayList&lt;/span&gt;&lt;span style=&quot;font-family: &amp;#34;jetbrains mono&amp;#34; , monospace ; color: rgb(152 , 118 , 170) ; font-style: italic&quot;&gt;&amp;lt;&lt;/span&gt;&lt;span style=&quot;font-family: &amp;#34;jetbrains mono&amp;#34; , monospace ; color: rgb(226 , 165 , 238)&quot;&gt;Dom_EventCard&lt;/span&gt;&lt;span style=&quot;font-family: &amp;#34;jetbrains mono&amp;#34; , monospace ; color: rgb(152 , 118 , 170) ; font-style: italic&quot;&gt;&amp;gt;&lt;/span&gt;&lt;/p&gt;" style="verticalAlign=top;align=left;overflow=fill;fontSize=12;fontFamily=Helvetica;html=1;" vertex="1" parent="Jv-4PZznbBfktTdIpypk-1"><mxGeometry x="521" y="50" width="316" height="89" as="geometry"/></mxCell><mxCell id="zUN8kYiZSQsJAoj6mRyY-4" value="&lt;p style=&quot;margin: 0px ; margin-top: 4px ; text-align: center&quot;&gt;&lt;i&gt;&amp;lt;&amp;lt;Interface&amp;gt;&amp;gt;&lt;/i&gt;&lt;br&gt;&lt;/p&gt;&lt;pre style=&quot;text-align: center ; background-color: rgb(43 , 43 , 43) ; color: rgb(159 , 199 , 236) ; font-family: &amp;#34;jetbrains mono&amp;#34; , monospace&quot;&gt;&lt;span style=&quot;color: #2db9ff&quot;&gt;IF_Func&lt;/span&gt;&lt;span style=&quot;color: #9876aa ; font-style: italic&quot;&gt;&amp;lt;&lt;/span&gt;&lt;span style=&quot;color: #507874&quot;&gt;T&lt;/span&gt;&lt;span style=&quot;color: #9876aa ; font-style: italic&quot;&gt;&amp;gt;&lt;/span&gt;&lt;/pre&gt;&lt;hr size=&quot;1&quot;&gt;&lt;p style=&quot;margin: 0px ; margin-left: 4px&quot;&gt;&lt;br&gt;&lt;/p&gt;&lt;hr size=&quot;1&quot;&gt;&lt;p style=&quot;margin: 0px ; margin-left: 4px&quot;&gt;+&amp;nbsp;&lt;span style=&quot;font-family: &amp;#34;jetbrains mono&amp;#34; , monospace ; color: rgb(255 , 198 , 109)&quot;&gt;add&lt;/span&gt;&lt;span style=&quot;font-family: &amp;#34;jetbrains mono&amp;#34; , monospace ; color: rgb(152 , 118 , 170) ; font-style: italic&quot;&gt;(&lt;/span&gt;&lt;span style=&quot;font-family: &amp;#34;jetbrains mono&amp;#34; , monospace ; color: rgb(80 , 120 , 116)&quot;&gt;T &lt;/span&gt;&lt;span style=&quot;font-family: &amp;#34;jetbrains mono&amp;#34; , monospace ; color: rgb(45 , 185 , 255)&quot;&gt;t&lt;/span&gt;&lt;span style=&quot;font-family: &amp;#34;jetbrains mono&amp;#34; , monospace ; color: rgb(152 , 118 , 170) ; font-style: italic&quot;&gt;):void&lt;/span&gt;&lt;/p&gt;&lt;p style=&quot;margin: 0px ; margin-left: 4px&quot;&gt;+&amp;nbsp;&lt;span style=&quot;font-family: &amp;#34;jetbrains mono&amp;#34; , monospace ; color: rgb(255 , 198 , 109)&quot;&gt;modify&lt;/span&gt;&lt;span style=&quot;font-family: &amp;#34;jetbrains mono&amp;#34; , monospace ; color: rgb(152 , 118 , 170) ; font-style: italic&quot;&gt;(&lt;/span&gt;&lt;span style=&quot;font-family: &amp;#34;jetbrains mono&amp;#34; , monospace ; color: rgb(80 , 120 , 116)&quot;&gt;T &lt;/span&gt;&lt;span style=&quot;font-family: &amp;#34;jetbrains mono&amp;#34; , monospace ; color: rgb(45 , 185 , 255)&quot;&gt;t&lt;/span&gt;&lt;span style=&quot;font-family: &amp;#34;jetbrains mono&amp;#34; , monospace ; color: rgb(152 , 118 , 170) ; font-style: italic&quot;&gt;): void&lt;/span&gt;&lt;/p&gt;&lt;p style=&quot;margin: 0px ; margin-left: 4px&quot;&gt;+&amp;nbsp;&lt;span style=&quot;font-family: &amp;#34;jetbrains mono&amp;#34; , monospace ; color: rgb(255 , 198 , 109)&quot;&gt;delete&lt;/span&gt;&lt;span style=&quot;font-family: &amp;#34;jetbrains mono&amp;#34; , monospace ; color: rgb(152 , 118 , 170) ; font-style: italic&quot;&gt;(&lt;/span&gt;&lt;span style=&quot;font-family: &amp;#34;jetbrains mono&amp;#34; , monospace ; color: rgb(80 , 120 , 116)&quot;&gt;T &lt;/span&gt;&lt;span style=&quot;font-family: &amp;#34;jetbrains mono&amp;#34; , monospace ; color: rgb(45 , 185 , 255)&quot;&gt;t&lt;/span&gt;&lt;span style=&quot;font-family: &amp;#34;jetbrains mono&amp;#34; , monospace ; color: rgb(152 , 118 , 170) ; font-style: italic&quot;&gt;):void&lt;/span&gt;&lt;/p&gt;&lt;p style=&quot;margin: 0px ; margin-left: 4px&quot;&gt;+&amp;nbsp;&lt;span style=&quot;font-family: &amp;#34;jetbrains mono&amp;#34; , monospace ; color: rgb(255 , 198 , 109)&quot;&gt;getInstance&lt;/span&gt;&lt;span style=&quot;font-family: &amp;#34;jetbrains mono&amp;#34; , monospace ; color: rgb(152 , 118 , 170) ; font-style: italic&quot;&gt;(&lt;/span&gt;&lt;span style=&quot;font-family: &amp;#34;jetbrains mono&amp;#34; , monospace ; color: rgb(80 , 120 , 116)&quot;&gt;T &lt;/span&gt;&lt;span style=&quot;font-family: &amp;#34;jetbrains mono&amp;#34; , monospace ; color: rgb(45 , 185 , 255)&quot;&gt;t&lt;/span&gt;&lt;span style=&quot;font-family: &amp;#34;jetbrains mono&amp;#34; , monospace ; color: rgb(152 , 118 , 170) ; font-style: italic&quot;&gt;):T&lt;/span&gt;&lt;/p&gt;&lt;p style=&quot;margin: 0px ; margin-left: 4px&quot;&gt;+&amp;nbsp;&lt;span style=&quot;font-family: &amp;#34;jetbrains mono&amp;#34; , monospace ; color: rgb(255 , 198 , 109)&quot;&gt;getAll&lt;/span&gt;&lt;span style=&quot;font-family: &amp;#34;jetbrains mono&amp;#34; , monospace ; color: rgb(152 , 118 , 170) ; font-style: italic&quot;&gt;():&lt;/span&gt;&lt;span style=&quot;background-color: rgb(43 , 43 , 43) ; color: rgb(159 , 199 , 236) ; font-family: &amp;#34;jetbrains mono&amp;#34; , monospace&quot;&gt;ArrayList&amp;lt;T&amp;gt;&lt;/span&gt;&lt;/p&gt;" style="verticalAlign=top;align=left;overflow=fill;fontSize=12;fontFamily=Helvetica;html=1;" vertex="1" parent="Jv-4PZznbBfktTdIpypk-1"><mxGeometry x="1217" y="-358" width="190" height="173" as="geometry"/></mxCell><mxCell id="zUN8kYiZSQsJAoj6mRyY-5" value="" style="endArrow=block;dashed=1;endFill=0;endSize=12;html=1;" edge="1" parent="Jv-4PZznbBfktTdIpypk-1" source="zUN8kYiZSQsJAoj6mRyY-2" target="zUN8kYiZSQsJAoj6mRyY-4"><mxGeometry width="160" relative="1" as="geometry"><mxPoint x="814" y="-64" as="sourcePoint"/><mxPoint x="832" y="-69" as="targetPoint"/></mxGeometry></mxCell><mxCell id="zUN8kYiZSQsJAoj6mRyY-6" value="&lt;p style=&quot;margin: 4px 0px 0px ; text-align: center&quot;&gt;&lt;b&gt;Func_EventCard&lt;/b&gt;&lt;/p&gt;&lt;hr size=&quot;1&quot;&gt;&lt;p style=&quot;margin: 0px 0px 0px 4px&quot;&gt;-&amp;nbsp;&lt;span style=&quot;font-family: &amp;#34;jetbrains mono&amp;#34; , monospace ; color: rgb(226 , 165 , 238)&quot;&gt;Impl_EventCardDao &lt;/span&gt;&lt;span style=&quot;font-family: &amp;#34;jetbrains mono&amp;#34; , monospace ; color: rgb(152 , 118 , 170)&quot;&gt;impl_eventCardDao&lt;/span&gt;&lt;/p&gt;&lt;hr size=&quot;1&quot;&gt;&lt;p style=&quot;margin: 0px 0px 0px 4px&quot;&gt;&lt;br&gt;&lt;/p&gt;" style="verticalAlign=top;align=left;overflow=fill;fontSize=12;fontFamily=Helvetica;html=1;" vertex="1" parent="Jv-4PZznbBfktTdIpypk-1"><mxGeometry x="875" y="67" width="316" height="70" as="geometry"/></mxCell><mxCell id="zUN8kYiZSQsJAoj6mRyY-7" value="" style="endArrow=block;dashed=1;endFill=0;endSize=12;html=1;" edge="1" parent="Jv-4PZznbBfktTdIpypk-1" source="zUN8kYiZSQsJAoj6mRyY-6" target="zUN8kYiZSQsJAoj6mRyY-4"><mxGeometry width="160" relative="1" as="geometry"><mxPoint x="760.6873614190688" y="79" as="sourcePoint"/><mxPoint x="1036" y="-102" as="targetPoint"/></mxGeometry></mxCell><mxCell id="zUN8kYiZSQsJAoj6mRyY-8" value="&lt;p style=&quot;margin: 4px 0px 0px ; text-align: center&quot;&gt;&lt;b&gt;Func_Event&lt;/b&gt;&lt;/p&gt;&lt;hr size=&quot;1&quot;&gt;&lt;p style=&quot;margin: 0px 0px 0px 4px&quot;&gt;-&amp;nbsp;&lt;span style=&quot;font-family: &amp;#34;jetbrains mono&amp;#34; , monospace ; color: rgb(226 , 165 , 238)&quot;&gt;Impl_EventDao &lt;/span&gt;&lt;span style=&quot;font-family: &amp;#34;jetbrains mono&amp;#34; , monospace ; color: rgb(152 , 118 , 170)&quot;&gt;impl_eventDao&lt;/span&gt;&lt;/p&gt;&lt;hr size=&quot;1&quot;&gt;&lt;p style=&quot;margin: 0px 0px 0px 4px&quot;&gt;&lt;br&gt;&lt;/p&gt;" style="verticalAlign=top;align=left;overflow=fill;fontSize=12;fontFamily=Helvetica;html=1;" vertex="1" parent="Jv-4PZznbBfktTdIpypk-1"><mxGeometry x="1266" y="67" width="316" height="70" as="geometry"/></mxCell><mxCell id="zUN8kYiZSQsJAoj6mRyY-9" value="" style="endArrow=block;dashed=1;endFill=0;endSize=12;html=1;" edge="1" parent="Jv-4PZznbBfktTdIpypk-1" source="zUN8kYiZSQsJAoj6mRyY-8" target="zUN8kYiZSQsJAoj6mRyY-4"><mxGeometry width="160" relative="1" as="geometry"><mxPoint x="965.5492102065614" y="188" as="sourcePoint"/><mxPoint x="1019.8140947752127" y="-102" as="targetPoint"/></mxGeometry></mxCell><mxCell id="zUN8kYiZSQsJAoj6mRyY-11" value="&lt;p style=&quot;margin: 4px 0px 0px ; text-align: center&quot;&gt;&lt;b&gt;Func_Note&lt;/b&gt;&lt;/p&gt;&lt;hr size=&quot;1&quot;&gt;&lt;p style=&quot;margin: 0px 0px 0px 4px&quot;&gt;-&amp;nbsp;&lt;span style=&quot;font-family: &amp;#34;jetbrains mono&amp;#34; , monospace ; color: rgb(226 , 165 , 238)&quot;&gt;Impl_NoteDao &lt;/span&gt;&lt;span style=&quot;font-family: &amp;#34;jetbrains mono&amp;#34; , monospace ; color: rgb(152 , 118 , 170)&quot;&gt;impl_noteDao&lt;/span&gt;&lt;/p&gt;&lt;hr size=&quot;1&quot;&gt;&lt;p style=&quot;margin: 0px 0px 0px 4px&quot;&gt;&lt;br&gt;&lt;/p&gt;" style="verticalAlign=top;align=left;overflow=fill;fontSize=12;fontFamily=Helvetica;html=1;" vertex="1" parent="Jv-4PZznbBfktTdIpypk-1"><mxGeometry x="1657" y="67" width="316" height="70" as="geometry"/></mxCell><mxCell id="zUN8kYiZSQsJAoj6mRyY-12" value="" style="endArrow=block;dashed=1;endFill=0;endSize=12;html=1;exitX=0.5;exitY=0;exitDx=0;exitDy=0;" edge="1" parent="Jv-4PZznbBfktTdIpypk-1" source="zUN8kYiZSQsJAoj6mRyY-11" target="zUN8kYiZSQsJAoj6mRyY-4"><mxGeometry width="160" relative="1" as="geometry"><mxPoint x="1191.432387312187" y="76" as="sourcePoint"/><mxPoint x="1086.8313856427378" y="-102" as="targetPoint"/></mxGeometry></mxCell><mxCell id="zUN8kYiZSQsJAoj6mRyY-13" value="&lt;p style=&quot;margin: 4px 0px 0px ; text-align: center&quot;&gt;&lt;b&gt;Func_Comment&lt;/b&gt;&lt;/p&gt;&lt;hr size=&quot;1&quot;&gt;&lt;p style=&quot;margin: 0px 0px 0px 4px&quot;&gt;-&amp;nbsp;&lt;span style=&quot;font-family: &amp;#34;jetbrains mono&amp;#34; , monospace ; color: rgb(226 , 165 , 238)&quot;&gt;Impl_CommentDao &lt;/span&gt;&lt;span style=&quot;font-family: &amp;#34;jetbrains mono&amp;#34; , monospace ; color: rgb(152 , 118 , 170)&quot;&gt;impl_commentDao&lt;/span&gt;&lt;/p&gt;&lt;hr size=&quot;1&quot;&gt;&lt;p style=&quot;margin: 0px 0px 0px 4px&quot;&gt;&lt;br&gt;&lt;/p&gt;" style="verticalAlign=top;align=left;overflow=fill;fontSize=12;fontFamily=Helvetica;html=1;" vertex="1" parent="Jv-4PZznbBfktTdIpypk-1"><mxGeometry x="2076" y="67" width="316" height="70" as="geometry"/></mxCell><mxCell id="zUN8kYiZSQsJAoj6mRyY-14" value="" style="endArrow=block;dashed=1;endFill=0;endSize=12;html=1;" edge="1" parent="Jv-4PZznbBfktTdIpypk-1" source="zUN8kYiZSQsJAoj6mRyY-13" target="zUN8kYiZSQsJAoj6mRyY-4"><mxGeometry width="160" relative="1" as="geometry"><mxPoint x="1337" y="-81" as="sourcePoint"/><mxPoint x="1131" y="-154.57142857142856" as="targetPoint"/></mxGeometry></mxCell></root></mxGraphModel></diagram><diagram id="Oz3FfOfUjI-ze80RVWFu" name="DOMAIN"><mxGraphModel dx="782" dy="1458" grid="0" gridSize="10" guides="1" tooltips="1" connect="1" arrows="1" fold="1" page="0" pageScale="1" pageWidth="850" pageHeight="1100" math="0" shadow="0"><root><mxCell id="NMoLp6o3r-10hpV70eCS-0"/><mxCell id="NMoLp6o3r-10hpV70eCS-1" parent="NMoLp6o3r-10hpV70eCS-0"/><mxCell id="AEn_4LpByQ9WXGF_B2Wb-0" value="&lt;p style=&quot;margin: 4px 0px 0px ; text-align: center&quot;&gt;&lt;b&gt;Dom_User&lt;/b&gt;&lt;/p&gt;&lt;hr size=&quot;1&quot;&gt;&lt;p style=&quot;margin: 0px 0px 0px 4px&quot;&gt;-&amp;nbsp;&lt;span style=&quot;font-family: &amp;#34;jetbrains mono&amp;#34; , monospace ; color: rgb(204 , 120 , 50)&quot;&gt;int &lt;/span&gt;&lt;span style=&quot;font-family: &amp;#34;jetbrains mono&amp;#34; , monospace ; color: rgb(152 , 118 , 170)&quot;&gt;userID&lt;/span&gt;&lt;/p&gt;&lt;p style=&quot;margin: 0px 0px 0px 4px&quot;&gt;-&amp;nbsp;&lt;span style=&quot;font-family: &amp;#34;jetbrains mono&amp;#34; , monospace ; color: rgb(226 , 165 , 238)&quot;&gt;String &lt;/span&gt;&lt;span style=&quot;font-family: &amp;#34;jetbrains mono&amp;#34; , monospace ; color: rgb(152 , 118 , 170)&quot;&gt;userName&lt;/span&gt;&lt;/p&gt;&lt;p style=&quot;margin: 0px 0px 0px 4px&quot;&gt;-&amp;nbsp;&lt;span style=&quot;font-family: &amp;#34;jetbrains mono&amp;#34; , monospace ; color: rgb(226 , 165 , 238)&quot;&gt;String &lt;/span&gt;&lt;span style=&quot;font-family: &amp;#34;jetbrains mono&amp;#34; , monospace ; color: rgb(152 , 118 , 170)&quot;&gt;passWord&lt;/span&gt;&lt;/p&gt;&lt;p style=&quot;margin: 0px 0px 0px 4px&quot;&gt;-&amp;nbsp;&lt;span style=&quot;font-family: &amp;#34;jetbrains mono&amp;#34; , monospace ; color: rgb(226 , 165 , 238)&quot;&gt;Boolean &lt;/span&gt;&lt;span style=&quot;font-family: &amp;#34;jetbrains mono&amp;#34; , monospace ; color: rgb(152 , 118 , 170)&quot;&gt;isAuthor&lt;/span&gt;&lt;/p&gt;&lt;hr size=&quot;1&quot;&gt;&lt;p style=&quot;margin: 0px 0px 0px 4px&quot;&gt;&lt;br&gt;&lt;/p&gt;" style="verticalAlign=top;align=left;overflow=fill;fontSize=12;fontFamily=Helvetica;html=1;" vertex="1" parent="NMoLp6o3r-10hpV70eCS-1"><mxGeometry x="132" y="-99" width="316" height="101" as="geometry"/></mxCell><mxCell id="AEn_4LpByQ9WXGF_B2Wb-1" value="&lt;p style=&quot;margin: 4px 0px 0px ; text-align: center&quot;&gt;&lt;b&gt;Dom_LoginUser&lt;/b&gt;&lt;/p&gt;&lt;hr size=&quot;1&quot;&gt;&lt;p style=&quot;margin: 0px 0px 0px 4px&quot;&gt;-&amp;nbsp;&lt;span style=&quot;font-family: &amp;#34;jetbrains mono&amp;#34; , monospace ; color: rgb(226 , 165 , 238)&quot;&gt;Dom_User &lt;/span&gt;&lt;span style=&quot;font-family: &amp;#34;jetbrains mono&amp;#34; , monospace ; color: rgb(226 , 165 , 238) ; font-style: italic&quot;&gt;loginUser&lt;/span&gt;&lt;br&gt;&lt;/p&gt;&lt;hr size=&quot;1&quot;&gt;&lt;p style=&quot;margin: 0px 0px 0px 4px&quot;&gt;+&amp;nbsp;&lt;span style=&quot;font-family: &amp;#34;jetbrains mono&amp;#34; , monospace ; color: rgb(255 , 198 , 109)&quot;&gt;getInstance&lt;/span&gt;&lt;span style=&quot;font-family: &amp;#34;jetbrains mono&amp;#34; , monospace ; color: rgb(152 , 118 , 170) ; font-style: italic&quot;&gt;():&lt;/span&gt;&lt;span style=&quot;color: rgb(226 , 165 , 238) ; background-color: rgb(43 , 43 , 43) ; font-family: &amp;#34;jetbrains mono&amp;#34; , monospace&quot;&gt;Dom_User&lt;/span&gt;&lt;/p&gt;&lt;p style=&quot;margin: 0px 0px 0px 4px&quot;&gt;&lt;span style=&quot;background-color: rgb(43 , 43 , 43) ; font-family: &amp;#34;jetbrains mono&amp;#34; , monospace&quot;&gt;&lt;font color=&quot;#ffffff&quot;&gt;+ s&lt;/font&gt;&lt;/span&gt;&lt;span style=&quot;font-family: &amp;#34;jetbrains mono&amp;#34; , monospace ; color: rgb(255 , 198 , 109)&quot;&gt;etInstance&lt;/span&gt;&lt;span style=&quot;font-family: &amp;#34;jetbrains mono&amp;#34; , monospace ; color: rgb(152 , 118 , 170) ; font-style: italic&quot;&gt;(&lt;/span&gt;&lt;span style=&quot;font-family: &amp;#34;jetbrains mono&amp;#34; , monospace ; color: rgb(226 , 165 , 238)&quot;&gt;Dom_User &lt;/span&gt;&lt;span style=&quot;font-family: &amp;#34;jetbrains mono&amp;#34; , monospace ; color: rgb(45 , 185 , 255)&quot;&gt;dom_user&lt;/span&gt;&lt;span style=&quot;font-family: &amp;#34;jetbrains mono&amp;#34; , monospace ; color: rgb(152 , 118 , 170) ; font-style: italic&quot;&gt;):&lt;/span&gt;&lt;span style=&quot;color: rgb(204 , 120 , 50) ; background-color: rgb(43 , 43 , 43) ; font-family: &amp;#34;jetbrains mono&amp;#34; , monospace&quot;&gt;void&lt;/span&gt;&lt;/p&gt;" style="verticalAlign=top;align=left;overflow=fill;fontSize=12;fontFamily=Helvetica;html=1;" vertex="1" parent="NMoLp6o3r-10hpV70eCS-1"><mxGeometry x="132" y="237" width="316" height="101" as="geometry"/></mxCell><mxCell id="AEn_4LpByQ9WXGF_B2Wb-2" value="Extends" style="endArrow=block;endSize=16;endFill=0;html=1;" edge="1" parent="NMoLp6o3r-10hpV70eCS-1" source="AEn_4LpByQ9WXGF_B2Wb-1" target="AEn_4LpByQ9WXGF_B2Wb-0"><mxGeometry width="160" relative="1" as="geometry"><mxPoint x="124" y="381" as="sourcePoint"/><mxPoint x="284" y="381" as="targetPoint"/></mxGeometry></mxCell><mxCell id="AEn_4LpByQ9WXGF_B2Wb-3" value="&lt;p style=&quot;margin: 4px 0px 0px ; text-align: center&quot;&gt;&lt;b&gt;Dom_EventList&lt;/b&gt;&lt;/p&gt;&lt;hr size=&quot;1&quot;&gt;&lt;p style=&quot;margin: 0px 0px 0px 4px&quot;&gt;-&amp;nbsp;&lt;span style=&quot;font-family: &amp;#34;jetbrains mono&amp;#34; , monospace ; color: rgb(226 , 165 , 238)&quot;&gt;ArrayList&lt;/span&gt;&lt;span style=&quot;font-family: &amp;#34;jetbrains mono&amp;#34; , monospace ; color: rgb(152 , 118 , 170) ; font-style: italic&quot;&gt;&amp;lt;&lt;/span&gt;&lt;span style=&quot;font-family: &amp;#34;jetbrains mono&amp;#34; , monospace ; color: rgb(226 , 165 , 238)&quot;&gt;Dom_EventCard&lt;/span&gt;&lt;span style=&quot;font-family: &amp;#34;jetbrains mono&amp;#34; , monospace ; color: rgb(152 , 118 , 170) ; font-style: italic&quot;&gt;&amp;gt; &lt;/span&gt;&lt;span style=&quot;font-family: &amp;#34;jetbrains mono&amp;#34; , monospace ; color: rgb(226 , 165 , 238) ; font-style: italic&quot;&gt;sto_eventList&lt;/span&gt;&lt;br&gt;&lt;/p&gt;&lt;hr size=&quot;1&quot;&gt;&lt;p style=&quot;margin: 0px 0px 0px 4px&quot;&gt;+&amp;nbsp;&lt;span style=&quot;font-family: &amp;#34;jetbrains mono&amp;#34; , monospace ; color: rgb(255 , 198 , 109)&quot;&gt;getInstance&lt;/span&gt;&lt;span style=&quot;font-family: &amp;#34;jetbrains mono&amp;#34; , monospace ; color: rgb(152 , 118 , 170) ; font-style: italic&quot;&gt;():&lt;/span&gt;&lt;span style=&quot;font-family: &amp;#34;jetbrains mono&amp;#34; , monospace ; color: rgb(226 , 165 , 238)&quot;&gt;ArrayList&lt;/span&gt;&lt;span style=&quot;font-family: &amp;#34;jetbrains mono&amp;#34; , monospace ; color: rgb(152 , 118 , 170) ; font-style: italic&quot;&gt;&amp;lt;&lt;/span&gt;&lt;span style=&quot;font-family: &amp;#34;jetbrains mono&amp;#34; , monospace ; color: rgb(226 , 165 , 238)&quot;&gt;Dom_EventCard&lt;/span&gt;&lt;span style=&quot;font-family: &amp;#34;jetbrains mono&amp;#34; , monospace ; color: rgb(152 , 118 , 170) ; font-style: italic&quot;&gt;&amp;gt;&lt;/span&gt;&lt;/p&gt;" style="verticalAlign=top;align=left;overflow=fill;fontSize=12;fontFamily=Helvetica;html=1;" vertex="1" parent="NMoLp6o3r-10hpV70eCS-1"><mxGeometry x="589" y="-500" width="316" height="85" as="geometry"/></mxCell><mxCell id="AEn_4LpByQ9WXGF_B2Wb-4" value="&lt;p style=&quot;margin: 4px 0px 0px ; text-align: center&quot;&gt;&lt;b&gt;Dom_EventCard&lt;/b&gt;&lt;/p&gt;&lt;hr size=&quot;1&quot;&gt;&lt;p style=&quot;margin: 0px 0px 0px 4px&quot;&gt;-&amp;nbsp;&lt;span style=&quot;font-family: &amp;#34;jetbrains mono&amp;#34; , monospace ; color: rgb(204 , 120 , 50)&quot;&gt;int &lt;/span&gt;&lt;span style=&quot;font-family: &amp;#34;jetbrains mono&amp;#34; , monospace ; color: rgb(152 , 118 , 170)&quot;&gt;eventCardID&lt;/span&gt;&lt;/p&gt;&lt;p style=&quot;margin: 0px 0px 0px 4px&quot;&gt;-&amp;nbsp;&lt;span style=&quot;font-family: &amp;#34;jetbrains mono&amp;#34; , monospace ; color: rgb(226 , 165 , 238)&quot;&gt;String &lt;/span&gt;&lt;span style=&quot;font-family: &amp;#34;jetbrains mono&amp;#34; , monospace ; color: rgb(152 , 118 , 170)&quot;&gt;eventName&lt;/span&gt;&lt;/p&gt;&lt;p style=&quot;margin: 0px 0px 0px 4px&quot;&gt;-&amp;nbsp;&lt;span style=&quot;font-family: &amp;#34;jetbrains mono&amp;#34; , monospace ; color: rgb(226 , 165 , 238)&quot;&gt;String &lt;/span&gt;&lt;span style=&quot;font-family: &amp;#34;jetbrains mono&amp;#34; , monospace ; color: rgb(152 , 118 , 170)&quot;&gt;authorName&lt;/span&gt;&lt;/p&gt;&lt;p style=&quot;margin: 0px 0px 0px 4px&quot;&gt;-&amp;nbsp;&lt;span style=&quot;font-family: &amp;#34;jetbrains mono&amp;#34; , monospace ; color: rgb(204 , 120 , 50)&quot;&gt;double &lt;/span&gt;&lt;span style=&quot;font-family: &amp;#34;jetbrains mono&amp;#34; , monospace ; color: rgb(152 , 118 , 170)&quot;&gt;localX&lt;/span&gt;&lt;/p&gt;&lt;p style=&quot;margin: 0px 0px 0px 4px&quot;&gt;-&amp;nbsp;&lt;span style=&quot;font-family: &amp;#34;jetbrains mono&amp;#34; , monospace ; color: rgb(204 , 120 , 50)&quot;&gt;double &lt;/span&gt;&lt;span style=&quot;font-family: &amp;#34;jetbrains mono&amp;#34; , monospace ; color: rgb(152 , 118 , 170)&quot;&gt;localY&lt;/span&gt;&lt;/p&gt;&lt;p style=&quot;margin: 0px 0px 0px 4px&quot;&gt;-&amp;nbsp;&lt;span style=&quot;font-family: &amp;#34;jetbrains mono&amp;#34; , monospace ; color: rgb(226 , 165 , 238)&quot;&gt;LocalDate &lt;/span&gt;&lt;span style=&quot;font-family: &amp;#34;jetbrains mono&amp;#34; , monospace ; color: rgb(152 , 118 , 170)&quot;&gt;localDate&lt;/span&gt;&lt;/p&gt;&lt;hr size=&quot;1&quot;&gt;&lt;p style=&quot;margin: 0px 0px 0px 4px&quot;&gt;&lt;br&gt;&lt;/p&gt;" style="verticalAlign=top;align=left;overflow=fill;fontSize=12;fontFamily=Helvetica;html=1;" vertex="1" parent="NMoLp6o3r-10hpV70eCS-1"><mxGeometry x="589" y="-290" width="316" height="131" as="geometry"/></mxCell><mxCell id="AEn_4LpByQ9WXGF_B2Wb-5" value="1" style="endArrow=open;html=1;endSize=12;startArrow=diamondThin;startSize=14;startFill=0;edgeStyle=orthogonalEdgeStyle;align=left;verticalAlign=bottom;" edge="1" parent="NMoLp6o3r-10hpV70eCS-1" source="AEn_4LpByQ9WXGF_B2Wb-4" target="AEn_4LpByQ9WXGF_B2Wb-3"><mxGeometry x="-1" y="3" relative="1" as="geometry"><mxPoint x="645" y="58" as="sourcePoint"/><mxPoint x="805" y="58" as="targetPoint"/></mxGeometry></mxCell><mxCell id="AEn_4LpByQ9WXGF_B2Wb-6" value="1" style="endArrow=open;html=1;endSize=12;startArrow=diamondThin;startSize=14;startFill=0;edgeStyle=orthogonalEdgeStyle;align=left;verticalAlign=bottom;" edge="1" parent="NMoLp6o3r-10hpV70eCS-1" source="AEn_4LpByQ9WXGF_B2Wb-0" target="AEn_4LpByQ9WXGF_B2Wb-4"><mxGeometry x="-1" y="3" relative="1" as="geometry"><mxPoint x="434" y="-71" as="sourcePoint"/><mxPoint x="686" y="-112" as="targetPoint"/><Array as="points"><mxPoint x="434" y="-34"/><mxPoint x="747" y="-34"/></Array></mxGeometry></mxCell><mxCell id="AEn_4LpByQ9WXGF_B2Wb-7" value="&lt;p style=&quot;margin: 4px 0px 0px ; text-align: center&quot;&gt;&lt;b&gt;Dom_Event&lt;/b&gt;&lt;/p&gt;&lt;hr size=&quot;1&quot;&gt;&lt;p style=&quot;margin: 0px 0px 0px 4px&quot;&gt;-&amp;nbsp;&lt;span style=&quot;font-family: &amp;#34;jetbrains mono&amp;#34; , monospace ; color: rgb(204 , 120 , 50)&quot;&gt;int &lt;/span&gt;&lt;span style=&quot;font-family: &amp;#34;jetbrains mono&amp;#34; , monospace ; color: rgb(152 , 118 , 170)&quot;&gt;eventID&lt;/span&gt;&lt;/p&gt;&lt;p style=&quot;margin: 0px 0px 0px 4px&quot;&gt;-&amp;nbsp;&lt;span style=&quot;font-family: &amp;#34;jetbrains mono&amp;#34; , monospace ; color: rgb(226 , 165 , 238)&quot;&gt;String &lt;/span&gt;&lt;span style=&quot;font-family: &amp;#34;jetbrains mono&amp;#34; , monospace ; color: rgb(152 , 118 , 170)&quot;&gt;eventName&lt;/span&gt;&lt;/p&gt;&lt;p style=&quot;margin: 0px 0px 0px 4px&quot;&gt;-&amp;nbsp;&lt;span style=&quot;font-family: &amp;#34;jetbrains mono&amp;#34; , monospace ; color: rgb(226 , 165 , 238)&quot;&gt;LocalDate &lt;/span&gt;&lt;span style=&quot;font-family: &amp;#34;jetbrains mono&amp;#34; , monospace ; color: rgb(152 , 118 , 170)&quot;&gt;eventDate&lt;/span&gt;&lt;/p&gt;&lt;p style=&quot;margin: 0px 0px 0px 4px&quot;&gt;-&amp;nbsp;&lt;span style=&quot;font-family: &amp;#34;jetbrains mono&amp;#34; , monospace ; color: rgb(204 , 120 , 50)&quot;&gt;int &lt;/span&gt;&lt;span style=&quot;font-family: &amp;#34;jetbrains mono&amp;#34; , monospace ; color: rgb(152 , 118 , 170)&quot;&gt;chapterNo&lt;/span&gt;&lt;/p&gt;&lt;p style=&quot;margin: 0px 0px 0px 4px&quot;&gt;-&amp;nbsp;&lt;span style=&quot;font-family: &amp;#34;jetbrains mono&amp;#34; , monospace ; color: rgb(226 , 165 , 238)&quot;&gt;String &lt;/span&gt;&lt;span style=&quot;font-family: &amp;#34;jetbrains mono&amp;#34; , monospace ; color: rgb(152 , 118 , 170)&quot;&gt;role&lt;/span&gt;&lt;/p&gt;&lt;p style=&quot;margin: 0px 0px 0px 4px&quot;&gt;-&lt;span style=&quot;font-family: &amp;#34;jetbrains mono&amp;#34; , monospace ; color: rgb(226 , 165 , 238)&quot;&gt;String &lt;/span&gt;&lt;span style=&quot;font-family: &amp;#34;jetbrains mono&amp;#34; , monospace ; color: rgb(152 , 118 , 170)&quot;&gt;location&lt;/span&gt;&lt;/p&gt;&lt;p style=&quot;margin: 0px 0px 0px 4px&quot;&gt;-&amp;nbsp;&lt;span style=&quot;font-family: &amp;#34;jetbrains mono&amp;#34; , monospace ; color: rgb(226 , 165 , 238)&quot;&gt;String &lt;/span&gt;&lt;span style=&quot;font-family: &amp;#34;jetbrains mono&amp;#34; , monospace ; color: rgb(152 , 118 , 170)&quot;&gt;quickNote&lt;/span&gt;&lt;/p&gt;&lt;hr size=&quot;1&quot;&gt;&lt;p style=&quot;margin: 0px 0px 0px 4px&quot;&gt;&lt;br&gt;&lt;/p&gt;" style="verticalAlign=top;align=left;overflow=fill;fontSize=12;fontFamily=Helvetica;html=1;" vertex="1" parent="NMoLp6o3r-10hpV70eCS-1"><mxGeometry x="950" y="-178" width="316" height="158" as="geometry"/></mxCell><mxCell id="AEn_4LpByQ9WXGF_B2Wb-8" value="1" style="endArrow=open;html=1;endSize=12;startArrow=diamondThin;startSize=14;startFill=0;edgeStyle=orthogonalEdgeStyle;align=left;verticalAlign=bottom;" edge="1" parent="NMoLp6o3r-10hpV70eCS-1" source="AEn_4LpByQ9WXGF_B2Wb-7" target="AEn_4LpByQ9WXGF_B2Wb-4"><mxGeometry x="-1" y="3" relative="1" as="geometry"><mxPoint x="524" y="75" as="sourcePoint"/><mxPoint x="757" y="-27" as="targetPoint"/><Array as="points"/></mxGeometry></mxCell><mxCell id="AEn_4LpByQ9WXGF_B2Wb-9" value="&lt;p style=&quot;margin: 4px 0px 0px ; text-align: center&quot;&gt;&lt;b&gt;Dom_Note&lt;/b&gt;&lt;/p&gt;&lt;hr size=&quot;1&quot;&gt;&lt;p style=&quot;margin: 0px 0px 0px 4px&quot;&gt;-&amp;nbsp;&lt;span style=&quot;font-family: &amp;#34;jetbrains mono&amp;#34; , monospace ; color: rgb(204 , 120 , 50)&quot;&gt;int &lt;/span&gt;&lt;span style=&quot;font-family: &amp;#34;jetbrains mono&amp;#34; , monospace ; color: rgb(152 , 118 , 170)&quot;&gt;noteID&lt;/span&gt;&lt;/p&gt;&lt;p style=&quot;margin: 0px 0px 0px 4px&quot;&gt;-&amp;nbsp;&lt;span style=&quot;font-family: &amp;#34;jetbrains mono&amp;#34; , monospace ; color: rgb(226 , 165 , 238)&quot;&gt;String &lt;/span&gt;&lt;span style=&quot;font-family: &amp;#34;jetbrains mono&amp;#34; , monospace ; color: rgb(152 , 118 , 170)&quot;&gt;noteText&lt;/span&gt;&lt;/p&gt;&lt;hr size=&quot;1&quot;&gt;&lt;p style=&quot;margin: 0px 0px 0px 4px&quot;&gt;&lt;br&gt;&lt;/p&gt;" style="verticalAlign=top;align=left;overflow=fill;fontSize=12;fontFamily=Helvetica;html=1;" vertex="1" parent="NMoLp6o3r-10hpV70eCS-1"><mxGeometry x="1094" y="41" width="166" height="93" as="geometry"/></mxCell><mxCell id="AEn_4LpByQ9WXGF_B2Wb-10" value="1" style="endArrow=open;html=1;endSize=12;startArrow=diamondThin;startSize=14;startFill=0;edgeStyle=orthogonalEdgeStyle;align=left;verticalAlign=bottom;" edge="1" parent="NMoLp6o3r-10hpV70eCS-1" source="AEn_4LpByQ9WXGF_B2Wb-9" target="AEn_4LpByQ9WXGF_B2Wb-4"><mxGeometry x="-1" y="3" relative="1" as="geometry"><mxPoint x="760" y="175" as="sourcePoint"/><mxPoint x="757" y="-27" as="targetPoint"/><Array as="points"/></mxGeometry></mxCell><mxCell id="AEn_4LpByQ9WXGF_B2Wb-11" value="&lt;p style=&quot;margin: 4px 0px 0px ; text-align: center&quot;&gt;&lt;b&gt;Dom_Comment&lt;/b&gt;&lt;/p&gt;&lt;hr size=&quot;1&quot;&gt;&lt;p style=&quot;margin: 0px 0px 0px 4px&quot;&gt;-&amp;nbsp;&lt;span style=&quot;font-family: &amp;#34;jetbrains mono&amp;#34; , monospace ; color: rgb(204 , 120 , 50)&quot;&gt;int &lt;/span&gt;&lt;span style=&quot;font-family: &amp;#34;jetbrains mono&amp;#34; , monospace ; color: rgb(152 , 118 , 170)&quot;&gt;commentID&lt;/span&gt;&lt;/p&gt;&lt;p style=&quot;margin: 0px 0px 0px 4px&quot;&gt;-&amp;nbsp;&lt;span style=&quot;font-family: &amp;#34;jetbrains mono&amp;#34; , monospace ; color: rgb(226 , 165 , 238)&quot;&gt;String &lt;/span&gt;&lt;span style=&quot;font-family: &amp;#34;jetbrains mono&amp;#34; , monospace ; color: rgb(152 , 118 , 170)&quot;&gt;commentAuthor&lt;/span&gt;&lt;/p&gt;&lt;p style=&quot;margin: 0px 0px 0px 4px&quot;&gt;-&amp;nbsp;&lt;span style=&quot;font-family: &amp;#34;jetbrains mono&amp;#34; , monospace ; color: rgb(226 , 165 , 238)&quot;&gt;LocalDate &lt;/span&gt;&lt;span style=&quot;font-family: &amp;#34;jetbrains mono&amp;#34; , monospace ; color: rgb(152 , 118 , 170)&quot;&gt;localDate&lt;/span&gt;&lt;/p&gt;&lt;p style=&quot;margin: 0px 0px 0px 4px&quot;&gt;-&amp;nbsp;&lt;span style=&quot;font-family: &amp;#34;jetbrains mono&amp;#34; , monospace ; color: rgb(226 , 165 , 238)&quot;&gt;String &lt;/span&gt;&lt;span style=&quot;font-family: &amp;#34;jetbrains mono&amp;#34; , monospace ; color: rgb(152 , 118 , 170)&quot;&gt;commentText&lt;/span&gt;&lt;/p&gt;&lt;hr size=&quot;1&quot;&gt;&lt;p style=&quot;margin: 0px 0px 0px 4px&quot;&gt;&lt;br&gt;&lt;/p&gt;" style="verticalAlign=top;align=left;overflow=fill;fontSize=12;fontFamily=Helvetica;html=1;" vertex="1" parent="NMoLp6o3r-10hpV70eCS-1"><mxGeometry x="960" y="195" width="316" height="114" as="geometry"/></mxCell><mxCell id="AEn_4LpByQ9WXGF_B2Wb-12" value="1" style="endArrow=open;html=1;endSize=12;startArrow=diamondThin;startSize=14;startFill=0;edgeStyle=orthogonalEdgeStyle;align=left;verticalAlign=bottom;" edge="1" parent="NMoLp6o3r-10hpV70eCS-1" source="AEn_4LpByQ9WXGF_B2Wb-11" target="AEn_4LpByQ9WXGF_B2Wb-4"><mxGeometry x="-1" y="3" relative="1" as="geometry"><mxPoint x="927" y="136.5" as="sourcePoint"/><mxPoint x="757" y="-27" as="targetPoint"/><Array as="points"/></mxGeometry></mxCell></root></mxGraphModel></diagram><diagram id="TfEQAvJ4ZE0lxFf0sbTb" name="Database"><mxGraphModel dx="665" dy="1359" grid="0" gridSize="10" guides="1" tooltips="1" connect="1" arrows="1" fold="1" page="0" pageScale="1" pageWidth="850" pageHeight="1100" math="0" shadow="0"><root><mxCell id="H7C24VEy_cqSnfSpe2fy-0"/><mxCell id="H7C24VEy_cqSnfSpe2fy-1" parent="H7C24VEy_cqSnfSpe2fy-0"/><mxCell id="HetmUpukygfrTrHRG9hj-0" value="&lt;p style=&quot;margin: 4px 0px 0px ; text-align: center&quot;&gt;&lt;b&gt;ConnectionUtil&lt;/b&gt;&lt;/p&gt;&lt;hr size=&quot;1&quot;&gt;&lt;p style=&quot;margin: 0px 0px 0px 4px&quot;&gt;&lt;br&gt;&lt;/p&gt;&lt;hr size=&quot;1&quot;&gt;&lt;p style=&quot;margin: 0px 0px 0px 4px&quot;&gt;+&amp;nbsp;&lt;span style=&quot;font-family: &amp;#34;jetbrains mono&amp;#34; , monospace ; color: rgb(255 , 198 , 109)&quot;&gt;getConnection&lt;/span&gt;&lt;span style=&quot;font-family: &amp;#34;jetbrains mono&amp;#34; , monospace ; color: rgb(152 , 118 , 170) ; font-style: italic&quot;&gt;():&lt;/span&gt;&lt;span style=&quot;color: rgb(45 , 185 , 255) ; background-color: rgb(43 , 43 , 43) ; font-family: &amp;#34;jetbrains mono&amp;#34; , monospace&quot;&gt;Connection&lt;/span&gt;&lt;/p&gt;&lt;p style=&quot;margin: 0px 0px 0px 4px&quot;&gt;&lt;span style=&quot;background-color: rgb(43 , 43 , 43) ; font-family: &amp;#34;jetbrains mono&amp;#34; , monospace&quot;&gt;&lt;font color=&quot;#ffffff&quot;&gt;+&amp;nbsp;&lt;/font&gt;&lt;/span&gt;&lt;span style=&quot;font-family: &amp;#34;jetbrains mono&amp;#34; , monospace ; color: rgb(255 , 198 , 109)&quot;&gt;closeConnection&lt;/span&gt;&lt;span style=&quot;font-family: &amp;#34;jetbrains mono&amp;#34; , monospace ; color: rgb(152 , 118 , 170) ; font-style: italic&quot;&gt;(&lt;/span&gt;&lt;span style=&quot;font-family: &amp;#34;jetbrains mono&amp;#34; , monospace ; color: rgb(45 , 185 , 255)&quot;&gt;Connection connection&lt;/span&gt;&lt;span style=&quot;font-family: &amp;#34;jetbrains mono&amp;#34; , monospace ; color: rgb(152 , 118 , 170) ; font-style: italic&quot;&gt;):&lt;/span&gt;&lt;span style=&quot;color: rgb(204 , 120 , 50) ; background-color: rgb(43 , 43 , 43) ; font-family: &amp;#34;jetbrains mono&amp;#34; , monospace&quot;&gt;void&lt;/span&gt;&lt;/p&gt;&lt;p style=&quot;margin: 0px 0px 0px 4px&quot;&gt;&lt;span style=&quot;background-color: rgb(43 , 43 , 43) ; font-family: &amp;#34;jetbrains mono&amp;#34; , monospace&quot;&gt;&lt;font color=&quot;#ffffff&quot;&gt;+&amp;nbsp;&lt;/font&gt;&lt;/span&gt;&lt;span style=&quot;font-family: &amp;#34;jetbrains mono&amp;#34; , monospace ; color: rgb(255 , 198 , 109)&quot;&gt;closeConAndPS&lt;/span&gt;&lt;span style=&quot;font-family: &amp;#34;jetbrains mono&amp;#34; , monospace ; color: rgb(152 , 118 , 170) ; font-style: italic&quot;&gt;(&lt;/span&gt;&lt;span style=&quot;font-family: &amp;#34;jetbrains mono&amp;#34; , monospace ; color: rgb(45 , 185 , 255)&quot;&gt;Connection connection&lt;/span&gt;&lt;span style=&quot;font-family: &amp;#34;jetbrains mono&amp;#34; , monospace ; color: rgb(204 , 120 , 50)&quot;&gt;, &lt;/span&gt;&lt;span style=&quot;font-family: &amp;#34;jetbrains mono&amp;#34; , monospace ; color: rgb(45 , 185 , 255)&quot;&gt;Statement preparedStatement&lt;/span&gt;&lt;span style=&quot;font-family: &amp;#34;jetbrains mono&amp;#34; , monospace ; color: rgb(152 , 118 , 170) ; font-style: italic&quot;&gt;):&lt;/span&gt;&lt;span style=&quot;color: rgb(204 , 120 , 50) ; background-color: rgb(43 , 43 , 43) ; font-family: &amp;#34;jetbrains mono&amp;#34; , monospace&quot;&gt;void&lt;/span&gt;&lt;/p&gt;&lt;p style=&quot;margin: 0px 0px 0px 4px&quot;&gt;&lt;span style=&quot;background-color: rgb(43 , 43 , 43) ; font-family: &amp;#34;jetbrains mono&amp;#34; , monospace&quot;&gt;&lt;font color=&quot;#ffffff&quot;&gt;+&amp;nbsp;&lt;/font&gt;&lt;/span&gt;&lt;span style=&quot;font-family: &amp;#34;jetbrains mono&amp;#34; , monospace ; color: rgb(255 , 198 , 109)&quot;&gt;closeConPSAndRS&lt;/span&gt;&lt;span style=&quot;font-family: &amp;#34;jetbrains mono&amp;#34; , monospace ; color: rgb(152 , 118 , 170) ; font-style: italic&quot;&gt;(&lt;/span&gt;&lt;span style=&quot;font-family: &amp;#34;jetbrains mono&amp;#34; , monospace ; color: rgb(45 , 185 , 255)&quot;&gt;Connection connection&lt;/span&gt;&lt;span style=&quot;font-family: &amp;#34;jetbrains mono&amp;#34; , monospace ; color: rgb(204 , 120 , 50)&quot;&gt;, &lt;/span&gt;&lt;span style=&quot;font-family: &amp;#34;jetbrains mono&amp;#34; , monospace ; color: rgb(45 , 185 , 255)&quot;&gt;Statement preparedStatement&lt;/span&gt;&lt;span style=&quot;font-family: &amp;#34;jetbrains mono&amp;#34; , monospace ; color: rgb(204 , 120 , 50)&quot;&gt;, &lt;/span&gt;&lt;span style=&quot;font-family: &amp;#34;jetbrains mono&amp;#34; , monospace ; color: rgb(45 , 185 , 255)&quot;&gt;ResultSet resultSet&lt;/span&gt;&lt;span style=&quot;font-family: &amp;#34;jetbrains mono&amp;#34; , monospace ; color: rgb(152 , 118 , 170) ; font-style: italic&quot;&gt;):&lt;/span&gt;&lt;span style=&quot;color: rgb(204 , 120 , 50) ; background-color: rgb(43 , 43 , 43) ; font-family: &amp;#34;jetbrains mono&amp;#34; , monospace&quot;&gt;void&lt;/span&gt;&lt;/p&gt;&lt;p style=&quot;margin: 0px 0px 0px 4px&quot;&gt;&lt;span style=&quot;background-color: rgb(43 , 43 , 43) ; font-family: &amp;#34;jetbrains mono&amp;#34; , monospace&quot;&gt;&lt;font color=&quot;#ffffff&quot;&gt;&lt;br&gt;&lt;/font&gt;&lt;/span&gt;&lt;/p&gt;" style="verticalAlign=top;align=left;overflow=fill;fontSize=12;fontFamily=Helvetica;html=1;" vertex="1" parent="H7C24VEy_cqSnfSpe2fy-1"><mxGeometry x="663.5" y="558" width="710" height="139" as="geometry"/></mxCell><mxCell id="HetmUpukygfrTrHRG9hj-1" value="&lt;p style=&quot;margin: 4px 0px 0px ; text-align: center&quot;&gt;&lt;b&gt;CRUD_Util&lt;/b&gt;&lt;/p&gt;&lt;hr size=&quot;1&quot;&gt;&lt;p style=&quot;margin: 0px 0px 0px 4px&quot;&gt;-&amp;nbsp;&lt;span style=&quot;font-family: &amp;#34;jetbrains mono&amp;#34; , monospace ; color: rgb(45 , 185 , 255)&quot;&gt;Connection &lt;/span&gt;&lt;span style=&quot;font-family: &amp;#34;jetbrains mono&amp;#34; , monospace ; color: rgb(226 , 165 , 238) ; font-style: italic&quot;&gt;connection&lt;/span&gt;&lt;br&gt;&lt;/p&gt;&lt;p style=&quot;margin: 0px 0px 0px 4px&quot;&gt;-&amp;nbsp;&lt;span style=&quot;font-family: &amp;#34;jetbrains mono&amp;#34; , monospace ; color: rgb(45 , 185 , 255)&quot;&gt;PreparedStatement &lt;/span&gt;&lt;span style=&quot;font-family: &amp;#34;jetbrains mono&amp;#34; , monospace ; color: rgb(226 , 165 , 238) ; font-style: italic&quot;&gt;preparedStatement&lt;/span&gt;&lt;/p&gt;&lt;p style=&quot;margin: 0px 0px 0px 4px&quot;&gt;-&amp;nbsp;&lt;span style=&quot;font-family: &amp;#34;jetbrains mono&amp;#34; , monospace ; color: rgb(45 , 185 , 255)&quot;&gt;ResultSet &lt;/span&gt;&lt;span style=&quot;font-family: &amp;#34;jetbrains mono&amp;#34; , monospace ; color: rgb(226 , 165 , 238) ; font-style: italic&quot;&gt;resultSet&lt;/span&gt;&lt;/p&gt;&lt;hr size=&quot;1&quot;&gt;&lt;p style=&quot;margin: 0px 0px 0px 4px&quot;&gt;+&amp;nbsp;&lt;span style=&quot;font-family: &amp;#34;jetbrains mono&amp;#34; , monospace ; color: rgb(255 , 198 , 109)&quot;&gt;update&lt;/span&gt;&lt;span style=&quot;font-family: &amp;#34;jetbrains mono&amp;#34; , monospace ; color: rgb(152 , 118 , 170) ; font-style: italic&quot;&gt;(&lt;/span&gt;&lt;span style=&quot;font-family: &amp;#34;jetbrains mono&amp;#34; , monospace ; color: rgb(226 , 165 , 238)&quot;&gt;String &lt;/span&gt;&lt;span style=&quot;font-family: &amp;#34;jetbrains mono&amp;#34; , monospace ; color: rgb(45 , 185 , 255)&quot;&gt;sql&lt;/span&gt;&lt;span style=&quot;font-family: &amp;#34;jetbrains mono&amp;#34; , monospace ; color: rgb(204 , 120 , 50)&quot;&gt;, &lt;/span&gt;&lt;span style=&quot;font-family: &amp;#34;jetbrains mono&amp;#34; , monospace ; color: rgb(226 , 165 , 238)&quot;&gt;Object&lt;/span&gt;&lt;span style=&quot;background-color: rgb(43 , 43 , 43) ; color: rgb(159 , 199 , 236) ; font-family: &amp;#34;jetbrains mono&amp;#34; , monospace&quot;&gt;... &lt;/span&gt;&lt;span style=&quot;font-family: &amp;#34;jetbrains mono&amp;#34; , monospace ; color: rgb(45 , 185 , 255)&quot;&gt;args&lt;/span&gt;&lt;span style=&quot;font-family: &amp;#34;jetbrains mono&amp;#34; , monospace ; color: rgb(152 , 118 , 170) ; font-style: italic&quot;&gt;):&lt;/span&gt;&lt;span style=&quot;color: rgb(204 , 120 , 50) ; background-color: rgb(43 , 43 , 43) ; font-family: &amp;#34;jetbrains mono&amp;#34; , monospace&quot;&gt;void&lt;/span&gt;&lt;/p&gt;&lt;p style=&quot;margin: 0px 0px 0px 4px&quot;&gt;&lt;span style=&quot;background-color: rgb(43 , 43 , 43) ; font-family: &amp;#34;jetbrains mono&amp;#34; , monospace&quot;&gt;&lt;font color=&quot;#ffffff&quot;&gt;+&amp;nbsp;&lt;/font&gt;&lt;/span&gt;&lt;span style=&quot;font-family: &amp;#34;jetbrains mono&amp;#34; , monospace ; color: rgb(255 , 198 , 109)&quot;&gt;getInstance&lt;/span&gt;&lt;span style=&quot;font-family: &amp;#34;jetbrains mono&amp;#34; , monospace ; color: rgb(152 , 118 , 170) ; font-style: italic&quot;&gt;(&lt;/span&gt;&lt;span style=&quot;font-family: &amp;#34;jetbrains mono&amp;#34; , monospace ; color: rgb(226 , 165 , 238)&quot;&gt;String &lt;/span&gt;&lt;span style=&quot;font-family: &amp;#34;jetbrains mono&amp;#34; , monospace ; color: rgb(45 , 185 , 255)&quot;&gt;sql&lt;/span&gt;&lt;span style=&quot;font-family: &amp;#34;jetbrains mono&amp;#34; , monospace ; color: rgb(204 , 120 , 50)&quot;&gt;, &lt;/span&gt;&lt;span style=&quot;font-family: &amp;#34;jetbrains mono&amp;#34; , monospace ; color: rgb(226 , 165 , 238)&quot;&gt;Object &lt;/span&gt;&lt;span style=&quot;font-family: &amp;#34;jetbrains mono&amp;#34; , monospace ; color: rgb(45 , 185 , 255)&quot;&gt;args&lt;/span&gt;&lt;span style=&quot;font-family: &amp;#34;jetbrains mono&amp;#34; , monospace ; color: rgb(152 , 118 , 170) ; font-style: italic&quot;&gt;):&lt;/span&gt;&lt;span style=&quot;color: rgb(45 , 185 , 255) ; background-color: rgb(43 , 43 , 43) ; font-family: &amp;#34;jetbrains mono&amp;#34; , monospace&quot;&gt;ResultSet&lt;/span&gt;&lt;/p&gt;&lt;p style=&quot;margin: 0px 0px 0px 4px&quot;&gt;&lt;span style=&quot;background-color: rgb(43 , 43 , 43) ; font-family: &amp;#34;jetbrains mono&amp;#34; , monospace&quot;&gt;&lt;font color=&quot;#ffffff&quot;&gt;+&amp;nbsp;&lt;/font&gt;&lt;/span&gt;&lt;span style=&quot;font-family: &amp;#34;jetbrains mono&amp;#34; , monospace ; color: rgb(255 , 198 , 109)&quot;&gt;getTable&lt;/span&gt;&lt;span style=&quot;font-family: &amp;#34;jetbrains mono&amp;#34; , monospace ; color: rgb(152 , 118 , 170) ; font-style: italic&quot;&gt;(&lt;/span&gt;&lt;span style=&quot;font-family: &amp;#34;jetbrains mono&amp;#34; , monospace ; color: rgb(226 , 165 , 238)&quot;&gt;String &lt;/span&gt;&lt;span style=&quot;font-family: &amp;#34;jetbrains mono&amp;#34; , monospace ; color: rgb(45 , 185 , 255)&quot;&gt;sql&lt;/span&gt;&lt;span style=&quot;font-family: &amp;#34;jetbrains mono&amp;#34; , monospace ; color: rgb(152 , 118 , 170) ; font-style: italic&quot;&gt;):&lt;/span&gt;&lt;span style=&quot;background-color: rgb(43 , 43 , 43) ; color: rgb(159 , 199 , 236) ; font-family: &amp;#34;jetbrains mono&amp;#34; , monospace&quot;&gt;ResultSet&lt;/span&gt;&lt;/p&gt;&lt;p style=&quot;margin: 0px 0px 0px 4px&quot;&gt;&lt;span style=&quot;background-color: rgb(43 , 43 , 43) ; font-family: &amp;#34;jetbrains mono&amp;#34; , monospace&quot;&gt;&lt;font color=&quot;#ffffff&quot;&gt;&lt;br&gt;&lt;/font&gt;&lt;/span&gt;&lt;/p&gt;" style="verticalAlign=top;align=left;overflow=fill;fontSize=12;fontFamily=Helvetica;html=1;" vertex="1" parent="H7C24VEy_cqSnfSpe2fy-1"><mxGeometry x="821" y="289" width="401" height="144" as="geometry"/></mxCell><mxCell id="HetmUpukygfrTrHRG9hj-2" value="Use" style="endArrow=open;endSize=12;dashed=1;html=1;" edge="1" parent="H7C24VEy_cqSnfSpe2fy-1" source="HetmUpukygfrTrHRG9hj-1" target="HetmUpukygfrTrHRG9hj-0"><mxGeometry width="160" relative="1" as="geometry"><mxPoint x="718" y="575" as="sourcePoint"/><mxPoint x="878" y="575" as="targetPoint"/></mxGeometry></mxCell><mxCell id="M6iF1CqBYPYHwYf2zqM1-0" value="&lt;p style=&quot;margin: 0px ; margin-top: 4px ; text-align: center&quot;&gt;&lt;i&gt;&amp;lt;&amp;lt;Interface&amp;gt;&amp;gt;&lt;/i&gt;&lt;br&gt;&lt;/p&gt;&lt;pre style=&quot;text-align: center ; background-color: rgb(43 , 43 , 43) ; color: rgb(159 , 199 , 236) ; font-family: &amp;#34;jetbrains mono&amp;#34; , monospace&quot;&gt;&lt;span style=&quot;color: #2db9ff&quot;&gt;IF_BaseDao&amp;lt;T&amp;gt;&lt;/span&gt;&lt;/pre&gt;&lt;hr size=&quot;1&quot;&gt;&lt;p style=&quot;margin: 0px ; margin-left: 4px&quot;&gt;&lt;br&gt;&lt;/p&gt;&lt;hr size=&quot;1&quot;&gt;&lt;p style=&quot;margin: 0px ; margin-left: 4px&quot;&gt;+&amp;nbsp;&lt;span style=&quot;font-family: &amp;#34;jetbrains mono&amp;#34; , monospace ; color: rgb(255 , 198 , 109)&quot;&gt;add&lt;/span&gt;&lt;span style=&quot;font-family: &amp;#34;jetbrains mono&amp;#34; , monospace ; color: rgb(152 , 118 , 170) ; font-style: italic&quot;&gt;(&lt;/span&gt;&lt;span style=&quot;font-family: &amp;#34;jetbrains mono&amp;#34; , monospace ; color: rgb(80 , 120 , 116)&quot;&gt;T &lt;/span&gt;&lt;span style=&quot;font-family: &amp;#34;jetbrains mono&amp;#34; , monospace ; color: rgb(45 , 185 , 255)&quot;&gt;t&lt;/span&gt;&lt;span style=&quot;font-family: &amp;#34;jetbrains mono&amp;#34; , monospace ; color: rgb(152 , 118 , 170) ; font-style: italic&quot;&gt;):void&lt;/span&gt;&lt;/p&gt;&lt;p style=&quot;margin: 0px ; margin-left: 4px&quot;&gt;+&amp;nbsp;&lt;span style=&quot;font-family: &amp;#34;jetbrains mono&amp;#34; , monospace ; color: rgb(255 , 198 , 109)&quot;&gt;modify&lt;/span&gt;&lt;span style=&quot;font-family: &amp;#34;jetbrains mono&amp;#34; , monospace ; color: rgb(152 , 118 , 170) ; font-style: italic&quot;&gt;(&lt;/span&gt;&lt;span style=&quot;font-family: &amp;#34;jetbrains mono&amp;#34; , monospace ; color: rgb(80 , 120 , 116)&quot;&gt;T &lt;/span&gt;&lt;span style=&quot;font-family: &amp;#34;jetbrains mono&amp;#34; , monospace ; color: rgb(45 , 185 , 255)&quot;&gt;t&lt;/span&gt;&lt;span style=&quot;font-family: &amp;#34;jetbrains mono&amp;#34; , monospace ; color: rgb(152 , 118 , 170) ; font-style: italic&quot;&gt;): void&lt;/span&gt;&lt;/p&gt;&lt;p style=&quot;margin: 0px ; margin-left: 4px&quot;&gt;+&amp;nbsp;&lt;span style=&quot;font-family: &amp;#34;jetbrains mono&amp;#34; , monospace ; color: rgb(255 , 198 , 109)&quot;&gt;delete&lt;/span&gt;&lt;span style=&quot;font-family: &amp;#34;jetbrains mono&amp;#34; , monospace ; color: rgb(152 , 118 , 170) ; font-style: italic&quot;&gt;(&lt;/span&gt;&lt;span style=&quot;font-family: &amp;#34;jetbrains mono&amp;#34; , monospace ; color: rgb(80 , 120 , 116)&quot;&gt;T &lt;/span&gt;&lt;span style=&quot;font-family: &amp;#34;jetbrains mono&amp;#34; , monospace ; color: rgb(45 , 185 , 255)&quot;&gt;t&lt;/span&gt;&lt;span style=&quot;font-family: &amp;#34;jetbrains mono&amp;#34; , monospace ; color: rgb(152 , 118 , 170) ; font-style: italic&quot;&gt;):void&lt;/span&gt;&lt;/p&gt;&lt;p style=&quot;margin: 0px ; margin-left: 4px&quot;&gt;+&amp;nbsp;&lt;span style=&quot;font-family: &amp;#34;jetbrains mono&amp;#34; , monospace ; color: rgb(255 , 198 , 109)&quot;&gt;getInstance&lt;/span&gt;&lt;span style=&quot;font-family: &amp;#34;jetbrains mono&amp;#34; , monospace ; color: rgb(152 , 118 , 170) ; font-style: italic&quot;&gt;(&lt;/span&gt;&lt;span style=&quot;font-family: &amp;#34;jetbrains mono&amp;#34; , monospace ; color: rgb(80 , 120 , 116)&quot;&gt;T &lt;/span&gt;&lt;span style=&quot;font-family: &amp;#34;jetbrains mono&amp;#34; , monospace ; color: rgb(45 , 185 , 255)&quot;&gt;t&lt;/span&gt;&lt;span style=&quot;font-family: &amp;#34;jetbrains mono&amp;#34; , monospace ; color: rgb(152 , 118 , 170) ; font-style: italic&quot;&gt;):&lt;/span&gt;&lt;span style=&quot;background-color: rgb(43 , 43 , 43) ; color: rgb(159 , 199 , 236) ; font-family: &amp;#34;jetbrains mono&amp;#34; , monospace&quot;&gt;ResultSet&lt;/span&gt;&lt;/p&gt;&lt;p style=&quot;margin: 0px ; margin-left: 4px&quot;&gt;+&amp;nbsp;&lt;span style=&quot;font-family: &amp;#34;jetbrains mono&amp;#34; , monospace ; color: rgb(255 , 198 , 109)&quot;&gt;getAll&lt;/span&gt;&lt;span style=&quot;font-family: &amp;#34;jetbrains mono&amp;#34; , monospace ; color: rgb(152 , 118 , 170) ; font-style: italic&quot;&gt;():&lt;/span&gt;&lt;span style=&quot;background-color: rgb(43 , 43 , 43) ; color: rgb(159 , 199 , 236) ; font-family: &amp;#34;jetbrains mono&amp;#34; , monospace&quot;&gt;ResultSet&lt;/span&gt;&lt;/p&gt;" style="verticalAlign=top;align=left;overflow=fill;fontSize=12;fontFamily=Helvetica;html=1;" vertex="1" parent="H7C24VEy_cqSnfSpe2fy-1"><mxGeometry x="913" y="-556" width="217" height="173" as="geometry"/></mxCell><mxCell id="M6iF1CqBYPYHwYf2zqM1-1" value="&lt;p style=&quot;margin: 0px ; margin-top: 4px ; text-align: center&quot;&gt;&lt;i&gt;&amp;lt;&amp;lt;Interface&amp;gt;&amp;gt;&lt;/i&gt;&lt;br&gt;&lt;/p&gt;&lt;pre style=&quot;text-align: center ; background-color: rgb(43 , 43 , 43) ; color: rgb(159 , 199 , 236) ; font-family: &amp;#34;jetbrains mono&amp;#34; , monospace&quot;&gt;&lt;span style=&quot;color: #2db9ff&quot;&gt;IF_UserDao&lt;/span&gt;&lt;/pre&gt;&lt;hr size=&quot;1&quot;&gt;&lt;p style=&quot;margin: 0px ; margin-left: 4px&quot;&gt;&lt;br&gt;&lt;/p&gt;&lt;hr size=&quot;1&quot;&gt;&lt;p style=&quot;margin: 0px ; margin-left: 4px&quot;&gt;&lt;br&gt;&lt;/p&gt;" style="verticalAlign=top;align=left;overflow=fill;fontSize=12;fontFamily=Helvetica;html=1;" vertex="1" parent="H7C24VEy_cqSnfSpe2fy-1"><mxGeometry x="196" y="-210" width="217" height="109" as="geometry"/></mxCell><mxCell id="M6iF1CqBYPYHwYf2zqM1-2" value="Extends" style="endArrow=block;endSize=16;endFill=0;html=1;" edge="1" parent="H7C24VEy_cqSnfSpe2fy-1" source="M6iF1CqBYPYHwYf2zqM1-1" target="M6iF1CqBYPYHwYf2zqM1-0"><mxGeometry width="160" relative="1" as="geometry"><mxPoint x="806" y="-79" as="sourcePoint"/><mxPoint x="966" y="-79" as="targetPoint"/></mxGeometry></mxCell><mxCell id="M6iF1CqBYPYHwYf2zqM1-3" value="&lt;p style=&quot;margin: 0px ; margin-top: 4px ; text-align: center&quot;&gt;&lt;i&gt;&amp;lt;&amp;lt;Interface&amp;gt;&amp;gt;&lt;/i&gt;&lt;br&gt;&lt;/p&gt;&lt;pre style=&quot;text-align: center ; background-color: rgb(43 , 43 , 43) ; color: rgb(159 , 199 , 236) ; font-family: &amp;#34;jetbrains mono&amp;#34; , monospace&quot;&gt;&lt;span style=&quot;color: #2db9ff&quot;&gt;IF_NoteDao&lt;/span&gt;&lt;/pre&gt;&lt;hr size=&quot;1&quot;&gt;&lt;p style=&quot;margin: 0px ; margin-left: 4px&quot;&gt;&lt;br&gt;&lt;/p&gt;&lt;hr size=&quot;1&quot;&gt;&lt;p style=&quot;margin: 0px ; margin-left: 4px&quot;&gt;&lt;br&gt;&lt;/p&gt;" style="verticalAlign=top;align=left;overflow=fill;fontSize=12;fontFamily=Helvetica;html=1;" vertex="1" parent="H7C24VEy_cqSnfSpe2fy-1"><mxGeometry x="1235" y="-210" width="217" height="109" as="geometry"/></mxCell><mxCell id="M6iF1CqBYPYHwYf2zqM1-4" value="&lt;p style=&quot;margin: 0px ; margin-top: 4px ; text-align: center&quot;&gt;&lt;i&gt;&amp;lt;&amp;lt;Interface&amp;gt;&amp;gt;&lt;/i&gt;&lt;br&gt;&lt;/p&gt;&lt;pre style=&quot;text-align: center ; background-color: rgb(43 , 43 , 43) ; color: rgb(159 , 199 , 236) ; font-family: &amp;#34;jetbrains mono&amp;#34; , monospace&quot;&gt;&lt;span style=&quot;color: #2db9ff&quot;&gt;IF_EventDao&lt;/span&gt;&lt;/pre&gt;&lt;hr size=&quot;1&quot;&gt;&lt;p style=&quot;margin: 0px ; margin-left: 4px&quot;&gt;&lt;br&gt;&lt;/p&gt;&lt;hr size=&quot;1&quot;&gt;&lt;p style=&quot;margin: 0px ; margin-left: 4px&quot;&gt;&lt;br&gt;&lt;/p&gt;" style="verticalAlign=top;align=left;overflow=fill;fontSize=12;fontFamily=Helvetica;html=1;" vertex="1" parent="H7C24VEy_cqSnfSpe2fy-1"><mxGeometry x="910" y="-208" width="217" height="109" as="geometry"/></mxCell><mxCell id="M6iF1CqBYPYHwYf2zqM1-5" value="&lt;p style=&quot;margin: 0px ; margin-top: 4px ; text-align: center&quot;&gt;&lt;i&gt;&amp;lt;&amp;lt;Interface&amp;gt;&amp;gt;&lt;/i&gt;&lt;br&gt;&lt;/p&gt;&lt;pre style=&quot;text-align: center ; background-color: rgb(43 , 43 , 43) ; color: rgb(159 , 199 , 236) ; font-family: &amp;#34;jetbrains mono&amp;#34; , monospace&quot;&gt;&lt;span style=&quot;color: #2db9ff&quot;&gt;IF_EventCardDao&lt;/span&gt;&lt;/pre&gt;&lt;hr size=&quot;1&quot;&gt;&lt;p style=&quot;margin: 0px ; margin-left: 4px&quot;&gt;&lt;br&gt;&lt;/p&gt;&lt;hr size=&quot;1&quot;&gt;&lt;p style=&quot;margin: 0px ; margin-left: 4px&quot;&gt;&lt;br&gt;&lt;/p&gt;" style="verticalAlign=top;align=left;overflow=fill;fontSize=12;fontFamily=Helvetica;html=1;" vertex="1" parent="H7C24VEy_cqSnfSpe2fy-1"><mxGeometry x="586" y="-210" width="217" height="109" as="geometry"/></mxCell><mxCell id="M6iF1CqBYPYHwYf2zqM1-6" value="&lt;p style=&quot;margin: 0px ; margin-top: 4px ; text-align: center&quot;&gt;&lt;i&gt;&amp;lt;&amp;lt;Interface&amp;gt;&amp;gt;&lt;/i&gt;&lt;br&gt;&lt;/p&gt;&lt;pre style=&quot;text-align: center ; background-color: rgb(43 , 43 , 43) ; color: rgb(159 , 199 , 236) ; font-family: &amp;#34;jetbrains mono&amp;#34; , monospace&quot;&gt;&lt;span style=&quot;color: #2db9ff&quot;&gt;IF_CommentDao&lt;/span&gt;&lt;/pre&gt;&lt;hr size=&quot;1&quot;&gt;&lt;p style=&quot;margin: 0px ; margin-left: 4px&quot;&gt;&lt;br&gt;&lt;/p&gt;&lt;hr size=&quot;1&quot;&gt;&lt;p style=&quot;margin: 0px ; margin-left: 4px&quot;&gt;&lt;br&gt;&lt;/p&gt;" style="verticalAlign=top;align=left;overflow=fill;fontSize=12;fontFamily=Helvetica;html=1;" vertex="1" parent="H7C24VEy_cqSnfSpe2fy-1"><mxGeometry x="1561" y="-208" width="217" height="109" as="geometry"/></mxCell><mxCell id="M6iF1CqBYPYHwYf2zqM1-7" value="Extends" style="endArrow=block;endSize=16;endFill=0;html=1;" edge="1" parent="H7C24VEy_cqSnfSpe2fy-1" source="M6iF1CqBYPYHwYf2zqM1-5" target="M6iF1CqBYPYHwYf2zqM1-0"><mxGeometry width="160" relative="1" as="geometry"><mxPoint x="579.6677215189875" y="-198" as="sourcePoint"/><mxPoint x="923" y="-396.7051282051282" as="targetPoint"/></mxGeometry></mxCell><mxCell id="M6iF1CqBYPYHwYf2zqM1-8" value="Extends" style="endArrow=block;endSize=16;endFill=0;html=1;" edge="1" parent="H7C24VEy_cqSnfSpe2fy-1" source="M6iF1CqBYPYHwYf2zqM1-4" target="M6iF1CqBYPYHwYf2zqM1-0"><mxGeometry width="160" relative="1" as="geometry"><mxPoint x="831.2373417721519" y="-198" as="sourcePoint"/><mxPoint x="965.256329113924" y="-373" as="targetPoint"/></mxGeometry></mxCell><mxCell id="M6iF1CqBYPYHwYf2zqM1-9" value="Extends" style="endArrow=block;endSize=16;endFill=0;html=1;" edge="1" parent="H7C24VEy_cqSnfSpe2fy-1" source="M6iF1CqBYPYHwYf2zqM1-3" target="M6iF1CqBYPYHwYf2zqM1-0"><mxGeometry width="160" relative="1" as="geometry"><mxPoint x="1053.8433544303798" y="-198" as="sourcePoint"/><mxPoint x="1038.89082278481" y="-373" as="targetPoint"/></mxGeometry></mxCell><mxCell id="M6iF1CqBYPYHwYf2zqM1-10" value="Extends" style="endArrow=block;endSize=16;endFill=0;html=1;" edge="1" parent="H7C24VEy_cqSnfSpe2fy-1" source="M6iF1CqBYPYHwYf2zqM1-6" target="M6iF1CqBYPYHwYf2zqM1-0"><mxGeometry width="160" relative="1" as="geometry"><mxPoint x="1276.124203821656" y="-200" as="sourcePoint"/><mxPoint x="1113.0414012738852" y="-373" as="targetPoint"/></mxGeometry></mxCell><mxCell id="M6iF1CqBYPYHwYf2zqM1-11" value="&lt;p style=&quot;margin: 4px 0px 0px ; text-align: center&quot;&gt;&lt;b&gt;Impl_UserDao&lt;/b&gt;&lt;/p&gt;&lt;hr size=&quot;1&quot;&gt;&lt;p style=&quot;margin: 0px 0px 0px 4px&quot;&gt;&lt;br&gt;&lt;/p&gt;&lt;hr size=&quot;1&quot;&gt;&lt;p style=&quot;margin: 0px 0px 0px 4px&quot;&gt;&lt;br&gt;&lt;/p&gt;&lt;p style=&quot;margin: 0px 0px 0px 4px&quot;&gt;&lt;span style=&quot;background-color: rgb(43 , 43 , 43) ; font-family: &amp;#34;jetbrains mono&amp;#34; , monospace&quot;&gt;&lt;font color=&quot;#ffffff&quot;&gt;&lt;br&gt;&lt;/font&gt;&lt;/span&gt;&lt;/p&gt;" style="verticalAlign=top;align=left;overflow=fill;fontSize=12;fontFamily=Helvetica;html=1;" vertex="1" parent="H7C24VEy_cqSnfSpe2fy-1"><mxGeometry x="193" y="-4" width="223" height="79" as="geometry"/></mxCell><mxCell id="M6iF1CqBYPYHwYf2zqM1-12" value="" style="endArrow=block;dashed=1;endFill=0;endSize=12;html=1;" edge="1" parent="H7C24VEy_cqSnfSpe2fy-1" source="M6iF1CqBYPYHwYf2zqM1-11" target="M6iF1CqBYPYHwYf2zqM1-1"><mxGeometry width="160" relative="1" as="geometry"><mxPoint x="793" y="86" as="sourcePoint"/><mxPoint x="953" y="86" as="targetPoint"/></mxGeometry></mxCell><mxCell id="M6iF1CqBYPYHwYf2zqM1-13" value="&lt;p style=&quot;margin: 4px 0px 0px ; text-align: center&quot;&gt;&lt;b&gt;Impl_NoteDao&lt;/b&gt;&lt;/p&gt;&lt;hr size=&quot;1&quot;&gt;&lt;p style=&quot;margin: 0px 0px 0px 4px&quot;&gt;&lt;br&gt;&lt;/p&gt;&lt;hr size=&quot;1&quot;&gt;&lt;p style=&quot;margin: 0px 0px 0px 4px&quot;&gt;&lt;br&gt;&lt;/p&gt;&lt;p style=&quot;margin: 0px 0px 0px 4px&quot;&gt;&lt;span style=&quot;background-color: rgb(43 , 43 , 43) ; font-family: &amp;#34;jetbrains mono&amp;#34; , monospace&quot;&gt;&lt;font color=&quot;#ffffff&quot;&gt;&lt;br&gt;&lt;/font&gt;&lt;/span&gt;&lt;/p&gt;" style="verticalAlign=top;align=left;overflow=fill;fontSize=12;fontFamily=Helvetica;html=1;" vertex="1" parent="H7C24VEy_cqSnfSpe2fy-1"><mxGeometry x="1232" y="-6" width="223" height="79" as="geometry"/></mxCell><mxCell id="M6iF1CqBYPYHwYf2zqM1-14" value="" style="endArrow=block;dashed=1;endFill=0;endSize=12;html=1;" edge="1" parent="H7C24VEy_cqSnfSpe2fy-1" source="M6iF1CqBYPYHwYf2zqM1-13" target="M6iF1CqBYPYHwYf2zqM1-3"><mxGeometry width="160" relative="1" as="geometry"><mxPoint x="1001" y="91" as="sourcePoint"/><mxPoint x="511.796195652174" y="-89" as="targetPoint"/></mxGeometry></mxCell><mxCell id="M6iF1CqBYPYHwYf2zqM1-15" value="&lt;p style=&quot;margin: 4px 0px 0px ; text-align: center&quot;&gt;&lt;b&gt;Impl_EventDao&lt;/b&gt;&lt;/p&gt;&lt;hr size=&quot;1&quot;&gt;&lt;p style=&quot;margin: 0px 0px 0px 4px&quot;&gt;&lt;br&gt;&lt;/p&gt;&lt;hr size=&quot;1&quot;&gt;&lt;p style=&quot;margin: 0px 0px 0px 4px&quot;&gt;&lt;br&gt;&lt;/p&gt;&lt;p style=&quot;margin: 0px 0px 0px 4px&quot;&gt;&lt;span style=&quot;background-color: rgb(43 , 43 , 43) ; font-family: &amp;#34;jetbrains mono&amp;#34; , monospace&quot;&gt;&lt;font color=&quot;#ffffff&quot;&gt;&lt;br&gt;&lt;/font&gt;&lt;/span&gt;&lt;/p&gt;" style="verticalAlign=top;align=left;overflow=fill;fontSize=12;fontFamily=Helvetica;html=1;" vertex="1" parent="H7C24VEy_cqSnfSpe2fy-1"><mxGeometry x="910" y="-6" width="223" height="79" as="geometry"/></mxCell><mxCell id="M6iF1CqBYPYHwYf2zqM1-16" value="" style="endArrow=block;dashed=1;endFill=0;endSize=12;html=1;" edge="1" parent="H7C24VEy_cqSnfSpe2fy-1" source="M6iF1CqBYPYHwYf2zqM1-15" target="M6iF1CqBYPYHwYf2zqM1-4"><mxGeometry width="160" relative="1" as="geometry"><mxPoint x="955" y="101" as="sourcePoint"/><mxPoint x="465.796195652174" y="-79" as="targetPoint"/><Array as="points"/></mxGeometry></mxCell><mxCell id="M6iF1CqBYPYHwYf2zqM1-17" value="&lt;p style=&quot;margin: 4px 0px 0px ; text-align: center&quot;&gt;&lt;b&gt;Impl_EventCardDao&lt;/b&gt;&lt;/p&gt;&lt;hr size=&quot;1&quot;&gt;&lt;p style=&quot;margin: 0px 0px 0px 4px&quot;&gt;&lt;br&gt;&lt;/p&gt;&lt;hr size=&quot;1&quot;&gt;&lt;p style=&quot;margin: 0px 0px 0px 4px&quot;&gt;&lt;br&gt;&lt;/p&gt;&lt;p style=&quot;margin: 0px 0px 0px 4px&quot;&gt;&lt;span style=&quot;background-color: rgb(43 , 43 , 43) ; font-family: &amp;#34;jetbrains mono&amp;#34; , monospace&quot;&gt;&lt;font color=&quot;#ffffff&quot;&gt;&lt;br&gt;&lt;/font&gt;&lt;/span&gt;&lt;/p&gt;" style="verticalAlign=top;align=left;overflow=fill;fontSize=12;fontFamily=Helvetica;html=1;" vertex="1" parent="H7C24VEy_cqSnfSpe2fy-1"><mxGeometry x="583" y="-11" width="223" height="79" as="geometry"/></mxCell><mxCell id="M6iF1CqBYPYHwYf2zqM1-18" value="" style="endArrow=block;dashed=1;endFill=0;endSize=12;html=1;" edge="1" parent="H7C24VEy_cqSnfSpe2fy-1" source="M6iF1CqBYPYHwYf2zqM1-17" target="M6iF1CqBYPYHwYf2zqM1-5"><mxGeometry width="160" relative="1" as="geometry"><mxPoint x="1180" y="99" as="sourcePoint"/><mxPoint x="690.796195652174" y="-81" as="targetPoint"/></mxGeometry></mxCell><mxCell id="M6iF1CqBYPYHwYf2zqM1-19" value="&lt;p style=&quot;margin: 4px 0px 0px ; text-align: center&quot;&gt;&lt;b&gt;Impl_CommentDao&lt;/b&gt;&lt;/p&gt;&lt;hr size=&quot;1&quot;&gt;&lt;p style=&quot;margin: 0px 0px 0px 4px&quot;&gt;&lt;br&gt;&lt;/p&gt;&lt;hr size=&quot;1&quot;&gt;&lt;p style=&quot;margin: 0px 0px 0px 4px&quot;&gt;&lt;br&gt;&lt;/p&gt;&lt;p style=&quot;margin: 0px 0px 0px 4px&quot;&gt;&lt;span style=&quot;background-color: rgb(43 , 43 , 43) ; font-family: &amp;#34;jetbrains mono&amp;#34; , monospace&quot;&gt;&lt;font color=&quot;#ffffff&quot;&gt;&lt;br&gt;&lt;/font&gt;&lt;/span&gt;&lt;/p&gt;" style="verticalAlign=top;align=left;overflow=fill;fontSize=12;fontFamily=Helvetica;html=1;" vertex="1" parent="H7C24VEy_cqSnfSpe2fy-1"><mxGeometry x="1555" y="-6" width="223" height="79" as="geometry"/></mxCell><mxCell id="M6iF1CqBYPYHwYf2zqM1-20" value="" style="endArrow=block;dashed=1;endFill=0;endSize=12;html=1;" edge="1" parent="H7C24VEy_cqSnfSpe2fy-1" source="M6iF1CqBYPYHwYf2zqM1-19" target="M6iF1CqBYPYHwYf2zqM1-6"><mxGeometry width="160" relative="1" as="geometry"><mxPoint x="1330" y="93" as="sourcePoint"/><mxPoint x="1672.5" y="-99" as="targetPoint"/></mxGeometry></mxCell><mxCell id="M6iF1CqBYPYHwYf2zqM1-21" value="Use" style="endArrow=open;endSize=12;dashed=1;html=1;" edge="1" parent="H7C24VEy_cqSnfSpe2fy-1" source="M6iF1CqBYPYHwYf2zqM1-11" target="HetmUpukygfrTrHRG9hj-1"><mxGeometry width="160" relative="1" as="geometry"><mxPoint x="356" y="113" as="sourcePoint"/><mxPoint x="516" y="113" as="targetPoint"/></mxGeometry></mxCell><mxCell id="M6iF1CqBYPYHwYf2zqM1-22" value="Use" style="endArrow=open;endSize=12;dashed=1;html=1;" edge="1" parent="H7C24VEy_cqSnfSpe2fy-1" source="M6iF1CqBYPYHwYf2zqM1-17" target="HetmUpukygfrTrHRG9hj-1"><mxGeometry width="160" relative="1" as="geometry"><mxPoint x="403.2081413210444" y="85" as="sourcePoint"/><mxPoint x="883.8041474654378" y="299" as="targetPoint"/></mxGeometry></mxCell><mxCell id="M6iF1CqBYPYHwYf2zqM1-23" value="Use" style="endArrow=open;endSize=12;dashed=1;html=1;" edge="1" parent="H7C24VEy_cqSnfSpe2fy-1" source="M6iF1CqBYPYHwYf2zqM1-15" target="HetmUpukygfrTrHRG9hj-1"><mxGeometry width="160" relative="1" as="geometry"><mxPoint x="745.0097744360901" y="78" as="sourcePoint"/><mxPoint x="971.6593984962406" y="299" as="targetPoint"/></mxGeometry></mxCell><mxCell id="M6iF1CqBYPYHwYf2zqM1-24" value="Use" style="endArrow=open;endSize=12;dashed=1;html=1;" edge="1" parent="H7C24VEy_cqSnfSpe2fy-1" source="M6iF1CqBYPYHwYf2zqM1-13" target="HetmUpukygfrTrHRG9hj-1"><mxGeometry width="160" relative="1" as="geometry"><mxPoint x="1033.18854961832" y="83" as="sourcePoint"/><mxPoint x="1042.42213740458" y="299" as="targetPoint"/></mxGeometry></mxCell><mxCell id="M6iF1CqBYPYHwYf2zqM1-25" value="Use" style="endArrow=open;endSize=12;dashed=1;html=1;" edge="1" parent="H7C24VEy_cqSnfSpe2fy-1" source="M6iF1CqBYPYHwYf2zqM1-19" target="HetmUpukygfrTrHRG9hj-1"><mxGeometry width="160" relative="1" as="geometry"><mxPoint x="1316.3519083969459" y="83" as="sourcePoint"/><mxPoint x="1113.2129770992365" y="299" as="targetPoint"/></mxGeometry></mxCell></root></mxGraphModel></diagram><diagram id="s_wCZzLNmF6mbuypY-EH" name="APPLICATION"><mxGraphModel dx="3383" dy="3463" grid="0" gridSize="10" guides="1" tooltips="1" connect="1" arrows="1" fold="1" page="0" pageScale="1" pageWidth="850" pageHeight="1100" math="0" shadow="0"><root><mxCell id="Kso5zGYbWB-w1iWD5ysr-0"/><mxCell id="Kso5zGYbWB-w1iWD5ysr-1" parent="Kso5zGYbWB-w1iWD5ysr-0"/><mxCell id="-nePuBV1-fCkCJkDhjea-0" value="&lt;pre style=&quot;text-align: center ; background-color: rgb(43 , 43 , 43) ; color: rgb(159 , 199 , 236) ; font-family: &amp;#34;jetbrains mono&amp;#34; , monospace&quot;&gt;&lt;span style=&quot;color: #e2a5ee&quot;&gt;App_Opr_ShowUserLogin&lt;/span&gt;&lt;/pre&gt;&lt;hr size=&quot;1&quot;&gt;&lt;p style=&quot;margin: 0px 0px 0px 4px&quot;&gt;&lt;br&gt;&lt;/p&gt;&lt;hr size=&quot;1&quot;&gt;&lt;p style=&quot;margin: 0px 0px 0px 4px&quot;&gt;&lt;br&gt;&lt;/p&gt;" style="verticalAlign=top;align=left;overflow=fill;fontSize=12;fontFamily=Helvetica;html=1;" parent="Kso5zGYbWB-w1iWD5ysr-1" vertex="1"><mxGeometry x="-399" y="-817" width="316" height="95" as="geometry"/></mxCell><mxCell id="-nePuBV1-fCkCJkDhjea-1" value="&lt;pre style=&quot;text-align: center ; background-color: rgb(43 , 43 , 43) ; color: rgb(159 , 199 , 236) ; font-family: &amp;#34;jetbrains mono&amp;#34; , monospace&quot;&gt;&lt;pre style=&quot;font-family: &amp;#34;jetbrains mono&amp;#34; , monospace&quot;&gt;&lt;span style=&quot;color: #e2a5ee&quot;&gt;App_Opr_ShowRegister&lt;/span&gt;&lt;/pre&gt;&lt;/pre&gt;&lt;hr size=&quot;1&quot;&gt;&lt;p style=&quot;margin: 0px 0px 0px 4px&quot;&gt;-&amp;nbsp;&lt;span style=&quot;font-family: &amp;#34;jetbrains mono&amp;#34; , monospace ; color: rgb(226 , 165 , 238)&quot;&gt;Stage &lt;/span&gt;&lt;span style=&quot;font-family: &amp;#34;jetbrains mono&amp;#34; , monospace ; color: rgb(152 , 118 , 170)&quot;&gt;stage_Login&lt;/span&gt;&lt;/p&gt;&lt;p style=&quot;margin: 0px 0px 0px 4px&quot;&gt;-&amp;nbsp;&lt;span style=&quot;font-family: &amp;#34;jetbrains mono&amp;#34; , monospace ; color: rgb(226 , 165 , 238)&quot;&gt;Stage &lt;/span&gt;&lt;span style=&quot;font-family: &amp;#34;jetbrains mono&amp;#34; , monospace ; color: rgb(152 , 118 , 170)&quot;&gt;primaryStage&lt;/span&gt;&lt;/p&gt;&lt;hr size=&quot;1&quot;&gt;&lt;p style=&quot;margin: 0px 0px 0px 4px&quot;&gt;&lt;br&gt;&lt;/p&gt;" style="verticalAlign=top;align=left;overflow=fill;fontSize=12;fontFamily=Helvetica;html=1;" parent="Kso5zGYbWB-w1iWD5ysr-1" vertex="1"><mxGeometry x="-398" y="-676" width="315" height="89" as="geometry"/></mxCell><mxCell id="-nePuBV1-fCkCJkDhjea-2" value="&lt;pre style=&quot;text-align: center ; background-color: rgb(43 , 43 , 43) ; color: rgb(159 , 199 , 236) ; font-family: &amp;#34;jetbrains mono&amp;#34; , monospace&quot;&gt;&lt;pre style=&quot;font-family: &amp;#34;jetbrains mono&amp;#34; , monospace&quot;&gt;&lt;pre style=&quot;font-family: &amp;#34;jetbrains mono&amp;#34; , monospace&quot;&gt;&lt;span style=&quot;color: #e2a5ee&quot;&gt;App_Opr_ShowForgotPassword&lt;/span&gt;&lt;/pre&gt;&lt;/pre&gt;&lt;/pre&gt;&lt;hr size=&quot;1&quot;&gt;&lt;p style=&quot;margin: 0px 0px 0px 4px&quot;&gt;-&amp;nbsp;&lt;span style=&quot;font-family: &amp;#34;jetbrains mono&amp;#34; , monospace ; color: rgb(226 , 165 , 238)&quot;&gt;Stage &lt;/span&gt;&lt;span style=&quot;font-family: &amp;#34;jetbrains mono&amp;#34; , monospace ; color: rgb(152 , 118 , 170)&quot;&gt;stage_Login&lt;/span&gt;&lt;/p&gt;&lt;p style=&quot;margin: 0px 0px 0px 4px&quot;&gt;-&amp;nbsp;&lt;span style=&quot;font-family: &amp;#34;jetbrains mono&amp;#34; , monospace ; color: rgb(226 , 165 , 238)&quot;&gt;Stage &lt;/span&gt;&lt;span style=&quot;font-family: &amp;#34;jetbrains mono&amp;#34; , monospace ; color: rgb(152 , 118 , 170)&quot;&gt;primaryStage&lt;/span&gt;&lt;/p&gt;&lt;hr size=&quot;1&quot;&gt;&lt;p style=&quot;margin: 0px 0px 0px 4px&quot;&gt;&lt;br&gt;&lt;/p&gt;" style="verticalAlign=top;align=left;overflow=fill;fontSize=12;fontFamily=Helvetica;html=1;" parent="Kso5zGYbWB-w1iWD5ysr-1" vertex="1"><mxGeometry x="-398" y="-557" width="315" height="109" as="geometry"/></mxCell><mxCell id="-nePuBV1-fCkCJkDhjea-3" value="&lt;pre style=&quot;text-align: center ; background-color: rgb(43 , 43 , 43) ; color: rgb(159 , 199 , 236) ; font-family: &amp;#34;jetbrains mono&amp;#34; , monospace&quot;&gt;&lt;pre style=&quot;font-family: &amp;#34;jetbrains mono&amp;#34; , monospace&quot;&gt;&lt;pre style=&quot;font-family: &amp;#34;jetbrains mono&amp;#34; , monospace&quot;&gt;&lt;pre style=&quot;font-family: &amp;#34;jetbrains mono&amp;#34; , monospace&quot;&gt;&lt;span style=&quot;color: #e2a5ee&quot;&gt;App_Opr_UserRegister&lt;/span&gt;&lt;/pre&gt;&lt;/pre&gt;&lt;/pre&gt;&lt;/pre&gt;&lt;hr size=&quot;1&quot;&gt;&lt;p style=&quot;margin: 0px 0px 0px 4px&quot;&gt;&lt;br&gt;&lt;/p&gt;&lt;hr size=&quot;1&quot;&gt;&lt;p style=&quot;margin: 0px 0px 0px 4px&quot;&gt;+&amp;nbsp;&lt;span style=&quot;font-family: &amp;#34;jetbrains mono&amp;#34; , monospace ; color: rgb(255 , 198 , 109)&quot;&gt;register&lt;/span&gt;&lt;span style=&quot;font-family: &amp;#34;jetbrains mono&amp;#34; , monospace ; color: rgb(152 , 118 , 170) ; font-style: italic&quot;&gt;(&lt;/span&gt;&lt;span style=&quot;font-family: &amp;#34;jetbrains mono&amp;#34; , monospace ; color: rgb(226 , 165 , 238)&quot;&gt;TextField &lt;/span&gt;&lt;span style=&quot;font-family: &amp;#34;jetbrains mono&amp;#34; , monospace ; color: rgb(45 , 185 , 255)&quot;&gt;tf_UserName &lt;/span&gt;&lt;span style=&quot;font-family: &amp;#34;jetbrains mono&amp;#34; , monospace ; color: rgb(204 , 120 , 50)&quot;&gt;, &lt;/span&gt;&lt;span style=&quot;font-family: &amp;#34;jetbrains mono&amp;#34; , monospace ; color: rgb(226 , 165 , 238)&quot;&gt;TextField &lt;/span&gt;&lt;span style=&quot;font-family: &amp;#34;jetbrains mono&amp;#34; , monospace ; color: rgb(45 , 185 , 255)&quot;&gt;tf_Password&lt;/span&gt;&lt;span style=&quot;font-family: &amp;#34;jetbrains mono&amp;#34; , monospace ; color: rgb(152 , 118 , 170) ; font-style: italic&quot;&gt;):&lt;/span&gt;&lt;span style=&quot;color: rgb(204 , 120 , 50) ; background-color: rgb(43 , 43 , 43) ; font-family: &amp;#34;jetbrains mono&amp;#34; , monospace&quot;&gt;void&lt;/span&gt;&lt;/p&gt;" style="verticalAlign=top;align=left;overflow=fill;fontSize=12;fontFamily=Helvetica;html=1;" parent="Kso5zGYbWB-w1iWD5ysr-1" vertex="1"><mxGeometry x="-541" y="-408" width="458" height="97" as="geometry"/></mxCell><mxCell id="-nePuBV1-fCkCJkDhjea-4" value="&lt;pre style=&quot;text-align: center ; background-color: rgb(43 , 43 , 43) ; color: rgb(159 , 199 , 236) ; font-family: &amp;#34;jetbrains mono&amp;#34; , monospace&quot;&gt;&lt;pre style=&quot;font-family: &amp;#34;jetbrains mono&amp;#34; , monospace&quot;&gt;&lt;pre style=&quot;font-family: &amp;#34;jetbrains mono&amp;#34; , monospace&quot;&gt;&lt;span style=&quot;color: #e2a5ee&quot;&gt;App_Opr_UserLoginRegisterClose&lt;/span&gt;&lt;/pre&gt;&lt;/pre&gt;&lt;/pre&gt;&lt;hr size=&quot;1&quot;&gt;&lt;p style=&quot;margin: 0px 0px 0px 4px&quot;&gt;-&amp;nbsp;&lt;span style=&quot;font-family: &amp;#34;jetbrains mono&amp;#34; , monospace ; color: rgb(226 , 165 , 238)&quot;&gt;Stage &lt;/span&gt;&lt;span style=&quot;font-family: &amp;#34;jetbrains mono&amp;#34; , monospace ; color: rgb(152 , 118 , 170)&quot;&gt;stage&lt;/span&gt;&lt;/p&gt;&lt;hr size=&quot;1&quot;&gt;&lt;p style=&quot;margin: 0px 0px 0px 4px&quot;&gt;&lt;br&gt;&lt;/p&gt;" style="verticalAlign=top;align=left;overflow=fill;fontSize=12;fontFamily=Helvetica;html=1;" parent="Kso5zGYbWB-w1iWD5ysr-1" vertex="1"><mxGeometry x="-398" y="-251" width="315" height="96" as="geometry"/></mxCell><mxCell id="-nePuBV1-fCkCJkDhjea-6" value="&lt;pre style=&quot;text-align: center ; background-color: rgb(43 , 43 , 43) ; color: rgb(159 , 199 , 236) ; font-family: &amp;#34;jetbrains mono&amp;#34; , monospace&quot;&gt;&lt;pre style=&quot;font-family: &amp;#34;jetbrains mono&amp;#34; , monospace&quot;&gt;&lt;pre style=&quot;font-family: &amp;#34;jetbrains mono&amp;#34; , monospace&quot;&gt;&lt;pre style=&quot;font-family: &amp;#34;jetbrains mono&amp;#34; , monospace&quot;&gt;&lt;span style=&quot;color: #e2a5ee&quot;&gt;App_Opr_UserLogin&lt;/span&gt;&lt;/pre&gt;&lt;/pre&gt;&lt;/pre&gt;&lt;/pre&gt;&lt;hr size=&quot;1&quot;&gt;&lt;p style=&quot;margin: 0px 0px 0px 4px&quot;&gt;-&amp;nbsp;&lt;span style=&quot;font-family: &amp;#34;jetbrains mono&amp;#34; , monospace ; color: rgb(226 , 165 , 238)&quot;&gt;Stage &lt;/span&gt;&lt;span style=&quot;font-family: &amp;#34;jetbrains mono&amp;#34; , monospace ; color: rgb(152 , 118 , 170)&quot;&gt;stage_Login&lt;/span&gt;&lt;/p&gt;&lt;p style=&quot;margin: 0px 0px 0px 4px&quot;&gt;-&lt;span style=&quot;font-family: &amp;#34;jetbrains mono&amp;#34; , monospace ; color: rgb(226 , 165 , 238)&quot;&gt;TextField &lt;/span&gt;&lt;span style=&quot;font-family: &amp;#34;jetbrains mono&amp;#34; , monospace ; color: rgb(152 , 118 , 170)&quot;&gt;user&lt;/span&gt;&lt;/p&gt;&lt;p style=&quot;margin: 0px 0px 0px 4px&quot;&gt;-&lt;span style=&quot;font-family: &amp;#34;jetbrains mono&amp;#34; , monospace ; color: rgb(226 , 165 , 238)&quot;&gt;TextField &lt;/span&gt;&lt;span style=&quot;font-family: &amp;#34;jetbrains mono&amp;#34; , monospace ; color: rgb(152 , 118 , 170)&quot;&gt;password&lt;/span&gt;&lt;/p&gt;&lt;hr size=&quot;1&quot;&gt;&lt;p style=&quot;margin: 0px 0px 0px 4px&quot;&gt;&lt;br&gt;&lt;/p&gt;" style="verticalAlign=top;align=left;overflow=fill;fontSize=12;fontFamily=Helvetica;html=1;" parent="Kso5zGYbWB-w1iWD5ysr-1" vertex="1"><mxGeometry x="-398" y="-113" width="315" height="109" as="geometry"/></mxCell><mxCell id="-nePuBV1-fCkCJkDhjea-7" value="&lt;pre style=&quot;text-align: center ; background-color: rgb(43 , 43 , 43) ; color: rgb(159 , 199 , 236) ; font-family: &amp;#34;jetbrains mono&amp;#34; , monospace&quot;&gt;&lt;pre style=&quot;font-family: &amp;#34;jetbrains mono&amp;#34; , monospace&quot;&gt;&lt;pre style=&quot;font-family: &amp;#34;jetbrains mono&amp;#34; , monospace&quot;&gt;&lt;pre style=&quot;font-family: &amp;#34;jetbrains mono&amp;#34; , monospace&quot;&gt;&lt;pre style=&quot;font-family: &amp;#34;jetbrains mono&amp;#34; , monospace&quot;&gt;&lt;span style=&quot;color: #e2a5ee&quot;&gt;App_Opr_SendPassword&lt;/span&gt;&lt;/pre&gt;&lt;/pre&gt;&lt;/pre&gt;&lt;/pre&gt;&lt;/pre&gt;&lt;hr size=&quot;1&quot;&gt;&lt;p style=&quot;margin: 0px 0px 0px 4px&quot;&gt;-&amp;nbsp;&lt;span style=&quot;font-family: &amp;#34;jetbrains mono&amp;#34; , monospace ; color: rgb(226 , 165 , 238)&quot;&gt;TextField &lt;/span&gt;&lt;span style=&quot;font-family: &amp;#34;jetbrains mono&amp;#34; , monospace ; color: rgb(152 , 118 , 170)&quot;&gt;tf_Email&lt;/span&gt;&lt;/p&gt;&lt;p style=&quot;margin: 0px 0px 0px 4px&quot;&gt;-&lt;font color=&quot;#e2a5ee&quot; face=&quot;jetbrains mono, monospace&quot;&gt;&amp;nbsp;&lt;/font&gt;&lt;span style=&quot;font-family: &amp;#34;jetbrains mono&amp;#34; , monospace ; color: rgb(226 , 165 , 238)&quot;&gt;TextField &lt;/span&gt;&lt;span style=&quot;font-family: &amp;#34;jetbrains mono&amp;#34; , monospace ; color: rgb(152 , 118 , 170)&quot;&gt;tf_username&lt;/span&gt;&lt;/p&gt;&lt;hr size=&quot;1&quot;&gt;&lt;p style=&quot;margin: 0px 0px 0px 4px&quot;&gt;&lt;br&gt;&lt;/p&gt;" style="verticalAlign=top;align=left;overflow=fill;fontSize=12;fontFamily=Helvetica;html=1;" parent="Kso5zGYbWB-w1iWD5ysr-1" vertex="1"><mxGeometry x="-396" y="29" width="315" height="106" as="geometry"/></mxCell><mxCell id="-nePuBV1-fCkCJkDhjea-8" value="&lt;pre style=&quot;text-align: center ; background-color: rgb(43 , 43 , 43) ; color: rgb(159 , 199 , 236) ; font-family: &amp;#34;jetbrains mono&amp;#34; , monospace&quot;&gt;&lt;pre style=&quot;font-family: &amp;#34;jetbrains mono&amp;#34; , monospace&quot;&gt;&lt;pre style=&quot;font-family: &amp;#34;jetbrains mono&amp;#34; , monospace&quot;&gt;&lt;pre style=&quot;font-family: &amp;#34;jetbrains mono&amp;#34; , monospace&quot;&gt;&lt;pre style=&quot;font-family: &amp;#34;jetbrains mono&amp;#34; , monospace&quot;&gt;&lt;span style=&quot;color: #e2a5ee&quot;&gt;App_Opr_View&lt;/span&gt;&lt;/pre&gt;&lt;/pre&gt;&lt;/pre&gt;&lt;/pre&gt;&lt;/pre&gt;&lt;hr size=&quot;1&quot;&gt;&lt;p style=&quot;margin: 0px 0px 0px 4px&quot;&gt;-&amp;nbsp;&lt;span style=&quot;font-family: &amp;#34;jetbrains mono&amp;#34; , monospace ; color: rgb(226 , 165 , 238)&quot;&gt;Dom_EventCard &lt;/span&gt;&lt;span style=&quot;font-family: &amp;#34;jetbrains mono&amp;#34; , monospace ; color: rgb(226 , 165 , 238) ; font-style: italic&quot;&gt;selectedEvent&lt;/span&gt;&lt;/p&gt;&lt;hr size=&quot;1&quot;&gt;&lt;p style=&quot;margin: 0px 0px 0px 4px&quot;&gt;+&amp;nbsp;&lt;span style=&quot;font-family: &amp;#34;jetbrains mono&amp;#34; , monospace ; color: rgb(255 , 198 , 109)&quot;&gt;getOutputText&lt;/span&gt;&lt;span style=&quot;font-family: &amp;#34;jetbrains mono&amp;#34; , monospace ; color: rgb(152 , 118 , 170) ; font-style: italic&quot;&gt;(&lt;/span&gt;&lt;span style=&quot;font-family: &amp;#34;jetbrains mono&amp;#34; , monospace ; color: rgb(226 , 165 , 238)&quot;&gt;Dom_EventCard &lt;/span&gt;&lt;span style=&quot;font-family: &amp;#34;jetbrains mono&amp;#34; , monospace ; color: rgb(45 , 185 , 255)&quot;&gt;selected&lt;/span&gt;&lt;span style=&quot;font-family: &amp;#34;jetbrains mono&amp;#34; , monospace ; color: rgb(152 , 118 , 170) ; font-style: italic&quot;&gt;):&lt;/span&gt;&lt;span style=&quot;background-color: rgb(43 , 43 , 43) ; color: rgb(159 , 199 , 236) ; font-family: &amp;#34;jetbrains mono&amp;#34; , monospace&quot;&gt;String&lt;/span&gt;&lt;/p&gt;" style="verticalAlign=top;align=left;overflow=fill;fontSize=12;fontFamily=Helvetica;html=1;" parent="Kso5zGYbWB-w1iWD5ysr-1" vertex="1"><mxGeometry x="-319" y="-1172" width="373" height="100" as="geometry"/></mxCell><mxCell id="-nePuBV1-fCkCJkDhjea-9" value="&lt;pre style=&quot;text-align: center ; background-color: rgb(43 , 43 , 43) ; color: rgb(159 , 199 , 236) ; font-family: &amp;#34;jetbrains mono&amp;#34; , monospace&quot;&gt;&lt;pre style=&quot;font-family: &amp;#34;jetbrains mono&amp;#34; , monospace&quot;&gt;&lt;pre style=&quot;font-family: &amp;#34;jetbrains mono&amp;#34; , monospace&quot;&gt;&lt;pre style=&quot;font-family: &amp;#34;jetbrains mono&amp;#34; , monospace&quot;&gt;&lt;pre style=&quot;font-family: &amp;#34;jetbrains mono&amp;#34; , monospace&quot;&gt;&lt;pre style=&quot;font-family: &amp;#34;jetbrains mono&amp;#34; , monospace&quot;&gt;&lt;span style=&quot;color: #e2a5ee&quot;&gt;App_Opr_EventList&lt;/span&gt;&lt;/pre&gt;&lt;/pre&gt;&lt;/pre&gt;&lt;/pre&gt;&lt;/pre&gt;&lt;/pre&gt;&lt;hr size=&quot;1&quot;&gt;&lt;p style=&quot;margin: 0px 0px 0px 4px&quot;&gt;-&lt;span style=&quot;font-family: &amp;#34;jetbrains mono&amp;#34; , monospace ; color: rgb(226 , 165 , 238)&quot;&gt;ListView&lt;/span&gt;&lt;span style=&quot;font-family: &amp;#34;jetbrains mono&amp;#34; , monospace ; color: rgb(152 , 118 , 170) ; font-style: italic&quot;&gt;&amp;lt;&lt;/span&gt;&lt;span style=&quot;font-family: &amp;#34;jetbrains mono&amp;#34; , monospace ; color: rgb(226 , 165 , 238)&quot;&gt;Dom_EventCard&lt;/span&gt;&lt;span style=&quot;font-family: &amp;#34;jetbrains mono&amp;#34; , monospace ; color: rgb(152 , 118 , 170) ; font-style: italic&quot;&gt;&amp;gt; &lt;/span&gt;&lt;span style=&quot;font-family: &amp;#34;jetbrains mono&amp;#34; , monospace ; color: rgb(152 , 118 , 170)&quot;&gt;lv_EventList&lt;/span&gt;&lt;/p&gt;&lt;p style=&quot;margin: 0px 0px 0px 4px&quot;&gt;-&lt;span style=&quot;font-family: &amp;#34;jetbrains mono&amp;#34; , monospace ; color: rgb(226 , 165 , 238)&quot;&gt;GUI_EventCard &lt;/span&gt;&lt;span style=&quot;font-family: &amp;#34;jetbrains mono&amp;#34; , monospace ; color: rgb(152 , 118 , 170)&quot;&gt;gui_eventCard&lt;/span&gt;&lt;/p&gt;&lt;p style=&quot;margin: 0px 0px 0px 4px&quot;&gt;-&lt;span style=&quot;font-family: &amp;#34;jetbrains mono&amp;#34; , monospace ; color: rgb(226 , 165 , 238)&quot;&gt;GUI_View &lt;/span&gt;&lt;span style=&quot;font-family: &amp;#34;jetbrains mono&amp;#34; , monospace ; color: rgb(152 , 118 , 170)&quot;&gt;gui_view&lt;/span&gt;&lt;/p&gt;&lt;p style=&quot;margin: 0px 0px 0px 4px&quot;&gt;-&lt;span style=&quot;font-family: &amp;#34;jetbrains mono&amp;#34; , monospace ; color: rgb(226 , 165 , 238)&quot;&gt;GUI_EventMap &lt;/span&gt;&lt;span style=&quot;font-family: &amp;#34;jetbrains mono&amp;#34; , monospace ; color: rgb(152 , 118 , 170)&quot;&gt;gui_eventMap&lt;/span&gt;&lt;/p&gt;&lt;p style=&quot;margin: 0px 0px 0px 4px&quot;&gt;&lt;br&gt;&lt;/p&gt;&lt;hr size=&quot;1&quot;&gt;&lt;p style=&quot;margin: 0px 0px 0px 4px&quot;&gt;+&amp;nbsp;&lt;span style=&quot;font-family: &amp;#34;jetbrains mono&amp;#34; , monospace ; color: rgb(255 , 198 , 109)&quot;&gt;getEventList&lt;/span&gt;&lt;span style=&quot;font-family: &amp;#34;jetbrains mono&amp;#34; , monospace ; color: rgb(152 , 118 , 170) ; font-style: italic&quot;&gt;():&lt;/span&gt;&lt;span style=&quot;font-family: &amp;#34;jetbrains mono&amp;#34; , monospace ; color: rgb(45 , 185 , 255)&quot;&gt;ObservableList&lt;/span&gt;&lt;span style=&quot;font-family: &amp;#34;jetbrains mono&amp;#34; , monospace ; color: rgb(152 , 118 , 170) ; font-style: italic&quot;&gt;&amp;lt;&lt;/span&gt;&lt;span style=&quot;font-family: &amp;#34;jetbrains mono&amp;#34; , monospace ; color: rgb(226 , 165 , 238)&quot;&gt;Dom_EventCard&lt;/span&gt;&lt;span style=&quot;font-family: &amp;#34;jetbrains mono&amp;#34; , monospace ; color: rgb(152 , 118 , 170) ; font-style: italic&quot;&gt;&amp;gt;&lt;/span&gt;&lt;/p&gt;" style="verticalAlign=top;align=left;overflow=fill;fontSize=12;fontFamily=Helvetica;html=1;" parent="Kso5zGYbWB-w1iWD5ysr-1" vertex="1"><mxGeometry x="-319" y="-1575" width="373" height="160" as="geometry"/></mxCell><mxCell id="-nePuBV1-fCkCJkDhjea-10" value="&lt;pre style=&quot;text-align: center ; background-color: rgb(43 , 43 , 43) ; color: rgb(159 , 199 , 236) ; font-family: &amp;#34;jetbrains mono&amp;#34; , monospace&quot;&gt;&lt;pre style=&quot;font-family: &amp;#34;jetbrains mono&amp;#34; , monospace&quot;&gt;&lt;pre style=&quot;font-family: &amp;#34;jetbrains mono&amp;#34; , monospace&quot;&gt;&lt;pre style=&quot;font-family: &amp;#34;jetbrains mono&amp;#34; , monospace&quot;&gt;&lt;pre style=&quot;font-family: &amp;#34;jetbrains mono&amp;#34; , monospace&quot;&gt;&lt;pre style=&quot;font-family: &amp;#34;jetbrains mono&amp;#34; , monospace&quot;&gt;&lt;span style=&quot;color: #e2a5ee&quot;&gt;App_Converter_EventList&lt;/span&gt;&lt;/pre&gt;&lt;/pre&gt;&lt;/pre&gt;&lt;/pre&gt;&lt;/pre&gt;&lt;/pre&gt;&lt;hr size=&quot;1&quot;&gt;&lt;p style=&quot;margin: 0px 0px 0px 4px&quot;&gt;-&amp;nbsp;&lt;span style=&quot;font-family: &amp;#34;jetbrains mono&amp;#34; , monospace ; color: rgb(226 , 165 , 238)&quot;&gt;ListView&lt;/span&gt;&lt;span style=&quot;font-family: &amp;#34;jetbrains mono&amp;#34; , monospace ; color: rgb(152 , 118 , 170) ; font-style: italic&quot;&gt;&amp;lt;&lt;/span&gt;&lt;span style=&quot;font-family: &amp;#34;jetbrains mono&amp;#34; , monospace ; color: rgb(226 , 165 , 238)&quot;&gt;Dom_EventCard&lt;/span&gt;&lt;span style=&quot;font-family: &amp;#34;jetbrains mono&amp;#34; , monospace ; color: rgb(152 , 118 , 170) ; font-style: italic&quot;&gt;&amp;gt; &lt;/span&gt;&lt;span style=&quot;font-family: &amp;#34;jetbrains mono&amp;#34; , monospace ; color: rgb(152 , 118 , 170)&quot;&gt;lv_EventList&lt;/span&gt;&lt;/p&gt;&lt;hr size=&quot;1&quot;&gt;&lt;p style=&quot;margin: 0px 0px 0px 4px&quot;&gt;&lt;br&gt;&lt;/p&gt;" style="verticalAlign=top;align=left;overflow=fill;fontSize=12;fontFamily=Helvetica;html=1;" parent="Kso5zGYbWB-w1iWD5ysr-1" vertex="1"><mxGeometry x="-319" y="-1343" width="373" height="91" as="geometry"/></mxCell><mxCell id="-nePuBV1-fCkCJkDhjea-11" value="&lt;pre style=&quot;text-align: center ; background-color: rgb(43 , 43 , 43) ; color: rgb(159 , 199 , 236) ; font-family: &amp;#34;jetbrains mono&amp;#34; , monospace&quot;&gt;&lt;pre style=&quot;font-family: &amp;#34;jetbrains mono&amp;#34; , monospace&quot;&gt;&lt;pre style=&quot;font-family: &amp;#34;jetbrains mono&amp;#34; , monospace&quot;&gt;&lt;pre style=&quot;font-family: &amp;#34;jetbrains mono&amp;#34; , monospace&quot;&gt;&lt;pre style=&quot;font-family: &amp;#34;jetbrains mono&amp;#34; , monospace&quot;&gt;&lt;pre style=&quot;font-family: &amp;#34;jetbrains mono&amp;#34; , monospace&quot;&gt;&lt;pre style=&quot;font-family: &amp;#34;jetbrains mono&amp;#34; , monospace&quot;&gt;&lt;span style=&quot;color: #e2a5ee&quot;&gt;App_Opr_ModifyText&lt;/span&gt;&lt;/pre&gt;&lt;/pre&gt;&lt;/pre&gt;&lt;/pre&gt;&lt;/pre&gt;&lt;/pre&gt;&lt;/pre&gt;&lt;hr size=&quot;1&quot;&gt;&lt;p style=&quot;margin: 0px 0px 0px 4px&quot;&gt;-&amp;nbsp;&lt;span style=&quot;font-family: &amp;#34;jetbrains mono&amp;#34; , monospace ; color: rgb(226 , 165 , 238)&quot;&gt;ListView&lt;/span&gt;&lt;span style=&quot;font-family: &amp;#34;jetbrains mono&amp;#34; , monospace ; color: rgb(152 , 118 , 170) ; font-style: italic&quot;&gt;&amp;lt;&lt;/span&gt;&lt;span style=&quot;font-family: &amp;#34;jetbrains mono&amp;#34; , monospace ; color: rgb(226 , 165 , 238)&quot;&gt;Dom_EventCard&lt;/span&gt;&lt;span style=&quot;font-family: &amp;#34;jetbrains mono&amp;#34; , monospace ; color: rgb(152 , 118 , 170) ; font-style: italic&quot;&gt;&amp;gt; &lt;/span&gt;&lt;span style=&quot;font-family: &amp;#34;jetbrains mono&amp;#34; , monospace ; color: rgb(226 , 165 , 238) ; font-style: italic&quot;&gt;lv_EventList&lt;/span&gt;&lt;/p&gt;&lt;hr size=&quot;1&quot;&gt;&lt;p style=&quot;margin: 0px 0px 0px 4px&quot;&gt;&lt;br&gt;&lt;/p&gt;" style="verticalAlign=top;align=left;overflow=fill;fontSize=12;fontFamily=Helvetica;html=1;" parent="Kso5zGYbWB-w1iWD5ysr-1" vertex="1"><mxGeometry x="-321" y="-1841" width="373" height="91" as="geometry"/></mxCell><mxCell id="-nePuBV1-fCkCJkDhjea-12" value="&lt;pre style=&quot;text-align: center ; background-color: rgb(43 , 43 , 43) ; font-family: &amp;#34;jetbrains mono&amp;#34; , monospace ; color: rgb(159 , 199 , 236)&quot;&gt;&lt;pre style=&quot;font-family: &amp;#34;jetbrains mono&amp;#34; , monospace&quot;&gt;&lt;pre style=&quot;font-family: &amp;#34;jetbrains mono&amp;#34; , monospace&quot;&gt;&lt;pre style=&quot;font-family: &amp;#34;jetbrains mono&amp;#34; , monospace&quot;&gt;&lt;pre style=&quot;font-family: &amp;#34;jetbrains mono&amp;#34; , monospace&quot;&gt;&lt;pre style=&quot;font-family: &amp;#34;jetbrains mono&amp;#34; , monospace&quot;&gt;&lt;pre style=&quot;font-family: &amp;#34;jetbrains mono&amp;#34; , monospace&quot;&gt;&lt;pre style=&quot;font-family: &amp;#34;jetbrains mono&amp;#34; , monospace&quot;&gt;&lt;span style=&quot;color: #e2a5ee&quot;&gt;App_Opr_DeleteEventCard&lt;/span&gt;&lt;/pre&gt;&lt;/pre&gt;&lt;/pre&gt;&lt;/pre&gt;&lt;/pre&gt;&lt;/pre&gt;&lt;/pre&gt;&lt;/pre&gt;&lt;hr size=&quot;1&quot;&gt;&lt;p style=&quot;margin: 0px 0px 0px 4px&quot;&gt;-&amp;nbsp;&lt;span style=&quot;font-family: &amp;#34;jetbrains mono&amp;#34; , monospace ; color: rgb(226 , 165 , 238)&quot;&gt;ListView&lt;/span&gt;&lt;span style=&quot;font-family: &amp;#34;jetbrains mono&amp;#34; , monospace ; color: rgb(152 , 118 , 170) ; font-style: italic&quot;&gt;&amp;lt;&lt;/span&gt;&lt;span style=&quot;font-family: &amp;#34;jetbrains mono&amp;#34; , monospace ; color: rgb(226 , 165 , 238)&quot;&gt;Dom_EventCard&lt;/span&gt;&lt;span style=&quot;font-family: &amp;#34;jetbrains mono&amp;#34; , monospace ; color: rgb(152 , 118 , 170) ; font-style: italic&quot;&gt;&amp;gt; &lt;/span&gt;&lt;span style=&quot;font-family: &amp;#34;jetbrains mono&amp;#34; , monospace ; color: rgb(152 , 118 , 170)&quot;&gt;lv_EventList&lt;/span&gt;&lt;/p&gt;&lt;hr size=&quot;1&quot;&gt;&lt;p style=&quot;margin: 0px 0px 0px 4px&quot;&gt;&lt;br&gt;&lt;/p&gt;" style="verticalAlign=top;align=left;overflow=fill;fontSize=12;fontFamily=Helvetica;html=1;" parent="Kso5zGYbWB-w1iWD5ysr-1" vertex="1"><mxGeometry x="791" y="-545" width="373" height="91" as="geometry"/></mxCell><mxCell id="-nePuBV1-fCkCJkDhjea-13" value="&lt;pre style=&quot;text-align: center ; background-color: rgb(43 , 43 , 43) ; font-family: &amp;#34;jetbrains mono&amp;#34; , monospace ; color: rgb(159 , 199 , 236)&quot;&gt;&lt;pre style=&quot;font-family: &amp;#34;jetbrains mono&amp;#34; , monospace&quot;&gt;&lt;pre style=&quot;font-family: &amp;#34;jetbrains mono&amp;#34; , monospace&quot;&gt;&lt;pre style=&quot;font-family: &amp;#34;jetbrains mono&amp;#34; , monospace&quot;&gt;&lt;pre style=&quot;font-family: &amp;#34;jetbrains mono&amp;#34; , monospace&quot;&gt;&lt;pre style=&quot;font-family: &amp;#34;jetbrains mono&amp;#34; , monospace&quot;&gt;&lt;pre style=&quot;font-family: &amp;#34;jetbrains mono&amp;#34; , monospace&quot;&gt;&lt;pre style=&quot;font-family: &amp;#34;jetbrains mono&amp;#34; , monospace&quot;&gt;&lt;pre style=&quot;font-family: &amp;#34;jetbrains mono&amp;#34; , monospace&quot;&gt;&lt;span style=&quot;color: #e2a5ee&quot;&gt;App_Opr_CreateNewEventCard&lt;/span&gt;&lt;/pre&gt;&lt;/pre&gt;&lt;/pre&gt;&lt;/pre&gt;&lt;/pre&gt;&lt;/pre&gt;&lt;/pre&gt;&lt;/pre&gt;&lt;/pre&gt;&lt;hr size=&quot;1&quot;&gt;&lt;p style=&quot;margin: 0px 0px 0px 4px&quot;&gt;-&amp;nbsp;&lt;span style=&quot;font-family: &amp;#34;jetbrains mono&amp;#34; , monospace ; color: rgb(226 , 165 , 238)&quot;&gt;ListView&lt;/span&gt;&lt;span style=&quot;font-family: &amp;#34;jetbrains mono&amp;#34; , monospace ; color: rgb(152 , 118 , 170) ; font-style: italic&quot;&gt;&amp;lt;&lt;/span&gt;&lt;span style=&quot;font-family: &amp;#34;jetbrains mono&amp;#34; , monospace ; color: rgb(226 , 165 , 238)&quot;&gt;Dom_EventCard&lt;/span&gt;&lt;span style=&quot;font-family: &amp;#34;jetbrains mono&amp;#34; , monospace ; color: rgb(152 , 118 , 170) ; font-style: italic&quot;&gt;&amp;gt; &lt;/span&gt;&lt;span style=&quot;font-family: &amp;#34;jetbrains mono&amp;#34; , monospace ; color: rgb(152 , 118 , 170)&quot;&gt;lv_EventList&lt;/span&gt;&lt;/p&gt;&lt;hr size=&quot;1&quot;&gt;&lt;p style=&quot;margin: 0px 0px 0px 4px&quot;&gt;&lt;br&gt;&lt;/p&gt;" style="verticalAlign=top;align=left;overflow=fill;fontSize=12;fontFamily=Helvetica;html=1;" parent="Kso5zGYbWB-w1iWD5ysr-1" vertex="1"><mxGeometry x="793" y="-721" width="373" height="91" as="geometry"/></mxCell><mxCell id="-nePuBV1-fCkCJkDhjea-14" value="&lt;pre style=&quot;text-align: center ; background-color: rgb(43 , 43 , 43) ; font-family: &amp;#34;jetbrains mono&amp;#34; , monospace ; color: rgb(159 , 199 , 236)&quot;&gt;&lt;pre style=&quot;font-family: &amp;#34;jetbrains mono&amp;#34; , monospace&quot;&gt;&lt;pre style=&quot;font-family: &amp;#34;jetbrains mono&amp;#34; , monospace&quot;&gt;&lt;pre style=&quot;font-family: &amp;#34;jetbrains mono&amp;#34; , monospace&quot;&gt;&lt;pre style=&quot;font-family: &amp;#34;jetbrains mono&amp;#34; , monospace&quot;&gt;&lt;pre style=&quot;font-family: &amp;#34;jetbrains mono&amp;#34; , monospace&quot;&gt;&lt;pre style=&quot;font-family: &amp;#34;jetbrains mono&amp;#34; , monospace&quot;&gt;&lt;pre style=&quot;font-family: &amp;#34;jetbrains mono&amp;#34; , monospace&quot;&gt;&lt;pre style=&quot;font-family: &amp;#34;jetbrains mono&amp;#34; , monospace&quot;&gt;&lt;pre style=&quot;font-family: &amp;#34;jetbrains mono&amp;#34; , monospace&quot;&gt;&lt;span style=&quot;color: #e2a5ee&quot;&gt;Con_Editable_DoubleClick&lt;/span&gt;&lt;/pre&gt;&lt;/pre&gt;&lt;/pre&gt;&lt;/pre&gt;&lt;/pre&gt;&lt;/pre&gt;&lt;/pre&gt;&lt;/pre&gt;&lt;/pre&gt;&lt;/pre&gt;&lt;hr size=&quot;1&quot;&gt;&lt;p style=&quot;margin: 0px 0px 0px 4px&quot;&gt;&lt;br&gt;&lt;/p&gt;&lt;hr size=&quot;1&quot;&gt;&lt;p style=&quot;margin: 0px 0px 0px 4px&quot;&gt;&lt;br&gt;&lt;/p&gt;" style="verticalAlign=top;align=left;overflow=fill;fontSize=12;fontFamily=Helvetica;html=1;" parent="Kso5zGYbWB-w1iWD5ysr-1" vertex="1"><mxGeometry x="795" y="-931" width="373" height="91" as="geometry"/></mxCell><mxCell id="-nePuBV1-fCkCJkDhjea-16" value="&lt;pre style=&quot;text-align: center ; background-color: rgb(43 , 43 , 43) ; color: rgb(159 , 199 , 236) ; font-family: &amp;#34;jetbrains mono&amp;#34; , monospace&quot;&gt;&lt;pre style=&quot;font-family: &amp;#34;jetbrains mono&amp;#34; , monospace&quot;&gt;&lt;pre style=&quot;font-family: &amp;#34;jetbrains mono&amp;#34; , monospace&quot;&gt;&lt;pre style=&quot;font-family: &amp;#34;jetbrains mono&amp;#34; , monospace&quot;&gt;&lt;pre style=&quot;font-family: &amp;#34;jetbrains mono&amp;#34; , monospace&quot;&gt;&lt;pre style=&quot;font-family: &amp;#34;jetbrains mono&amp;#34; , monospace&quot;&gt;&lt;pre style=&quot;font-family: &amp;#34;jetbrains mono&amp;#34; , monospace&quot;&gt;&lt;span style=&quot;color: #e2a5ee&quot;&gt;Con_Edit_InputLimit&lt;/span&gt;&lt;/pre&gt;&lt;/pre&gt;&lt;/pre&gt;&lt;/pre&gt;&lt;/pre&gt;&lt;/pre&gt;&lt;/pre&gt;&lt;hr size=&quot;1&quot;&gt;&lt;p style=&quot;margin: 0px 0px 0px 4px&quot;&gt;-&amp;nbsp;&lt;span style=&quot;font-family: &amp;#34;jetbrains mono&amp;#34; , monospace ; color: rgb(204 , 120 , 50)&quot;&gt;int &lt;/span&gt;&lt;span style=&quot;font-family: &amp;#34;jetbrains mono&amp;#34; , monospace ; color: rgb(152 , 118 , 170)&quot;&gt;inputLimit&lt;/span&gt;&lt;/p&gt;&lt;p style=&quot;margin: 0px 0px 0px 4px&quot;&gt;-&amp;nbsp;&lt;span style=&quot;font-family: &amp;#34;jetbrains mono&amp;#34; , monospace ; color: rgb(226 , 165 , 238)&quot;&gt;TextInputControl &lt;/span&gt;&lt;span style=&quot;font-family: &amp;#34;jetbrains mono&amp;#34; , monospace ; color: rgb(152 , 118 , 170)&quot;&gt;textInputControl&lt;/span&gt;&lt;/p&gt;&lt;p style=&quot;margin: 0px 0px 0px 4px&quot;&gt;&lt;br&gt;&lt;/p&gt;&lt;hr size=&quot;1&quot;&gt;&lt;p style=&quot;margin: 0px 0px 0px 4px&quot;&gt;&lt;br&gt;&lt;/p&gt;" style="verticalAlign=top;align=left;overflow=fill;fontSize=12;fontFamily=Helvetica;html=1;" parent="Kso5zGYbWB-w1iWD5ysr-1" vertex="1"><mxGeometry x="637" y="-1850" width="373" height="119" as="geometry"/></mxCell><mxCell id="-nePuBV1-fCkCJkDhjea-17" value="&lt;pre style=&quot;text-align: center ; background-color: rgb(43 , 43 , 43) ; font-family: &amp;#34;jetbrains mono&amp;#34; , monospace ; color: rgb(159 , 199 , 236)&quot;&gt;&lt;pre style=&quot;font-family: &amp;#34;jetbrains mono&amp;#34; , monospace&quot;&gt;&lt;pre style=&quot;font-family: &amp;#34;jetbrains mono&amp;#34; , monospace&quot;&gt;&lt;pre style=&quot;font-family: &amp;#34;jetbrains mono&amp;#34; , monospace&quot;&gt;&lt;pre style=&quot;font-family: &amp;#34;jetbrains mono&amp;#34; , monospace&quot;&gt;&lt;pre style=&quot;font-family: &amp;#34;jetbrains mono&amp;#34; , monospace&quot;&gt;&lt;pre style=&quot;font-family: &amp;#34;jetbrains mono&amp;#34; , monospace&quot;&gt;&lt;pre style=&quot;font-family: &amp;#34;jetbrains mono&amp;#34; , monospace&quot;&gt;&lt;pre style=&quot;font-family: &amp;#34;jetbrains mono&amp;#34; , monospace&quot;&gt;&lt;pre style=&quot;font-family: &amp;#34;jetbrains mono&amp;#34; , monospace&quot;&gt;&lt;pre style=&quot;font-family: &amp;#34;jetbrains mono&amp;#34; , monospace&quot;&gt;&lt;span style=&quot;color: #e2a5ee&quot;&gt;Con_Edit_Input&lt;/span&gt;&lt;/pre&gt;&lt;/pre&gt;&lt;/pre&gt;&lt;/pre&gt;&lt;/pre&gt;&lt;/pre&gt;&lt;/pre&gt;&lt;/pre&gt;&lt;/pre&gt;&lt;/pre&gt;&lt;/pre&gt;&lt;hr size=&quot;1&quot;&gt;&lt;p style=&quot;margin: 0px 0px 0px 4px&quot;&gt;&lt;br&gt;&lt;/p&gt;&lt;hr size=&quot;1&quot;&gt;&lt;p style=&quot;margin: 0px 0px 0px 4px&quot;&gt;&lt;br&gt;&lt;/p&gt;" style="verticalAlign=top;align=left;overflow=fill;fontSize=12;fontFamily=Helvetica;html=1;" parent="Kso5zGYbWB-w1iWD5ysr-1" vertex="1"><mxGeometry x="637" y="-1515" width="373" height="91" as="geometry"/></mxCell><mxCell id="-nePuBV1-fCkCJkDhjea-18" value="&lt;pre style=&quot;text-align: center ; background-color: rgb(43 , 43 , 43) ; font-family: &amp;#34;jetbrains mono&amp;#34; , monospace ; color: rgb(159 , 199 , 236)&quot;&gt;&lt;pre style=&quot;font-family: &amp;#34;jetbrains mono&amp;#34; , monospace&quot;&gt;&lt;pre style=&quot;font-family: &amp;#34;jetbrains mono&amp;#34; , monospace&quot;&gt;&lt;pre style=&quot;font-family: &amp;#34;jetbrains mono&amp;#34; , monospace&quot;&gt;&lt;pre style=&quot;font-family: &amp;#34;jetbrains mono&amp;#34; , monospace&quot;&gt;&lt;pre style=&quot;font-family: &amp;#34;jetbrains mono&amp;#34; , monospace&quot;&gt;&lt;pre style=&quot;font-family: &amp;#34;jetbrains mono&amp;#34; , monospace&quot;&gt;&lt;pre style=&quot;font-family: &amp;#34;jetbrains mono&amp;#34; , monospace&quot;&gt;&lt;pre style=&quot;font-family: &amp;#34;jetbrains mono&amp;#34; , monospace&quot;&gt;&lt;pre style=&quot;font-family: &amp;#34;jetbrains mono&amp;#34; , monospace&quot;&gt;&lt;pre style=&quot;font-family: &amp;#34;jetbrains mono&amp;#34; , monospace&quot;&gt;&lt;pre style=&quot;font-family: &amp;#34;jetbrains mono&amp;#34; , monospace&quot;&gt;&lt;span style=&quot;color: #e2a5ee&quot;&gt;App_Dra_EventMapDragOver&lt;/span&gt;&lt;/pre&gt;&lt;/pre&gt;&lt;/pre&gt;&lt;/pre&gt;&lt;/pre&gt;&lt;/pre&gt;&lt;/pre&gt;&lt;/pre&gt;&lt;/pre&gt;&lt;/pre&gt;&lt;/pre&gt;&lt;/pre&gt;&lt;hr size=&quot;1&quot;&gt;&lt;p style=&quot;margin: 0px 0px 0px 4px&quot;&gt;&lt;br&gt;&lt;/p&gt;&lt;hr size=&quot;1&quot;&gt;&lt;p style=&quot;margin: 0px 0px 0px 4px&quot;&gt;&lt;br&gt;&lt;/p&gt;" style="verticalAlign=top;align=left;overflow=fill;fontSize=12;fontFamily=Helvetica;html=1;" parent="Kso5zGYbWB-w1iWD5ysr-1" vertex="1"><mxGeometry x="784" y="85.5" width="373" height="91" as="geometry"/></mxCell><mxCell id="-nePuBV1-fCkCJkDhjea-19" value="&lt;pre style=&quot;text-align: center ; background-color: rgb(43 , 43 , 43) ; color: rgb(159 , 199 , 236) ; font-family: &amp;#34;jetbrains mono&amp;#34; , monospace&quot;&gt;&lt;pre style=&quot;font-family: &amp;#34;jetbrains mono&amp;#34; , monospace&quot;&gt;&lt;pre style=&quot;font-family: &amp;#34;jetbrains mono&amp;#34; , monospace&quot;&gt;&lt;pre style=&quot;font-family: &amp;#34;jetbrains mono&amp;#34; , monospace&quot;&gt;&lt;pre style=&quot;font-family: &amp;#34;jetbrains mono&amp;#34; , monospace&quot;&gt;&lt;pre style=&quot;font-family: &amp;#34;jetbrains mono&amp;#34; , monospace&quot;&gt;&lt;pre style=&quot;font-family: &amp;#34;jetbrains mono&amp;#34; , monospace&quot;&gt;&lt;pre style=&quot;font-family: &amp;#34;jetbrains mono&amp;#34; , monospace&quot;&gt;&lt;span style=&quot;color: #e2a5ee&quot;&gt;App_Dra_EventMapDragDropped&lt;/span&gt;&lt;/pre&gt;&lt;/pre&gt;&lt;/pre&gt;&lt;/pre&gt;&lt;/pre&gt;&lt;/pre&gt;&lt;/pre&gt;&lt;/pre&gt;&lt;hr size=&quot;1&quot;&gt;&lt;p style=&quot;margin: 0px 0px 0px 4px&quot;&gt;-&amp;nbsp;&lt;span style=&quot;font-family: &amp;#34;jetbrains mono&amp;#34; , monospace ; color: rgb(226 , 165 , 238)&quot;&gt;ListView&lt;/span&gt;&lt;span style=&quot;font-family: &amp;#34;jetbrains mono&amp;#34; , monospace ; color: rgb(152 , 118 , 170) ; font-style: italic&quot;&gt;&amp;lt;&lt;/span&gt;&lt;span style=&quot;font-family: &amp;#34;jetbrains mono&amp;#34; , monospace ; color: rgb(226 , 165 , 238)&quot;&gt;Dom_EventCard&lt;/span&gt;&lt;span style=&quot;font-family: &amp;#34;jetbrains mono&amp;#34; , monospace ; color: rgb(152 , 118 , 170) ; font-style: italic&quot;&gt;&amp;gt; &lt;/span&gt;&lt;span style=&quot;font-family: &amp;#34;jetbrains mono&amp;#34; , monospace ; color: rgb(152 , 118 , 170)&quot;&gt;lv_EventList&lt;/span&gt;&lt;/p&gt;&lt;p style=&quot;margin: 0px 0px 0px 4px&quot;&gt;-&amp;nbsp;&lt;span style=&quot;font-family: &amp;#34;jetbrains mono&amp;#34; , monospace ; color: rgb(226 , 165 , 238)&quot;&gt;GUI_EventMap &lt;/span&gt;&lt;span style=&quot;font-family: &amp;#34;jetbrains mono&amp;#34; , monospace ; color: rgb(152 , 118 , 170)&quot;&gt;gui_eventMap&lt;/span&gt;&lt;/p&gt;&lt;p style=&quot;margin: 0px 0px 0px 4px&quot;&gt;&lt;br&gt;&lt;/p&gt;&lt;hr size=&quot;1&quot;&gt;&lt;p style=&quot;margin: 0px 0px 0px 4px&quot;&gt;&lt;br&gt;&lt;/p&gt;" style="verticalAlign=top;align=left;overflow=fill;fontSize=12;fontFamily=Helvetica;html=1;" parent="Kso5zGYbWB-w1iWD5ysr-1" vertex="1"><mxGeometry x="784" y="-102.5" width="373" height="119" as="geometry"/></mxCell><mxCell id="-nePuBV1-fCkCJkDhjea-20" value="&lt;pre style=&quot;text-align: center ; background-color: rgb(43 , 43 , 43) ; color: rgb(159 , 199 , 236) ; font-family: &amp;#34;jetbrains mono&amp;#34; , monospace&quot;&gt;&lt;pre style=&quot;font-family: &amp;#34;jetbrains mono&amp;#34; , monospace&quot;&gt;&lt;pre style=&quot;font-family: &amp;#34;jetbrains mono&amp;#34; , monospace&quot;&gt;&lt;pre style=&quot;font-family: &amp;#34;jetbrains mono&amp;#34; , monospace&quot;&gt;&lt;pre style=&quot;font-family: &amp;#34;jetbrains mono&amp;#34; , monospace&quot;&gt;&lt;pre style=&quot;font-family: &amp;#34;jetbrains mono&amp;#34; , monospace&quot;&gt;&lt;pre style=&quot;font-family: &amp;#34;jetbrains mono&amp;#34; , monospace&quot;&gt;&lt;pre style=&quot;font-family: &amp;#34;jetbrains mono&amp;#34; , monospace&quot;&gt;&lt;span style=&quot;color: #e2a5ee&quot;&gt;App_Dra_EventListDragDetected&lt;/span&gt;&lt;/pre&gt;&lt;/pre&gt;&lt;/pre&gt;&lt;/pre&gt;&lt;/pre&gt;&lt;/pre&gt;&lt;/pre&gt;&lt;/pre&gt;&lt;hr size=&quot;1&quot;&gt;&lt;p style=&quot;margin: 0px 0px 0px 4px&quot;&gt;-&amp;nbsp;&lt;span style=&quot;font-family: &amp;#34;jetbrains mono&amp;#34; , monospace ; color: rgb(226 , 165 , 238)&quot;&gt;AnchorPane &lt;/span&gt;&lt;span style=&quot;font-family: &amp;#34;jetbrains mono&amp;#34; , monospace ; color: rgb(152 , 118 , 170)&quot;&gt;anP_EventMap&lt;/span&gt;&lt;/p&gt;&lt;p style=&quot;margin: 0px 0px 0px 4px&quot;&gt;-&amp;nbsp;&lt;span style=&quot;font-family: &amp;#34;jetbrains mono&amp;#34; , monospace ; color: rgb(226 , 165 , 238)&quot;&gt;ListView&lt;/span&gt;&lt;span style=&quot;font-family: &amp;#34;jetbrains mono&amp;#34; , monospace ; color: rgb(152 , 118 , 170) ; font-style: italic&quot;&gt;&amp;lt;&lt;/span&gt;&lt;span style=&quot;font-family: &amp;#34;jetbrains mono&amp;#34; , monospace ; color: rgb(226 , 165 , 238)&quot;&gt;Dom_EventCard&lt;/span&gt;&lt;span style=&quot;font-family: &amp;#34;jetbrains mono&amp;#34; , monospace ; color: rgb(152 , 118 , 170) ; font-style: italic&quot;&gt;&amp;gt; &lt;/span&gt;&lt;span style=&quot;font-family: &amp;#34;jetbrains mono&amp;#34; , monospace ; color: rgb(152 , 118 , 170)&quot;&gt;lv_EventList&lt;/span&gt;&lt;/p&gt;&lt;p style=&quot;margin: 0px 0px 0px 4px&quot;&gt;&lt;br&gt;&lt;/p&gt;&lt;hr size=&quot;1&quot;&gt;&lt;p style=&quot;margin: 0px 0px 0px 4px&quot;&gt;&lt;br&gt;&lt;/p&gt;" style="verticalAlign=top;align=left;overflow=fill;fontSize=12;fontFamily=Helvetica;html=1;" parent="Kso5zGYbWB-w1iWD5ysr-1" vertex="1"><mxGeometry x="784" y="-283.5" width="373" height="119" as="geometry"/></mxCell><mxCell id="-nePuBV1-fCkCJkDhjea-22" value="«interface»&lt;br&gt;&lt;pre style=&quot;background-color: #2b2b2b ; color: #9fc7ec ; font-family: &amp;#34;jetbrains mono&amp;#34; , monospace ; font-size: 10 5pt&quot;&gt;&lt;span style=&quot;color: #2db9ff&quot;&gt;EventHandler&lt;/span&gt;&lt;/pre&gt;" style="html=1;" parent="Kso5zGYbWB-w1iWD5ysr-1" vertex="1"><mxGeometry x="207" y="-404" width="233" height="50" as="geometry"/></mxCell><mxCell id="-nePuBV1-fCkCJkDhjea-23" value="" style="endArrow=block;dashed=1;endFill=0;endSize=12;html=1;exitX=1;exitY=0.5;exitDx=0;exitDy=0;" parent="Kso5zGYbWB-w1iWD5ysr-1" source="-nePuBV1-fCkCJkDhjea-0" target="-nePuBV1-fCkCJkDhjea-22" edge="1"><mxGeometry width="160" relative="1" as="geometry"><mxPoint x="441" y="-752" as="sourcePoint"/><mxPoint x="215.81034482758605" y="-933" as="targetPoint"/></mxGeometry></mxCell><mxCell id="-nePuBV1-fCkCJkDhjea-24" value="" style="endArrow=block;dashed=1;endFill=0;endSize=12;html=1;exitX=1;exitY=0.5;exitDx=0;exitDy=0;" parent="Kso5zGYbWB-w1iWD5ysr-1" source="-nePuBV1-fCkCJkDhjea-1" target="-nePuBV1-fCkCJkDhjea-22" edge="1"><mxGeometry width="160" relative="1" as="geometry"><mxPoint x="540" y="-133" as="sourcePoint"/><mxPoint x="688.1328502415458" y="-241" as="targetPoint"/></mxGeometry></mxCell><mxCell id="-nePuBV1-fCkCJkDhjea-25" value="" style="endArrow=block;dashed=1;endFill=0;endSize=12;html=1;exitX=1;exitY=0.5;exitDx=0;exitDy=0;" parent="Kso5zGYbWB-w1iWD5ysr-1" source="-nePuBV1-fCkCJkDhjea-2" target="-nePuBV1-fCkCJkDhjea-22" edge="1"><mxGeometry width="160" relative="1" as="geometry"><mxPoint x="115" y="-85.31831742243435" as="sourcePoint"/><mxPoint x="701.3426966292136" y="-241" as="targetPoint"/><Array as="points"/></mxGeometry></mxCell><mxCell id="-nePuBV1-fCkCJkDhjea-26" value="" style="endArrow=block;dashed=1;endFill=0;endSize=12;html=1;exitX=1;exitY=0.5;exitDx=0;exitDy=0;" parent="Kso5zGYbWB-w1iWD5ysr-1" source="-nePuBV1-fCkCJkDhjea-3" target="-nePuBV1-fCkCJkDhjea-22" edge="1"><mxGeometry width="160" relative="1" as="geometry"><mxPoint x="42.4297365119196" y="41" as="sourcePoint"/><mxPoint x="454" y="-278" as="targetPoint"/></mxGeometry></mxCell><mxCell id="-nePuBV1-fCkCJkDhjea-27" value="" style="endArrow=block;dashed=1;endFill=0;endSize=12;html=1;exitX=1;exitY=0.5;exitDx=0;exitDy=0;" parent="Kso5zGYbWB-w1iWD5ysr-1" source="-nePuBV1-fCkCJkDhjea-4" target="-nePuBV1-fCkCJkDhjea-22" edge="1"><mxGeometry width="160" relative="1" as="geometry"><mxPoint x="115" y="238.50000000000023" as="sourcePoint"/><mxPoint x="462" y="-278" as="targetPoint"/></mxGeometry></mxCell><mxCell id="-nePuBV1-fCkCJkDhjea-29" value="" style="endArrow=block;dashed=1;endFill=0;endSize=12;html=1;exitX=1;exitY=0.5;exitDx=0;exitDy=0;" parent="Kso5zGYbWB-w1iWD5ysr-1" source="-nePuBV1-fCkCJkDhjea-6" target="-nePuBV1-fCkCJkDhjea-22" edge="1"><mxGeometry width="160" relative="1" as="geometry"><mxPoint x="115" y="395" as="sourcePoint"/><mxPoint x="472" y="-268" as="targetPoint"/></mxGeometry></mxCell><mxCell id="-nePuBV1-fCkCJkDhjea-30" value="" style="endArrow=block;dashed=1;endFill=0;endSize=12;html=1;exitX=1;exitY=0.25;exitDx=0;exitDy=0;" parent="Kso5zGYbWB-w1iWD5ysr-1" source="-nePuBV1-fCkCJkDhjea-7" target="-nePuBV1-fCkCJkDhjea-22" edge="1"><mxGeometry width="160" relative="1" as="geometry"><mxPoint x="115" y="539.5" as="sourcePoint"/><mxPoint x="449.92523624235673" y="-335" as="targetPoint"/></mxGeometry></mxCell><mxCell id="-nePuBV1-fCkCJkDhjea-31" value="" style="endArrow=block;dashed=1;endFill=0;endSize=12;html=1;exitX=1;exitY=0.5;exitDx=0;exitDy=0;" parent="Kso5zGYbWB-w1iWD5ysr-1" source="-nePuBV1-fCkCJkDhjea-8" edge="1" target="-nePuBV1-fCkCJkDhjea-22"><mxGeometry width="160" relative="1" as="geometry"><mxPoint x="117" y="653.5" as="sourcePoint"/><mxPoint x="451" y="-356" as="targetPoint"/></mxGeometry></mxCell><mxCell id="-nePuBV1-fCkCJkDhjea-32" value="" style="endArrow=block;dashed=1;endFill=0;endSize=12;html=1;exitX=0;exitY=0.75;exitDx=0;exitDy=0;" parent="Kso5zGYbWB-w1iWD5ysr-1" source="-nePuBV1-fCkCJkDhjea-18" target="-nePuBV1-fCkCJkDhjea-22" edge="1"><mxGeometry width="160" relative="1" as="geometry"><mxPoint x="115" y="-171.5" as="sourcePoint"/><mxPoint x="413.81034482758605" y="-335" as="targetPoint"/></mxGeometry></mxCell><mxCell id="-nePuBV1-fCkCJkDhjea-33" value="" style="endArrow=block;dashed=1;endFill=0;endSize=12;html=1;exitX=0;exitY=0.5;exitDx=0;exitDy=0;" parent="Kso5zGYbWB-w1iWD5ysr-1" source="-nePuBV1-fCkCJkDhjea-19" target="-nePuBV1-fCkCJkDhjea-22" edge="1"><mxGeometry width="160" relative="1" as="geometry"><mxPoint x="131" y="-508.5" as="sourcePoint"/><mxPoint x="404.1969696969695" y="-385" as="targetPoint"/></mxGeometry></mxCell><mxCell id="-nePuBV1-fCkCJkDhjea-34" value="" style="endArrow=block;dashed=1;endFill=0;endSize=12;html=1;" parent="Kso5zGYbWB-w1iWD5ysr-1" source="-nePuBV1-fCkCJkDhjea-20" target="-nePuBV1-fCkCJkDhjea-22" edge="1"><mxGeometry width="160" relative="1" as="geometry"><mxPoint x="131" y="-682.5" as="sourcePoint"/><mxPoint x="434.03488372093034" y="-385" as="targetPoint"/></mxGeometry></mxCell><mxCell id="-nePuBV1-fCkCJkDhjea-35" value="" style="endArrow=block;dashed=1;endFill=0;endSize=12;html=1;exitX=0;exitY=0.5;exitDx=0;exitDy=0;" parent="Kso5zGYbWB-w1iWD5ysr-1" source="-nePuBV1-fCkCJkDhjea-14" target="-nePuBV1-fCkCJkDhjea-22" edge="1"><mxGeometry width="160" relative="1" as="geometry"><mxPoint x="131" y="-863.5" as="sourcePoint"/><mxPoint x="443.1891757696126" y="-385" as="targetPoint"/></mxGeometry></mxCell><mxCell id="-nePuBV1-fCkCJkDhjea-36" value="" style="endArrow=block;dashed=1;endFill=0;endSize=12;html=1;exitX=0;exitY=0.5;exitDx=0;exitDy=0;" parent="Kso5zGYbWB-w1iWD5ysr-1" source="-nePuBV1-fCkCJkDhjea-13" target="-nePuBV1-fCkCJkDhjea-22" edge="1"><mxGeometry width="160" relative="1" as="geometry"><mxPoint x="885" y="-635.5" as="sourcePoint"/><mxPoint x="498.11161524500903" y="-385" as="targetPoint"/></mxGeometry></mxCell><mxCell id="-nePuBV1-fCkCJkDhjea-37" value="" style="endArrow=block;dashed=1;endFill=0;endSize=12;html=1;exitX=0;exitY=0.5;exitDx=0;exitDy=0;" parent="Kso5zGYbWB-w1iWD5ysr-1" source="-nePuBV1-fCkCJkDhjea-12" target="-nePuBV1-fCkCJkDhjea-22" edge="1"><mxGeometry width="160" relative="1" as="geometry"><mxPoint x="885" y="-171.5" as="sourcePoint"/><mxPoint x="515.9323607427054" y="-335" as="targetPoint"/></mxGeometry></mxCell><mxCell id="-nePuBV1-fCkCJkDhjea-38" value="«interface»&lt;br&gt;&lt;pre style=&quot;background-color: #2b2b2b ; color: #9fc7ec ; font-family: &amp;#34;jetbrains mono&amp;#34; , monospace ; font-size: 10 5pt&quot;&gt;&lt;pre style=&quot;font-family: &amp;#34;jetbrains mono&amp;#34; , monospace&quot;&gt;&lt;span style=&quot;color: #2db9ff&quot;&gt;ChangeListener&lt;/span&gt;&lt;/pre&gt;&lt;/pre&gt;" style="html=1;" parent="Kso5zGYbWB-w1iWD5ysr-1" vertex="1"><mxGeometry x="257" y="-1667" width="233" height="50" as="geometry"/></mxCell><mxCell id="-nePuBV1-fCkCJkDhjea-39" value="v" style="endArrow=block;dashed=1;endFill=0;endSize=12;html=1;exitX=0;exitY=0.5;exitDx=0;exitDy=0;" parent="Kso5zGYbWB-w1iWD5ysr-1" source="-nePuBV1-fCkCJkDhjea-16" target="-nePuBV1-fCkCJkDhjea-38" edge="1"><mxGeometry width="160" relative="1" as="geometry"><mxPoint x="-311" y="-1941.5" as="sourcePoint"/><mxPoint x="-637.1380090497737" y="-2027" as="targetPoint"/></mxGeometry></mxCell><mxCell id="-nePuBV1-fCkCJkDhjea-40" value="" style="endArrow=block;dashed=1;endFill=0;endSize=12;html=1;exitX=1;exitY=0.5;exitDx=0;exitDy=0;" parent="Kso5zGYbWB-w1iWD5ysr-1" source="-nePuBV1-fCkCJkDhjea-9" target="-nePuBV1-fCkCJkDhjea-38" edge="1"><mxGeometry width="160" relative="1" as="geometry"><mxPoint x="62" y="-1785.5" as="sourcePoint"/><mxPoint x="367.63471502590664" y="-1857" as="targetPoint"/></mxGeometry></mxCell><mxCell id="-nePuBV1-fCkCJkDhjea-41" value="v" style="endArrow=block;dashed=1;endFill=0;endSize=12;html=1;exitX=1;exitY=0.5;exitDx=0;exitDy=0;" parent="Kso5zGYbWB-w1iWD5ysr-1" source="-nePuBV1-fCkCJkDhjea-11" target="-nePuBV1-fCkCJkDhjea-38" edge="1"><mxGeometry width="160" relative="1" as="geometry"><mxPoint x="598" y="-1780.5" as="sourcePoint"/><mxPoint x="389.1093189964158" y="-1665.9999999999998" as="targetPoint"/></mxGeometry></mxCell><mxCell id="-nePuBV1-fCkCJkDhjea-42" value="v" style="endArrow=block;dashed=1;endFill=0;endSize=12;html=1;exitX=0;exitY=0.5;exitDx=0;exitDy=0;" parent="Kso5zGYbWB-w1iWD5ysr-1" source="-nePuBV1-fCkCJkDhjea-17" target="-nePuBV1-fCkCJkDhjea-38" edge="1"><mxGeometry width="160" relative="1" as="geometry"><mxPoint x="62" y="-1785.5" as="sourcePoint"/><mxPoint x="294.79757785467154" y="-1665.9999999999998" as="targetPoint"/></mxGeometry></mxCell><mxCell id="-nePuBV1-fCkCJkDhjea-43" value="«interface»&lt;br&gt;&lt;pre style=&quot;background-color: #2b2b2b ; color: #9fc7ec ; font-family: &amp;#34;jetbrains mono&amp;#34; , monospace ; font-size: 10 5pt&quot;&gt;&lt;pre style=&quot;font-family: &amp;#34;jetbrains mono&amp;#34; , monospace&quot;&gt;&lt;pre style=&quot;font-family: &amp;#34;jetbrains mono&amp;#34; , monospace&quot;&gt;&lt;span style=&quot;color: #e2a5ee&quot;&gt;StringConverter&lt;/span&gt;&lt;span style=&quot;color: #9876aa ; font-style: italic&quot;&gt;&amp;lt;&lt;/span&gt;&lt;span style=&quot;color: #e2a5ee&quot;&gt;Dom_EventCard&lt;/span&gt;&lt;span style=&quot;color: #9876aa ; font-style: italic&quot;&gt;&amp;gt;&lt;/span&gt;&lt;/pre&gt;&lt;/pre&gt;&lt;/pre&gt;" style="html=1;" parent="Kso5zGYbWB-w1iWD5ysr-1" vertex="1"><mxGeometry x="211" y="-1329" width="306" height="50" as="geometry"/></mxCell><mxCell id="-nePuBV1-fCkCJkDhjea-44" value="" style="endArrow=block;dashed=1;endFill=0;endSize=12;html=1;exitX=1;exitY=0.5;exitDx=0;exitDy=0;entryX=0;entryY=0.5;entryDx=0;entryDy=0;" parent="Kso5zGYbWB-w1iWD5ysr-1" source="-nePuBV1-fCkCJkDhjea-10" target="-nePuBV1-fCkCJkDhjea-43" edge="1"><mxGeometry width="160" relative="1" as="geometry"><mxPoint x="64" y="-1485" as="sourcePoint"/><mxPoint x="298.70833333333394" y="-1616" as="targetPoint"/></mxGeometry></mxCell></root></mxGraphModel></diagram></mxfile>